<svg xmlns="http://www.w3.org/2000/svg" viewBox="0 0 1738 260"><defs><style>.cls-1{fill:#858ae3;}.cls-1,.cls-2{stroke:#000;stroke-miterlimit:10;}.cls-2{fill:#ed217c;stroke-width:5px;}</style></defs><g id="background"><rect class="cls-1" x="-0.5" y="-0.5" width="1739" height="261"/></g><g id="Layer_2" data-name="Layer 2"><path class="cls-2" d="M140.94,198.18v-100h-50v-25h125v25h-50v100h-25Z"/><path class="cls-2" d="M315.94,198.18v-50h-50v50h-25v-125h25v50h50v-50h25v125h-25Z"/><path class="cls-2" d="M440.94,198.18h-75v-125h100v25h-75v25h75v25h-75v25h75v25h-25Z"/><path class="cls-2" d="M628.44,198.18h-75v-125h25v100h75v25h-25Z"/><path class="cls-2" d="M753.44,198.18v-25h-50v25h-25v-125h100v125h-25Zm0-50v-50h-50v50h50Z"/><path class="cls-2" d="M878.44,198.18h-75v-25h75v-25h-75v-75h100v25h-75v25h75v75h-25Z"/><path class="cls-2" d="M978.44,198.18v-100h-50v-25h125v25h-50v100h-25Z"/><path class="cls-2" d="M1240.94,198.18h-100v-125h25v100h25v-100h25v100h25v-100h25v125h-25Z"/><path class="cls-2" d="M1365.94,198.18h-75v-125h100v125h-25Zm0-25v-75h-50v75h50Z"/><path class="cls-2" d="M1490.94,198.18h-25v-50h-25v50h-25v-125h100v75h-25v25h25v25h-25Zm0-75v-25h-50v25h50Z"/><path class="cls-2" d="M1615.94,198.18h-75v-125h75v25h-50v75h50v-75h25v100h-25Z"/><path class="cls-2" d="M153.48,190.41v-100h-50v-25h125v25h-50v100h-25Z"/><path class="cls-2" d="M328.48,190.41v-50h-50v50h-25v-125h25v50h50v-50h25v125h-25Z"/><path class="cls-2" d="M453.48,190.41h-75v-125h100v25h-75v25h75v25h-75v25h75v25h-25Z"/><path class="cls-2" d="M641,190.41H566v-125h25v100h75v25H641Z"/><path class="cls-2" d="M766,190.41v-25H716v25H691v-125H791v125H766Zm0-50v-50H716v50h50Z"/><path class="cls-2" d="M891,190.41H816v-25h75v-25H816v-75H916v25H841v25h75v75H891Z"/><path class="cls-2" d="M991,190.41v-100H941v-25h125v25h-50v100H991Z"/><path class="cls-2" d="M1253.48,190.41h-100v-125h25v100h25v-100h25v100h25v-100h25v125h-25Z"/><path class="cls-2" d="M1378.48,190.41h-75v-125h100v125h-25Zm0-25v-75h-50v75h50Z"/><path class="cls-2" d="M1503.48,190.41h-25v-50h-25v50h-25v-125h100v75h-25v25h25v25h-25Zm0-75v-25h-50v25h50Z"/><path class="cls-2" d="M1628.48,190.41h-75v-125h75v25h-50v75h50v-75h25v100h-25Z"/></g></svg>