<svg xmlns="http://www.w3.org/2000/svg" xmlns:xlink="http://www.w3.org/1999/xlink" viewBox="0 0 2048 2732"><defs><style>.cls-1{fill:none;}.cls-2{fill:#858ae3;stroke:#000;stroke-miterlimit:10;}.cls-3{fill:#2c0735;}.cls-4{fill:#ed217c;}.cls-5{fill:#4e148c;}.cls-6{fill:#613dc1;}.cls-7{fill:#fff;}.cls-8{clip-path:url(#clip-path);}</style><clipPath id="clip-path"><rect class="cls-1" x="492.81" y="2624.17" width="110.92" height="92.49"/></clipPath></defs><g id="background"><rect class="cls-2" x="-4" y="127.5" width="2052" height="2475"/></g><g id="Layer_2" data-name="Layer 2"><rect class="cls-3" x="0.5" y="2602" width="2048" height="128"/><rect class="cls-3" x="0.5" width="2048" height="128"/><path class="cls-4" d="M1057.76,377.54c12.07,5.2,19.9,13.54,19.17,27.45-.51,9.62-5.39,16.9-14,21.49-5.16,2.77-10.43,5.34-17.4,8.89,16.41.91,27.88,7.14,30.29,22.61,3.18,20.41-12.28,27.65-27.12,35.66,1.83.16,3.67.22,5.48.49a26.13,26.13,0,0,1,21.62,30.92c-2.16,10.36-5.28,12.32-15.66,11-27.34-3.42-54.64-3.26-81.83,1.72-1.46.27-3,.42-5.06.71,3.46-14.71,17.16-16.69,27.9-23.9-15.31-.46-25.85-6.77-28.62-21.09-4.23-21.84,12.7-28.72,29.88-36.55-5.89-.83-10-.78-13.56-2-10.68-3.66-17-11.38-17.85-22.64-.87-11.55,4.24-20.32,14.66-25.59,19.36-9.82,38.82-19.46,58.23-29.17Z"/><path class="cls-5" d="M1023.93,874.8c-40.4,1-80.32-2.69-119.15-14.19-48.57-14.38-73.38-45.44-75.84-95.81-1.14-23.37-2.36-47.25,1-70.22,6-40.26,30.19-70.16,62.65-93.62,81-58.5,206.67-52.51,279.32,13.56,32.26,29.33,50.07,65.48,48.58,109.77-.63,18.86-.89,37.87-3.54,56.5-5.46,38.5-28.22,63.78-64.5,76.64-37.3,13.22-76.18,17.07-115.51,17.36C1032.64,874.82,1028.29,874.8,1023.93,874.8Zm85.24-52.43v0c11,0,22,.32,33-.09,10.67-.41,16.43-11.07,10.45-19.64-2.48-3.56-1.55-6-1-9.57,1.33-9.15,3.56-18.92,1.7-27.65-5.59-26.17-32.7-40.76-58-32.63s-38.18,35.19-28.82,60.36c.88,2.39.27,5.41.06,8.12-.39,4.77-2.86,10.52-1,14s7.83,6.39,12.25,6.8C1088.15,823,1098.69,822.37,1109.17,822.37Zm-170.5,0c10.74,0,21.48.23,32.2-.06,11.64-.32,16.94-10.63,11.15-20.5-1.24-2.12-1.07-5.3-.91-8,.56-9.51,3.58-19.45,1.71-28.41-5.47-26.14-32.72-40.78-58-32.69s-38.2,35.19-28.87,60.34c.9,2.4.32,5.43.1,8.14-.39,4.77-2.88,10.5-1,14s7.81,6.42,12.22,6.83C917.66,823,928.2,822.37,938.67,822.36Z"/><path class="cls-5" d="M1147.75,887.55c2.34,22.28,5.78,43.47,6.44,64.75.55,18.1-8,32.88-24.11,42.56-23.73,14.26-49.41,21.5-77.07,22.77-33,1.52-66.16,3-98.17-6.83-14-4.31-27.52-11-40.2-18.39-14.27-8.33-21.34-22.82-20.87-38.75.64-21.78,4-43.48,6.24-66.21C983.21,906,1064.26,906,1147.75,887.55Zm-124,78.81c4.6,0,9.22.27,13.81-.06,7.35-.52,12.5-6.09,12.48-13a12.68,12.68,0,0,0-12.53-12.88c-8.94-.34-17.91-.31-26.86,0-7.48.24-12.66,5.61-12.85,12.57-.19,7.23,5.12,12.88,12.9,13.36C1015.07,966.6,1019.44,966.38,1023.79,966.36Z"/><path class="cls-4" d="M1103.58,837.4c25.76,25.35,58.4,30.93,90,38.58,6,1.45,7.77,3.53,7.84,9.38.09,7.61,1.37,15.2,2.2,23.46a153.08,153.08,0,0,1-51.34,13.12,157.59,157.59,0,0,1-31.92-.66c-13.14-1.75-23.55-9.39-32-19.45-11.9-14.13-12.68-31-1.62-45.74C1091.6,849.62,1097.58,844,1103.58,837.4Z"/><path class="cls-4" d="M1110.63,776.43a19.44,19.44,0,1,1-19.49-19.28A19.35,19.35,0,0,1,1110.63,776.43Z"/><path class="cls-4" d="M917.9,796.2a19.52,19.52,0,1,1,19.27-19.52A19.42,19.42,0,0,1,917.9,796.2Z"/><path class="cls-4" d="M947.14,827.39c-25.76,25.34-58.41,30.93-90,38.58-6,1.45-7.76,3.52-7.83,9.38-.1,7.6-1.37,15.19-2.21,23.45a152.91,152.91,0,0,0,51.34,13.13,157,157,0,0,0,31.93-.67c13.14-1.74,23.54-9.39,32-19.44,11.9-14.13,12.69-31,1.63-45.75C959.11,839.6,953.14,834,947.14,827.39Z"/><rect class="cls-6" x="399.02" y="1320.06" width="1268.98" height="690.04"/><path class="cls-3" d="M1669.41,2011.51c-51.06,1.89-102.79,3.43-154.77,4.9s-104.35,2.76-156.87,4-105.35,2.28-158.31,3.23-106.11,1.72-159.37,2.34-106.63,1.09-160.06,1.37-107,.13-160.56-.46-107.13-1.62-160.56-2.9L399,2020l-10.14-.26.24-9.64q2.11-86.25,3.18-172.51t.64-172.51q-.31-86.25-1.54-172.51t-3.33-172.5l-.25-10.71,11.2-.24,158.62-3.52q79.3-1.66,158.62-2.7c52.88-.68,105.75-1.12,158.62-1.61l158.63-1.43c105.75-.9,211.5-1.55,317.24-1.25s211.5,1.23,317.25,2.53l19.2.23-.27,18.7-1.27,87.87-1.63,87.69q-1.85,87.56-4.21,174.35t-5,172.22Zm-2.82-2.83-5.37-175.7q-2.62-87.06-5-172.8T1652,1489.51l-1.63-84.82-1.27-84.63L1668,1339q-158.62,2-317.25,2.52c-105.74.3-211.49-.34-317.24-1.25l-158.63-1.43c-52.87-.49-105.74-.93-158.62-1.61s-105.75-1.59-158.62-2.7L399,1331l11-11q-2,86.25-3.34,172.5t-1.54,172.51q-.27,86.27.64,172.51t3.18,172.51L399,2000.2l157.34-4q78.48-1.93,156.7-2.91t156.68-.46q78.48.42,157.18,1.37t157.88,2.35q79.18,1.41,158.94,3.22t160.38,4C1557.89,2005.24,1611.9,2006.78,1666.59,2008.68Z"/><rect class="cls-6" x="542.77" y="1007.03" width="996.23" height="304.01"/><path class="cls-3" d="M1540.41,1312.46c-19.66,1.13-39.6,2.09-59.63,3s-40.22,1.76-60.48,2.58q-60.81,2.42-122.66,4.32c-82.41,2.51-165.92,4.3-249.91,5.2-42,.5-84.14.61-126.44,0s-84.66-1.71-126.92-3.23l-63.25-2.27-31.54-1.17-31.47-1q-62.86-2-125.34-2.63l-6.25-.06.05-6.15q.34-38,.12-76l-.29-38-.5-38q-.69-38-1.71-76c-.67-25.34-1.53-50.67-2.37-76l-.35-10.56,11.3-.39L605,994l62.26-2q62.26-1.85,124.53-2.76l124.53-1.76,62.26-.81q31.14-.42,62.27-.66,124.53-1.22,249,.59T1539,991.82l15.6.45-.39,14.76c-.34,13.12-.8,26.22-1.23,39.29s-.92,26.11-1.45,39.11-1,26-1.64,38.85l-1.8,38.52-3.84,75.81Zm-2.82-2.83-7.68-154.36-1.8-37.48q-.9-18.66-1.64-37.15t-1.45-36.89c-.43-12.26-.89-24.5-1.23-36.72l15.21,15.21q-124.53,3.65-249.06,5.26t-249,.58c-20.76-.19-41.51-.37-62.27-.66l-62.26-.81-124.53-1.75q-62.26-.88-124.53-2.76l-62.26-2L542.77,1018l11-11c-.84,25.34-1.69,50.67-2.36,76s-1.25,50.66-1.71,76l-.5,38-.3,38q-.17,38,.13,76l-6.21-6.2q62-.52,123.72-2.63l30.8-1L728,1300l61.27-2.27c40.76-1.52,81.41-2.68,122.14-3.23s81.56-.47,122.61,0c82.06.89,164.58,2.69,248.21,5.2q62.76,1.93,126.4,4.32l64,2.58C1494.17,1307.54,1515.74,1308.49,1537.59,1309.63Z"/><path class="cls-4" d="M531.5,1531.05v-14.66c.74-5.05,1.27-10.13,2.24-15.13,12.34-63.41,74.67-105.23,137.87-92.56a117.58,117.58,0,0,1,92.27,137.48c-9,47-47.64,84.92-94.88,93-4.27.73-8.58,1.21-12.87,1.8H641.47a9.34,9.34,0,0,0-1.52-.37,112.91,112.91,0,0,1-55.59-19.19c-27.69-18.75-44.86-44.55-51-77.51C532.52,1539.68,532.1,1535.35,531.5,1531.05Zm110.43-28c0,6.33.09,12.67,0,19a9.89,9.89,0,0,0,3.2,7.72q19.59,19.44,39,39a15.68,15.68,0,0,0,1.87,1.69,6.84,6.84,0,0,0,10.83-4.62c.37-2.75-.94-4.81-2.82-6.68q-18.4-18.35-36.79-36.72a4.81,4.81,0,0,1-1.59-3.78c.06-11.83,0-23.66,0-35.49,0-4.45-2.85-7.54-6.85-7.56s-6.87,3.09-6.89,7.52C641.91,1489.78,641.93,1496.42,641.93,1503.07Zm13.74-54.8c0-2.36.06-4.72,0-7.08a6.85,6.85,0,0,0-13.7,0c-.08,4.57-.07,9.14,0,13.71a6.86,6.86,0,1,0,13.71,0C655.72,1452.69,655.67,1450.48,655.67,1448.27Zm-13.74,150.81c0,2.36,0,4.72,0,7.08a6.85,6.85,0,0,0,13.7.11q.15-7,0-13.93a6.85,6.85,0,0,0-13.7.12C641.88,1594.66,641.93,1596.87,641.93,1599.08Zm-68.75-68.5c2.36,0,4.72.08,7.08,0a6.85,6.85,0,0,0-.08-13.7q-7-.13-13.94,0a6.86,6.86,0,0,0,.09,13.71C568.61,1530.64,570.9,1530.59,573.18,1530.58Zm151.09,0c2.36,0,4.72.06,7.08,0a6.85,6.85,0,0,0-.07-13.7c-4.57-.08-9.14-.07-13.71,0a6.86,6.86,0,1,0,.07,13.71C719.85,1530.63,722.06,1530.59,724.27,1530.59ZM713.93,1582a6.83,6.83,0,0,0-6.82-6.87,7,7,0,0,0-6.87,6.88,6.83,6.83,0,0,0,6.88,6.81A6.71,6.71,0,0,0,713.93,1582Zm-6.8-123.42a6.83,6.83,0,0,0-6.89,6.8,7,7,0,0,0,6.86,6.89,6.83,6.83,0,0,0,6.83-6.87A6.69,6.69,0,0,0,707.13,1458.6ZM583.67,1581.8a6.71,6.71,0,0,0,6.59,7,6.8,6.8,0,0,0,7.09-6.58,7,7,0,0,0-6.65-7.09A6.81,6.81,0,0,0,583.67,1581.8Zm0-116.46a6.82,6.82,0,0,0,6.74,7,7,7,0,0,0,6.94-6.81,6.8,6.8,0,0,0-6.79-6.88A6.7,6.7,0,0,0,583.67,1465.34Z"/><path class="cls-4" d="M794.28,1732.36c-1.63,5-4.26,9.19-9.14,11.72a16.46,16.46,0,1,1-14.06-29.71,17.1,17.1,0,0,1,22.2,10c.29.85.67,1.67,1,2.5Z"/><path class="cls-4" d="M568.82,1836.56l-24.29-77.16,7-4.74,9.37,8.21c9,7.84,19.09,13.42,30.93,15.59,12.48,2.29,23.06-1.45,32.08-10.13,8.68-8.36,14.31-18.67,18.78-29.66,2.33-5.74,4.16-11.67,6.22-17.52h9.87c1.25,3.86,2.41,7.89,3.84,11.82,4.2,11.57,9.33,22.65,17.51,32,6.15,7.07,13.36,12.65,23,13.79,9.4,1.12,18.35-1,26.87-5a68.18,68.18,0,0,0,23.19-17.59c.59-.69,1.23-1.34,1.94-2.11l7.92,5.3q-12.13,38.52-24.3,77.18Zm84.83-13.5,27.54-27.5-27.36-27.35-27.47,27.48Zm-49.55-.26L614.9,1812l-10.52-10.56c-3.51,3.51-7.29,7.28-10.86,10.83Zm88.19-11.14,10.9,10.85,10.54-10.59-10.85-10.79C699.42,1804.57,695.69,1808.29,692.29,1811.66Z"/><path class="cls-4" d="M744.21,1853.31v32.59H563.42v-32.59Z"/><path class="cls-4" d="M676.77,1723.66c21.89,4.23,40.9,13.14,57.15,28.49-8.86,6.37-18,11.45-29.1,10.11-2.94-.35-6.08-2.25-8.36-4.3C686.28,1748.83,681.28,1736.62,676.77,1723.66Z"/><path class="cls-4" d="M630.72,1723.66c-3.75,11.12-8.26,21.23-15.58,29.91-6.41,7.6-14.1,11-24,7.89a53.68,53.68,0,0,1-17.45-9.34C589.81,1736.83,608.82,1727.92,630.72,1723.66Z"/><path class="cls-4" d="M546.71,1729.61a16.55,16.55,0,0,1-16.42,16.45c-9.19,0-17.12-7.7-17-16.58s7.93-16.33,17-16.31A16.54,16.54,0,0,1,546.71,1729.61Z"/><path class="cls-4" d="M670.21,1688.36A16.45,16.45,0,1,1,653.75,1672,16.56,16.56,0,0,1,670.21,1688.36Z"/><path class="cls-4" d="M653.78,1799.89l-4.29-4.4,4.42-4.31,4,4.49Z"/><rect class="cls-6" x="848.39" y="1942.06" width="383.61" height="218.44"/><path class="cls-3" d="M1233.41,2161.91c-14.2,1.87-29.06,3.39-44.15,4.85s-30.58,2.73-46.21,4c-31.35,2.37-63.58,4.32-96.31,5.58s-65.85,2.23-99.21,1.18c-8.33-.26-16.66-.57-25-1.06s-16.62-1-24.9-1.58q-24.82-1.91-49.26-3.93l-11.21-.93.79-9.49c.75-9.1,1.45-18.2,2-27.31s1.11-18.2,1.49-27.3c.76-18.2,1-36.41.85-54.61s-.63-36.41-1.49-54.61-2.08-36.41-3.41-54.61l-.75-10.08,11.7-.87,24-1.78,24-1.68q24-1.67,47.95-2.69c16-.7,32-1.12,48-1.61l48-1.41c32-.93,63.94-1.56,95.91-1.37q24,.12,48,.75c8,.18,16,.45,24,.69l24,.88,19.85.73-.68,18.44c-.72,19.33-1.69,38.62-2.88,57.72-.59,9.54-1.29,19-2,28.46s-1.45,18.78-2.29,28c-1.56,18.53-3.36,36.65-5.13,54.31S1235.32,2145.45,1233.41,2161.91Zm-2.82-2.82-5.5-57.89c-1.77-18.75-3.57-37-5.13-54.91-.84-9-1.53-17.79-2.29-26.58s-1.37-17.49-2-26.15c-1.19-17.31-2.16-34.43-2.88-51.5l19.17,19.17-24,.88c-8,.24-16,.51-24,.68q-24,.63-48,.75c-32,.2-63.94-.43-95.91-1.36l-48-1.42c-16-.49-32-.9-48-1.6s-32-1.58-47.95-2.69l-24-1.68-24-1.78,11-11c-1.34,18.2-2.57,36.41-3.42,54.61s-1.31,36.41-1.49,54.61.09,36.41.85,54.61c.38,9.1.86,18.2,1.49,27.3s1.28,18.21,2,27.31l-10.41-10.42,46.63-3.93c7.71-.59,15.39-1.15,23.06-1.58s15.32-.8,23-1.06c30.57-1.05,61.38,0,92.59,1.18s62.91,3.21,95.5,5.58c16.34,1.24,32.85,2.52,49.7,4S1212.82,2157.22,1230.59,2159.09Z"/><path class="cls-4" d="M999,2119H924V1994h100v125H999Zm0-25v-75H949v75h50Z"/><path class="cls-4" d="M1049,2119V1994h25v50h50v25h-50v50h-25Zm75-87.5V1994h25v50h-25Zm0,87.5v-50h25v50h-25Z"/><path class="cls-4" d="M737.28,1223.65h-75v-125h75v25h-50v75h50v-75h25v100h-25Z"/><path class="cls-4" d="M862.28,1223.65h-75v-125h100v25h-75v25h75v25h-75v25h75v25h-25Z"/><path class="cls-4" d="M912.28,1223.65v-125h100v25h-75v25h75v25h-75v50h-25Z"/><path class="cls-4" d="M1112.28,1223.65h-75v-125h100v25h-75v25h75v25h-75v25h75v25h-25Z"/><path class="cls-4" d="M1237.28,1223.65v-25h-50v25h-25v-125h100v125h-25Zm0-50v-50h-50v50h50Z"/><path class="cls-4" d="M1337.28,1223.65v-100h-50v-25h125v25h-50v100h-25Z"/><path class="cls-4" d="M1229.74,1589h-75V1464h100v125h-25Zm0-25v-75h-50v75h50Z"/><path class="cls-4" d="M1279.74,1514v-25h25v25h-25Zm0,50v-25h25v25h-25Z"/><path class="cls-4" d="M1404.74,1589h-75V1464h100v125h-25Zm0-25v-75h-50v75h50Z"/><path class="cls-4" d="M1529.74,1589h-75V1464h100v125h-25Zm0-25v-75h-50v75h50Z"/><path class="cls-4" d="M1277.24,1868.47h-75v-75h75v-25h-75v-25h100v75h-75v25h75v25h-25Z"/><path class="cls-4" d="M1402.24,1868.47v-100h-50v25h-25v-50h100v125h-25Z"/><path class="cls-4" d="M1527.24,1868.47h-75v-25h75v-25h-75v-75h100v25h-75v25h75v75h-25Z"/><rect class="cls-7" x="32.98" y="27.17" width="96" height="20" rx="10"/><rect class="cls-7" x="32.98" y="56.17" width="96" height="20" rx="10"/><rect class="cls-7" x="32.98" y="87.17" width="96" height="20" rx="10"/><g class="cls-8"><path class="cls-7" d="M538.89,2663.23q0-16.53,0-33.07a10.28,10.28,0,0,1,.23-2.48,4.63,4.63,0,0,1,4.46-3.49q4.7,0,9.4,0a4.61,4.61,0,0,1,4.57,4.17,17.13,17.13,0,0,1,.12,1.89v66.14c0,.23,0,.47,0,.7.07.88-.35,1.15-1.19,1.14-5.46,0-10.92,0-16.38,0-1.14,0-1.21-.58-1.21-1.44q0-16.78,0-33.57"/><path class="cls-7" d="M506.65,2672.22q0-12.13,0-24.27c0-3.45,1.91-5.35,5.39-5.36h8.09c3.21,0,5.2,2,5.21,5.15v49.14c0,1.3,0,1.34-1.36,1.34q-8,0-16,0c-1.32,0-1.35,0-1.35-1.33v-24.67"/><path class="cls-7" d="M548.33,2707.32h50.36a4.62,4.62,0,0,1,4.85,3.36,4.68,4.68,0,0,1-4.32,6h-.7q-50.25,0-100.51,0a4.74,4.74,0,0,1-4.77-2.79,4.6,4.6,0,0,1,4.14-6.54c6.16-.05,12.32,0,18.48,0h32.47"/><path class="cls-7" d="M589.9,2681.45c0,5.16,0,10.33,0,15.49,0,1-.34,1.31-1.33,1.3-5.36,0-10.72,0-16.08,0-1.24,0-1.3-.06-1.3-1.3v-30.77a4.8,4.8,0,0,1,5-5.12c3-.07,5.93-.07,8.9,0a4.79,4.79,0,0,1,4.83,5c0,5.13,0,10.26,0,15.39"/></g><path class="cls-7" d="M1498.74,2717.17h-8.64s0-.07-.08-.08a4,4,0,0,1-3.23-3.16c-.59-2.12-1.21-4.24-1.79-6.37a1.73,1.73,0,0,0-1.07-1.22q-3.67-1.5-7.34-3.07a1.54,1.54,0,0,0-1.54.09c-1.93,1.12-3.86,2.22-5.8,3.32a3.86,3.86,0,0,1-5-.62c-1.68-1.64-3.35-3.31-5-5a3.85,3.85,0,0,1-.69-5.14c1-1.89,2.11-3.79,3.2-5.66a2,2,0,0,0,.11-2q-1.49-3.39-2.86-6.83a2.16,2.16,0,0,0-1.59-1.42q-3.2-.84-6.37-1.79a3.62,3.62,0,0,1-2.9-3.72c-.06-2.55-.07-5.11,0-7.66a3.71,3.71,0,0,1,3.06-3.85c2.12-.61,4.24-1.22,6.37-1.79a1.85,1.85,0,0,0,1.35-1.18c1-2.4,2-4.79,3-7.17a1.82,1.82,0,0,0-.12-1.78c-1.08-1.86-2.12-3.73-3.17-5.6-1.19-2.13-1-3.71.75-5.44l4.56-4.56c1.8-1.79,3.39-2,5.59-.76,1.86,1.07,3.73,2.13,5.58,3.21a1.52,1.52,0,0,0,1.5.09q3.66-1.56,7.33-3.08a1.73,1.73,0,0,0,1.1-1.26c.56-2.09,1.15-4.18,1.73-6.26a4.09,4.09,0,0,1,4.27-3.24h6.82a3.93,3.93,0,0,1,4.33,3.27c.58,2.05,1.17,4.09,1.72,6.14a1.94,1.94,0,0,0,1.22,1.4c2.38,1,4.75,2,7.11,3a1.78,1.78,0,0,0,1.77-.12c1.82-1.07,3.65-2.13,5.49-3.15,2.23-1.23,3.73-1,5.53.77q2.29,2.28,4.56,4.56a4,4,0,0,1,.73,5.5c-1,1.83-2.07,3.67-3.15,5.48a1.8,1.8,0,0,0-.1,1.78c1,2.29,2,4.58,2.88,6.89a2.31,2.31,0,0,0,1.72,1.51q3.24.84,6.43,1.83a3.85,3.85,0,0,1,2.8,3.13,1,1,0,0,0,.12.26v8.53c-.45,2.11-1.9,3.09-3.88,3.57s-3.78,1.07-5.68,1.57a1.78,1.78,0,0,0-1.29,1.15c-1,2.36-2,4.71-3,7.05a2,2,0,0,0,.13,2c1.08,1.85,2.13,3.72,3.17,5.6a3.9,3.9,0,0,1-.58,5.12q-2.52,2.64-5.17,5.15a3.84,3.84,0,0,1-4.91.56c-1.91-1.07-3.82-2.13-5.71-3.24a2,2,0,0,0-2-.11q-3.45,1.5-6.94,2.9a2,2,0,0,0-1.29,1.47q-.87,3.26-1.83,6.49a3.82,3.82,0,0,1-3.08,2.85A1,1,0,0,0,1498.74,2717.17Zm-4.18-62.38a15.66,15.66,0,1,0,15.64,15.64A15.78,15.78,0,0,0,1494.56,2654.79Z"/></g></svg>