<svg xmlns="http://www.w3.org/2000/svg" xmlns:xlink="http://www.w3.org/1999/xlink" viewBox="0 0 2048 2732"><defs><style>.cls-1{fill:none;}.cls-2{fill:#858ae3;stroke:#000;stroke-miterlimit:10;}.cls-3{fill:#4e148c;}.cls-4{fill:#613dc1;}.cls-5{fill:#2c0735;}.cls-6{fill:#ed217c;}.cls-7{fill:#cbff4d;}.cls-8{fill:#4a1942;}.cls-9{fill:#fff;}.cls-10{clip-path:url(#clip-path);}</style><clipPath id="clip-path"><rect class="cls-1" x="485.81" y="2624.17" width="110.92" height="92.49"/></clipPath></defs><g id="background"><rect class="cls-2" x="-5" y="129.5" width="2052" height="2475"/></g><g id="Layer_2" data-name="Layer 2"><path class="cls-3" d="M1358.37,381.16c13.51,5.82,22.28,15.16,21.45,30.72-.57,10.77-6,18.91-15.62,24.06-5.77,3.09-11.67,6-19.47,9.95,18.36,1,31.2,8,33.9,25.3,3.55,22.84-13.74,30.95-30.36,39.92,2,.17,4.11.24,6.14.54a29.25,29.25,0,0,1,24.19,34.61c-2.41,11.59-5.9,13.79-17.52,12.34-30.6-3.83-61.16-3.65-91.59,1.92-1.64.31-3.31.47-5.66.8,3.87-16.47,19.2-18.68,31.22-26.76-17.13-.51-28.93-7.58-32-23.6-4.74-24.44,14.22-32.14,33.45-40.91-6.6-.93-11.14-.88-15.18-2.26-12-4.1-19-12.74-20-25.34-1-12.93,4.75-22.74,16.41-28.65,21.68-11,43.45-21.77,65.19-32.64Z"/><path class="cls-3" d="M1320.51,937.72c-45.22,1.08-89.9-3-133.36-15.88-54.37-16.1-82.13-50.86-84.89-107.23-1.27-26.17-2.64-52.89,1.17-78.6,6.7-45.07,33.8-78.53,70.13-104.78,90.61-65.48,231.32-58.78,312.63,15.17,36.1,32.83,56,73.29,54.37,122.86-.71,21.11-1,42.39-4,63.24-6.11,43.09-31.58,71.38-72.19,85.78-41.75,14.8-85.26,19.11-129.29,19.43C1330.25,937.75,1325.38,937.72,1320.51,937.72Zm95.4-58.68v0c12.3,0,24.61.36,36.89-.1,12-.45,18.39-12.39,11.7-22-2.78-4-1.74-6.7-1.15-10.7,1.49-10.25,4-21.18,1.9-31-6.26-29.3-36.6-45.62-64.9-36.53s-42.73,39.39-32.26,67.56c1,2.68.31,6.06.07,9.08-.43,5.35-3.2,11.78-1.11,15.71s8.76,7.14,13.71,7.61C1392.39,879.78,1404.19,879,1415.91,879Zm-190.83,0c12,0,24,.25,36-.07,13-.36,19-11.9,12.48-22.94-1.39-2.37-1.2-5.94-1-8.91.62-10.64,4-21.78,1.91-31.8-6.12-29.25-36.62-45.64-64.88-36.6s-42.75,39.39-32.31,67.54c1,2.69.35,6.08.11,9.12-.43,5.34-3.23,11.75-1.15,15.67s8.74,7.19,13.68,7.65C1201.56,879.79,1213.36,879,1225.08,879Z"/><path class="cls-3" d="M1459.1,952c2.62,24.94,6.47,48.66,7.2,72.47.62,20.27-8.94,36.8-27,47.64-26.56,16-55.3,24.06-86.25,25.48-37,1.7-74.06,3.41-109.88-7.64-15.66-4.82-30.8-12.29-45-20.58-16-9.32-23.88-25.54-23.36-43.38.72-24.37,4.44-48.66,7-74.1C1274.93,972.67,1365.64,972.67,1459.1,952Zm-138.76,88.22c5.16,0,10.33.3,15.46-.07,8.24-.59,14-6.82,14-14.56a14.19,14.19,0,0,0-14-14.41c-10-.38-20-.35-30.06,0-8.38.27-14.17,6.28-14.38,14.07-.22,8.09,5.73,14.42,14.43,15C1310.59,1040.47,1315.48,1040.22,1320.34,1040.21Z"/><path class="cls-3" d="M1152.94,1059.71c-10.48,3.31-19.52,7-28.92,9-18.27,3.8-34.29-4.14-43.12-20.71-9.87-18.52-11-37.79-2.64-57a198.52,198.52,0,0,1,42.49-61.86c3.51-3.49,6.19-5,10.74-1.28,4.15,3.4,8.93,6.59,14,8.25,10,3.27,10.16,9.05,8.31,18.18-3.67,18.15-6,36.61-8.19,55A95.66,95.66,0,0,0,1152.94,1059.71Z"/><path class="cls-3" d="M1488.67,1059.74c14-37.94,4.69-73.82-2.06-109.62-1.28-6.78,0-9.54,6-12.31,7.72-3.59,14.87-8.38,22.91-13a171.25,171.25,0,0,1,37,46.34,176.16,176.16,0,0,1,14,32.88c4.27,14.21,1.26,28.34-5.11,41.61-8.94,18.64-25.8,27.21-45.93,22.71C1506.64,1066.34,1498.15,1062.83,1488.67,1059.74Z"/><path class="cls-3" d="M1436.16,827a21.44,21.44,0,1,1-21.49-21.25A21.35,21.35,0,0,1,1436.16,827Z"/><path class="cls-3" d="M1227,848.81a21.52,21.52,0,1,1,21.24-21.52A21.41,21.41,0,0,1,1227,848.81Z"/><rect class="cls-4" x="40.29" y="1846.54" width="188.64" height="188.96"/><path class="cls-5" d="M229.64,2036.21c-14.37,1.43-29.46,2.62-44.85,3.72s-31.2,2-47.2,2.76-32.2,1.29-48.47,1.55-32.61.26-48.83-.39l-8.65-.35.31-8c.6-15.75,1.8-31.49,2.82-47.24s2-31.49,2.3-47.24.25-31.49-.14-47.24-1.22-31.49-2.11-47.24l-.29-5.14,5.76-.33,23.58-1.37,11.8-.65,11.79-.53c15.72-.75,31.44-1,47.16-1.43s31.44-.78,47.16-1,31.44-.32,47.16-.21l10.78.08-.1,10.6c-.16,16.38-.54,32.77-1.13,49.06s-1.35,32.48-2.25,48.45-1.92,31.71-3.07,47.09S230.92,2021.65,229.64,2036.21Zm-1.41-1.42c-1.28-16.94-2.43-33.32-3.53-49.41s-2.16-31.85-3.07-47.38-1.68-30.84-2.25-46-1-30.3-1.13-45.42l10.69,10.68c-15.72.12-31.44.08-47.16-.2s-31.44-.66-47.16-1-31.44-.68-47.16-1.42L75.67,1854l-11.8-.64L40.29,1852l5.48-5.48c-.89,15.75-1.75,31.49-2.11,47.24s-.49,31.49-.14,47.24,1.23,31.49,2.3,47.24,2.22,31.49,2.82,47.24l-8.35-8.35c15.23-.65,30.31-.74,45.5-.39s30.4.81,45.85,1.55,31.09,1.67,47.12,2.76S211.16,2033.36,228.23,2034.79Z"/><path d="M156.93,2001.7v-25h-50v25h-25v-125h100v125h-25Zm0-50v-50h-50v50h50Z"/><rect class="cls-6" x="41.79" y="2063.04" width="188.64" height="188.96"/><path class="cls-5" d="M231.14,2252.71c-14.37,1.43-29.46,2.62-44.85,3.72s-31.2,2-47.2,2.76-32.2,1.29-48.47,1.55-32.61.26-48.83-.39l-8.65-.35.31-8c.6-15.75,1.8-31.49,2.82-47.24s2-31.49,2.3-47.24.25-31.49-.14-47.24-1.22-31.49-2.11-47.24L36,2057.9l5.76-.33,23.58-1.37,11.8-.65L89,2055c15.72-.75,31.44-1,47.16-1.43s31.44-.78,47.16-1,31.44-.32,47.16-.21l10.78.08-.1,10.6c-.16,16.38-.54,32.77-1.13,49.06s-1.35,32.48-2.25,48.45-1.92,31.71-3.07,47.09S232.42,2238.15,231.14,2252.71Zm-1.41-1.42c-1.28-16.94-2.43-33.32-3.53-49.41S224,2170,223.13,2154.5s-1.68-30.84-2.25-46-1-30.3-1.13-45.42l10.69,10.68c-15.72.12-31.44.08-47.16-.2s-31.44-.66-47.16-1-31.44-.68-47.16-1.42l-11.79-.54-11.8-.64-23.58-1.37,5.48-5.48c-.89,15.75-1.75,31.49-2.11,47.24s-.49,31.49-.14,47.24,1.23,31.49,2.3,47.24,2.22,31.49,2.82,47.24l-8.35-8.35c15.23-.65,30.31-.74,45.5-.39s30.4.81,45.85,1.55,31.09,1.67,47.12,2.76S212.66,2249.86,229.73,2251.29Z"/><path d="M158.43,2218.2h-75v-50h25v25h50v-100h25v125h-25Z"/><rect class="cls-4" x="150.29" y="2288.54" width="188.64" height="188.96"/><path class="cls-5" d="M339.64,2478.21c-14.37,1.43-29.46,2.62-44.85,3.72s-31.2,2-47.2,2.76-32.2,1.29-48.47,1.55-32.61.26-48.83-.39l-8.65-.35.31-8c.6-15.75,1.8-31.49,2.82-47.24s2-31.49,2.3-47.24.25-31.49-.14-47.24-1.22-31.49-2.11-47.24l-.29-5.14,5.76-.33,23.58-1.37,11.8-.65,11.79-.53c15.72-.75,31.44-1,47.16-1.43s31.44-.78,47.16-1,31.44-.32,47.16-.21l10.78.08-.1,10.6c-.16,16.38-.54,32.77-1.13,49.06s-1.35,32.48-2.25,48.45-1.92,31.71-3.07,47.09S340.92,2463.65,339.64,2478.21Zm-1.41-1.42c-1.28-16.94-2.43-33.32-3.53-49.41s-2.16-31.85-3.07-47.38-1.68-30.84-2.25-46-1-30.3-1.13-45.42l10.69,10.68c-15.72.12-31.44.08-47.16-.2s-31.44-.66-47.16-1-31.44-.68-47.16-1.42l-11.79-.54-11.8-.64L150.29,2294l5.48-5.48c-.89,15.75-1.75,31.49-2.11,47.24s-.49,31.49-.14,47.24,1.23,31.49,2.3,47.24,2.22,31.49,2.82,47.24l-8.35-8.35c15.23-.65,30.31-.74,45.5-.39s30.4.81,45.85,1.55,31.09,1.67,47.12,2.76S321.16,2475.36,338.23,2476.79Z"/><path d="M266.93,2443.7h-75v-25h75v-25h-75v-75h100v25h-75v25h75v75h-25Z"/><rect class="cls-4" x="261.29" y="1846.54" width="188.64" height="188.96"/><path class="cls-5" d="M450.64,2036.21c-14.37,1.43-29.46,2.62-44.85,3.72s-31.2,2-47.2,2.76-32.2,1.29-48.47,1.55-32.61.26-48.83-.39l-8.65-.35.31-8c.6-15.75,1.8-31.49,2.82-47.24s2-31.49,2.3-47.24.25-31.49-.14-47.24-1.22-31.49-2.11-47.24l-.29-5.14,5.76-.33,23.58-1.37,11.8-.65,11.79-.53c15.72-.75,31.44-1,47.16-1.43s31.44-.78,47.16-1,31.44-.32,47.16-.21l10.78.08-.1,10.6c-.16,16.38-.54,32.77-1.13,49.06s-1.35,32.48-2.25,48.45-1.92,31.71-3.07,47.09S451.92,2021.65,450.64,2036.21Zm-1.41-1.42c-1.28-16.94-2.43-33.32-3.53-49.41s-2.16-31.85-3.07-47.38-1.68-30.84-2.25-46-1-30.3-1.13-45.42l10.69,10.68c-15.72.12-31.44.08-47.16-.2s-31.44-.66-47.16-1-31.44-.68-47.16-1.42l-11.79-.54-11.8-.64L261.29,1852l5.48-5.48c-.89,15.75-1.75,31.49-2.11,47.24s-.49,31.49-.14,47.24,1.23,31.49,2.3,47.24,2.22,31.49,2.82,47.24l-8.35-8.35c15.23-.65,30.31-.74,45.5-.39s30.4.81,45.85,1.55,31.09,1.67,47.12,2.76S432.16,2033.36,449.23,2034.79Z"/><path d="M377.93,2001.7h-75v-125h75v50h25v75h-25Zm-25-75v-25h-25v25h25Zm25,50v-25h-50v25h50Z"/><rect class="cls-4" x="262.79" y="2063.04" width="188.64" height="188.96"/><path class="cls-5" d="M452.14,2252.71c-14.37,1.43-29.46,2.62-44.85,3.72s-31.2,2-47.2,2.76-32.2,1.29-48.47,1.55-32.61.26-48.83-.39l-8.65-.35.31-8c.6-15.75,1.8-31.49,2.82-47.24s2-31.49,2.3-47.24.25-31.49-.14-47.24-1.22-31.49-2.11-47.24l-.29-5.14,5.76-.33,23.58-1.37,11.8-.65L310,2055c15.72-.75,31.44-1,47.16-1.43s31.44-.78,47.16-1,31.44-.32,47.16-.21l10.78.08-.1,10.6c-.16,16.38-.54,32.77-1.13,49.06s-1.35,32.48-2.25,48.45-1.92,31.71-3.07,47.09S453.42,2238.15,452.14,2252.71Zm-1.41-1.42c-1.28-16.94-2.43-33.32-3.53-49.41S445,2170,444.13,2154.5s-1.68-30.84-2.25-46-1-30.3-1.13-45.42l10.69,10.68c-15.72.12-31.44.08-47.16-.2s-31.44-.66-47.16-1-31.44-.68-47.16-1.42l-11.79-.54-11.8-.64-23.58-1.37,5.48-5.48c-.89,15.75-1.75,31.49-2.11,47.24s-.49,31.49-.14,47.24,1.23,31.49,2.3,47.24,2.22,31.49,2.82,47.24l-8.35-8.35c15.23-.65,30.31-.74,45.5-.39s30.4.81,45.85,1.55,31.09,1.67,47.12,2.76S433.66,2249.86,450.73,2251.29Z"/><path d="M304.43,2218.2v-125h25v50h50v25h-50v50h-25Zm75-87.5v-37.5h25v50h-25Zm0,87.5v-50h25v50h-25Z"/><rect class="cls-7" x="371.29" y="2288.54" width="188.64" height="188.96"/><path class="cls-5" d="M560.64,2478.21c-14.37,1.43-29.46,2.62-44.85,3.72s-31.2,2-47.2,2.76-32.2,1.29-48.47,1.55-32.61.26-48.83-.39l-8.65-.35.31-8c.6-15.75,1.8-31.49,2.82-47.24s2-31.49,2.3-47.24.25-31.49-.14-47.24-1.22-31.49-2.11-47.24l-.29-5.14,5.76-.33,23.58-1.37,11.8-.65,11.79-.53c15.72-.75,31.44-1,47.16-1.43s31.44-.78,47.16-1,31.44-.32,47.16-.21l10.78.08-.1,10.6c-.16,16.38-.54,32.77-1.13,49.06s-1.35,32.48-2.25,48.45-1.92,31.71-3.07,47.09S561.92,2463.65,560.64,2478.21Zm-1.41-1.42c-1.28-16.94-2.43-33.32-3.53-49.41s-2.16-31.85-3.07-47.38-1.68-30.84-2.25-46-1-30.3-1.13-45.42l10.69,10.68c-15.72.12-31.44.08-47.16-.2s-31.44-.66-47.16-1-31.44-.68-47.16-1.42l-11.79-.54-11.8-.64L371.29,2294l5.48-5.48c-.89,15.75-1.75,31.49-2.11,47.24s-.49,31.49-.14,47.24,1.23,31.49,2.3,47.24,2.22,31.49,2.82,47.24l-8.35-8.35c15.23-.65,30.31-.74,45.5-.39s30.4.81,45.85,1.55,31.09,1.67,47.12,2.76S542.16,2475.36,559.23,2476.79Z"/><path d="M452.93,2443.7v-100h-50v-25h125v25h-50v100h-25Z"/><rect class="cls-4" x="485.29" y="1846.54" width="188.64" height="188.96"/><path class="cls-5" d="M674.64,2036.21c-14.37,1.43-29.46,2.62-44.85,3.72s-31.2,2-47.2,2.76-32.2,1.29-48.47,1.55-32.61.26-48.83-.39l-8.65-.35.31-8c.6-15.75,1.8-31.49,2.82-47.24s2-31.49,2.3-47.24.25-31.49-.14-47.24-1.22-31.49-2.11-47.24l-.29-5.14,5.76-.33,23.58-1.37,11.8-.65,11.79-.53c15.72-.75,31.44-1,47.16-1.43s31.44-.78,47.16-1,31.44-.32,47.16-.21l10.78.08-.1,10.6c-.16,16.38-.54,32.77-1.13,49.06s-1.35,32.48-2.25,48.45-1.92,31.71-3.07,47.09S675.92,2021.65,674.64,2036.21Zm-1.41-1.42c-1.28-16.94-2.43-33.32-3.53-49.41s-2.16-31.85-3.07-47.38-1.68-30.84-2.25-46-1-30.3-1.13-45.42l10.69,10.68c-15.72.12-31.44.08-47.16-.2s-31.44-.66-47.16-1-31.44-.68-47.16-1.42l-11.79-.54-11.8-.64L485.29,1852l5.48-5.48c-.89,15.75-1.75,31.49-2.11,47.24s-.49,31.49-.14,47.24,1.23,31.49,2.3,47.24,2.22,31.49,2.82,47.24l-8.35-8.35c15.23-.65,30.31-.74,45.5-.39s30.4.81,45.85,1.55,31.09,1.67,47.12,2.76S656.16,2033.36,673.23,2034.79Z"/><path d="M601.93,2001.7h-75v-125h100v25h-75v75h75v25h-25Z"/><rect class="cls-7" x="486.79" y="2063.04" width="188.64" height="188.96"/><path class="cls-5" d="M676.14,2252.71c-14.37,1.43-29.46,2.62-44.85,3.72s-31.2,2-47.2,2.76-32.2,1.29-48.47,1.55-32.61.26-48.83-.39l-8.65-.35.31-8c.6-15.75,1.8-31.49,2.82-47.24s2-31.49,2.3-47.24.25-31.49-.14-47.24-1.22-31.49-2.11-47.24l-.29-5.14,5.76-.33,23.58-1.37,11.8-.65L534,2055c15.72-.75,31.44-1,47.16-1.43s31.44-.78,47.16-1,31.44-.32,47.16-.21l10.78.08-.1,10.6c-.16,16.38-.54,32.77-1.13,49.06s-1.35,32.48-2.25,48.45-1.92,31.71-3.07,47.09S677.42,2238.15,676.14,2252.71Zm-1.41-1.42c-1.28-16.94-2.43-33.32-3.53-49.41S669,2170,668.13,2154.5s-1.68-30.84-2.25-46-1-30.3-1.13-45.42l10.69,10.68c-15.72.12-31.44.08-47.16-.2s-31.44-.66-47.16-1-31.44-.68-47.16-1.42l-11.79-.54-11.8-.64-23.58-1.37,5.48-5.48c-.89,15.75-1.75,31.49-2.11,47.24s-.49,31.49-.14,47.24,1.23,31.49,2.3,47.24,2.22,31.49,2.82,47.24l-8.35-8.35c15.23-.65,30.31-.74,45.5-.39s30.4.81,45.85,1.55,31.09,1.67,47.12,2.76S657.66,2249.86,674.73,2251.29Z"/><path d="M603.43,2218.2h-75v-125h25v100h75v25h-25Z"/><rect class="cls-6" x="595.29" y="2288.54" width="188.64" height="188.96"/><path class="cls-5" d="M784.64,2478.21c-14.37,1.43-29.46,2.62-44.85,3.72s-31.2,2-47.2,2.76-32.2,1.29-48.47,1.55-32.61.26-48.83-.39l-8.65-.35.31-8c.6-15.75,1.8-31.49,2.82-47.24s2-31.49,2.3-47.24.25-31.49-.14-47.24-1.22-31.49-2.11-47.24l-.29-5.14,5.76-.33,23.58-1.37,11.8-.65,11.79-.53c15.72-.75,31.44-1,47.16-1.43s31.44-.78,47.16-1,31.44-.32,47.16-.21l10.78.08-.1,10.6c-.16,16.38-.54,32.77-1.13,49.06s-1.35,32.48-2.25,48.45-1.92,31.71-3.07,47.09S785.92,2463.65,784.64,2478.21Zm-1.41-1.42c-1.28-16.94-2.43-33.32-3.53-49.41s-2.16-31.85-3.07-47.38-1.68-30.84-2.25-46-1-30.3-1.13-45.42l10.69,10.68c-15.72.12-31.44.08-47.16-.2s-31.44-.66-47.16-1-31.44-.68-47.16-1.42l-11.79-.54-11.8-.64L595.29,2294l5.48-5.48c-.89,15.75-1.75,31.49-2.11,47.24s-.49,31.49-.14,47.24,1.23,31.49,2.3,47.24,2.22,31.49,2.82,47.24l-8.35-8.35c15.23-.65,30.31-.74,45.5-.39s30.4.81,45.85,1.55,31.09,1.67,47.12,2.76S766.16,2475.36,783.23,2476.79Z"/><path d="M711.93,2443.7h-75v-125h25v100h50v-100h25v125h-25Z"/><rect class="cls-4" x="705.29" y="1846.54" width="188.64" height="188.96"/><path class="cls-5" d="M894.64,2036.21c-14.37,1.43-29.46,2.62-44.85,3.72s-31.2,2-47.2,2.76-32.2,1.29-48.47,1.55-32.61.26-48.83-.39l-8.65-.35.31-8c.6-15.75,1.8-31.49,2.82-47.24s2-31.49,2.3-47.24.25-31.49-.14-47.24-1.22-31.49-2.11-47.24l-.29-5.14,5.76-.33,23.58-1.37,11.8-.65,11.79-.53c15.72-.75,31.44-1,47.16-1.43s31.44-.78,47.16-1,31.44-.32,47.16-.21l10.78.08-.1,10.6c-.16,16.38-.54,32.77-1.13,49.06s-1.35,32.48-2.25,48.45-1.92,31.71-3.07,47.09S895.92,2021.65,894.64,2036.21Zm-1.41-1.42c-1.28-16.94-2.43-33.32-3.53-49.41s-2.16-31.85-3.07-47.38-1.68-30.84-2.25-46-1-30.3-1.13-45.42l10.69,10.68c-15.72.12-31.44.08-47.16-.2s-31.44-.66-47.16-1-31.44-.68-47.16-1.42l-11.79-.54-11.8-.64L705.29,1852l5.48-5.48c-.89,15.75-1.75,31.49-2.11,47.24s-.49,31.49-.14,47.24,1.23,31.49,2.3,47.24,2.22,31.49,2.82,47.24l-8.35-8.35c15.23-.65,30.31-.74,45.5-.39s30.4.81,45.85,1.55,31.09,1.67,47.12,2.76S876.16,2033.36,893.23,2034.79Z"/><path d="M821.93,2001.7h-75v-125h75v25h-50v75h50v-75h25v100h-25Z"/><rect class="cls-4" x="706.79" y="2063.04" width="188.64" height="188.96"/><path class="cls-5" d="M896.14,2252.71c-14.37,1.43-29.46,2.62-44.85,3.72s-31.2,2-47.2,2.76-32.2,1.29-48.47,1.55-32.61.26-48.83-.39l-8.65-.35.31-8c.6-15.75,1.8-31.49,2.82-47.24s2-31.49,2.3-47.24.25-31.49-.14-47.24-1.22-31.49-2.11-47.24l-.29-5.14,5.76-.33,23.58-1.37,11.8-.65L754,2055c15.72-.75,31.44-1,47.16-1.43s31.44-.78,47.16-1,31.44-.32,47.16-.21l10.78.08-.1,10.6c-.16,16.38-.54,32.77-1.13,49.06s-1.35,32.48-2.25,48.45-1.92,31.71-3.07,47.09S897.42,2238.15,896.14,2252.71Zm-1.41-1.42c-1.28-16.94-2.43-33.32-3.53-49.41S889,2170,888.13,2154.5s-1.68-30.84-2.25-46-1-30.3-1.13-45.42l10.69,10.68c-15.72.12-31.44.08-47.16-.2s-31.44-.66-47.16-1-31.44-.68-47.16-1.42l-11.79-.54-11.8-.64-23.58-1.37,5.48-5.48c-.89,15.75-1.75,31.49-2.11,47.24s-.49,31.49-.14,47.24,1.23,31.49,2.3,47.24,2.22,31.49,2.82,47.24l-8.35-8.35c15.23-.65,30.31-.74,45.5-.39s30.4.81,45.85,1.55,31.09,1.67,47.12,2.76S877.66,2249.86,894.73,2251.29Z"/><path d="M848.43,2218.2v-100h-25v100h-25v-100h-25v100h-25v-125h125v125h-25Z"/><rect class="cls-4" x="815.29" y="2288.54" width="188.64" height="188.96"/><path class="cls-5" d="M1004.64,2478.21c-14.37,1.43-29.46,2.62-44.85,3.72s-31.2,2-47.2,2.76-32.2,1.29-48.47,1.55-32.61.26-48.83-.39l-8.65-.35.31-8c.6-15.75,1.8-31.49,2.82-47.24s2-31.49,2.3-47.24.25-31.49-.14-47.24-1.22-31.49-2.11-47.24l-.29-5.14,5.76-.33,23.58-1.37,11.8-.65,11.79-.53c15.72-.75,31.44-1,47.16-1.43s31.44-.78,47.16-1,31.44-.32,47.16-.21l10.78.08-.1,10.6c-.16,16.38-.54,32.77-1.13,49.06s-1.35,32.48-2.25,48.45-1.92,31.71-3.07,47.09S1005.92,2463.65,1004.64,2478.21Zm-1.41-1.42c-1.28-16.94-2.43-33.32-3.53-49.41s-2.16-31.85-3.07-47.38-1.68-30.84-2.25-46-1-30.3-1.13-45.42l10.69,10.68c-15.72.12-31.44.08-47.16-.2s-31.44-.66-47.16-1-31.44-.68-47.16-1.42l-11.79-.54-11.8-.64L815.29,2294l5.48-5.48c-.89,15.75-1.75,31.49-2.11,47.24s-.49,31.49-.14,47.24,1.23,31.49,2.3,47.24,2.22,31.49,2.82,47.24l-8.35-8.35c15.23-.65,30.31-.74,45.5-.39s30.4.81,45.85,1.55,31.09,1.67,47.12,2.76S986.16,2475.36,1003.23,2476.79Z"/><path d="M859.43,2393.7h-12.5v-75h25v75Zm25,25h-12.5v-25h25v25Zm12.5,25v-25h25v25h-25Zm25-37.5v-12.5h25v25h-25Zm25-25v-62.5h25v75h-25Z"/><rect class="cls-7" x="926.29" y="1846.54" width="188.64" height="188.96"/><path class="cls-5" d="M1115.64,2036.21c-14.37,1.43-29.46,2.62-44.85,3.72s-31.2,2-47.2,2.76-32.2,1.29-48.47,1.55-32.61.26-48.83-.39l-8.65-.35.31-8c.6-15.75,1.8-31.49,2.82-47.24s2-31.49,2.3-47.24.25-31.49-.14-47.24-1.22-31.49-2.11-47.24l-.29-5.14,5.76-.33,23.58-1.37,11.8-.65,11.79-.53c15.72-.75,31.44-1,47.16-1.43s31.44-.78,47.16-1,31.44-.32,47.16-.21l10.78.08-.1,10.6c-.16,16.38-.54,32.77-1.13,49.06s-1.35,32.48-2.25,48.45-1.92,31.71-3.07,47.09S1116.92,2021.65,1115.64,2036.21Zm-1.41-1.42c-1.28-16.94-2.43-33.32-3.53-49.41s-2.16-31.85-3.07-47.38-1.68-30.84-2.25-46-1-30.3-1.13-45.42l10.69,10.68c-15.72.12-31.44.08-47.16-.2s-31.44-.66-47.16-1-31.44-.68-47.16-1.42l-11.79-.54-11.8-.64L926.29,1852l5.48-5.48c-.89,15.75-1.75,31.49-2.11,47.24s-.49,31.49-.14,47.24,1.23,31.49,2.3,47.24,2.22,31.49,2.82,47.24l-8.35-8.35c15.23-.65,30.31-.74,45.5-.39s30.4.81,45.85,1.55,31.09,1.67,47.12,2.76S1097.16,2033.36,1114.23,2034.79Z"/><path d="M1042.93,2001.7h-75v-125h100v25h-75v25h75v25h-75v25h75v25h-25Z"/><rect class="cls-6" x="927.79" y="2063.04" width="188.64" height="188.96"/><path class="cls-5" d="M1117.14,2252.71c-14.37,1.43-29.46,2.62-44.85,3.72s-31.2,2-47.2,2.76-32.2,1.29-48.47,1.55-32.61.26-48.83-.39l-8.65-.35.31-8c.6-15.75,1.8-31.49,2.82-47.24s2-31.49,2.3-47.24.25-31.49-.14-47.24-1.22-31.49-2.11-47.24l-.29-5.14,5.76-.33,23.58-1.37,11.8-.65L975,2055c15.72-.75,31.44-1,47.16-1.43s31.44-.78,47.16-1,31.44-.32,47.16-.21l10.78.08-.1,10.6c-.16,16.38-.54,32.77-1.13,49.06s-1.35,32.48-2.25,48.45-1.92,31.71-3.07,47.09S1118.42,2238.15,1117.14,2252.71Zm-1.41-1.42c-1.28-16.94-2.43-33.32-3.53-49.41s-2.16-31.85-3.07-47.38-1.68-30.84-2.25-46-1-30.3-1.13-45.42l10.69,10.68c-15.72.12-31.44.08-47.16-.2s-31.44-.66-47.16-1-31.44-.68-47.16-1.42l-11.79-.54-11.8-.64-23.58-1.37,5.48-5.48c-.89,15.75-1.75,31.49-2.11,47.24s-.49,31.49-.14,47.24,1.23,31.49,2.3,47.24,2.22,31.49,2.82,47.24l-8.35-8.35c15.23-.65,30.31-.74,45.5-.39s30.4.81,45.85,1.55,31.09,1.67,47.12,2.76S1098.66,2249.86,1115.73,2251.29Z"/><path d="M1044.43,2218.2v-100h-50v100h-25v-125h100v125h-25Z"/><rect class="cls-7" x="1036.29" y="2288.54" width="188.64" height="188.96"/><path class="cls-5" d="M1225.64,2478.21c-14.37,1.43-29.46,2.62-44.85,3.72s-31.2,2-47.2,2.76-32.2,1.29-48.47,1.55-32.61.26-48.83-.39l-8.65-.35.31-8c.6-15.75,1.8-31.49,2.82-47.24s2-31.49,2.3-47.24.25-31.49-.14-47.24-1.22-31.49-2.11-47.24l-.29-5.14,5.76-.33,23.58-1.37,11.8-.65,11.79-.53c15.72-.75,31.44-1,47.16-1.43s31.44-.78,47.16-1,31.44-.32,47.16-.21l10.78.08-.1,10.6c-.16,16.38-.54,32.77-1.13,49.06s-1.35,32.48-2.25,48.45-1.92,31.71-3.07,47.09S1226.92,2463.65,1225.64,2478.21Zm-1.41-1.42c-1.28-16.94-2.43-33.32-3.53-49.41s-2.16-31.85-3.07-47.38-1.68-30.84-2.25-46-1-30.3-1.13-45.42l10.69,10.68c-15.72.12-31.44.08-47.16-.2s-31.44-.66-47.16-1-31.44-.68-47.16-1.42l-11.79-.54-11.8-.64-23.58-1.37,5.48-5.48c-.89,15.75-1.75,31.49-2.11,47.24s-.49,31.49-.14,47.24,1.23,31.49,2.3,47.24,2.22,31.49,2.82,47.24l-8.35-8.35c15.23-.65,30.31-.74,45.5-.39s30.4.81,45.85,1.55,31.09,1.67,47.12,2.76S1207.16,2475.36,1224.23,2476.79Z"/><path d="M1167.93,2443.7h-100v-125h25v100h25v-100h25v100h25v-100h25v125h-25Z"/><rect class="cls-6" x="1150.29" y="1846.54" width="188.64" height="188.96"/><path class="cls-5" d="M1339.64,2036.21c-14.37,1.43-29.46,2.62-44.85,3.72s-31.2,2-47.2,2.76-32.2,1.29-48.47,1.55-32.61.26-48.83-.39l-8.65-.35.31-8c.6-15.75,1.8-31.49,2.82-47.24s2-31.49,2.3-47.24.25-31.49-.14-47.24-1.22-31.49-2.11-47.24l-.29-5.14,5.76-.33,23.58-1.37,11.8-.65,11.79-.53c15.72-.75,31.44-1,47.16-1.43s31.44-.78,47.16-1,31.44-.32,47.16-.21l10.78.08-.1,10.6c-.16,16.38-.54,32.77-1.13,49.06s-1.35,32.48-2.25,48.45-1.92,31.71-3.07,47.09S1340.92,2021.65,1339.64,2036.21Zm-1.41-1.42c-1.28-16.94-2.43-33.32-3.53-49.41s-2.16-31.85-3.07-47.38-1.68-30.84-2.25-46-1-30.3-1.13-45.42l10.69,10.68c-15.72.12-31.44.08-47.16-.2s-31.44-.66-47.16-1-31.44-.68-47.16-1.42l-11.79-.54-11.8-.64-23.58-1.37,5.48-5.48c-.89,15.75-1.75,31.49-2.11,47.24s-.49,31.49-.14,47.24,1.23,31.49,2.3,47.24,2.22,31.49,2.82,47.24l-8.35-8.35c15.23-.65,30.31-.74,45.5-.39s30.4.81,45.85,1.55,31.09,1.67,47.12,2.76S1321.16,2033.36,1338.23,2034.79Z"/><path d="M1191.93,2001.7v-125h100v25h-75v25h75v25h-75v50h-25Z"/><rect class="cls-4" x="1151.79" y="2063.04" width="188.64" height="188.96"/><path class="cls-5" d="M1341.14,2252.71c-14.37,1.43-29.46,2.62-44.85,3.72s-31.2,2-47.2,2.76-32.2,1.29-48.47,1.55-32.61.26-48.83-.39l-8.65-.35.31-8c.6-15.75,1.8-31.49,2.82-47.24s2-31.49,2.3-47.24.25-31.49-.14-47.24-1.22-31.49-2.11-47.24l-.29-5.14,5.76-.33,23.58-1.37,11.8-.65L1199,2055c15.72-.75,31.44-1,47.16-1.43s31.44-.78,47.16-1,31.44-.32,47.16-.21l10.78.08-.1,10.6c-.16,16.38-.54,32.77-1.13,49.06s-1.35,32.48-2.25,48.45-1.92,31.71-3.07,47.09S1342.42,2238.15,1341.14,2252.71Zm-1.41-1.42c-1.28-16.94-2.43-33.32-3.53-49.41s-2.16-31.85-3.07-47.38-1.68-30.84-2.25-46-1-30.3-1.13-45.42l10.69,10.68c-15.72.12-31.44.08-47.16-.2s-31.44-.66-47.16-1-31.44-.68-47.16-1.42l-11.79-.54-11.8-.64-23.58-1.37,5.48-5.48c-.89,15.75-1.75,31.49-2.11,47.24s-.49,31.49-.14,47.24,1.23,31.49,2.3,47.24,2.22,31.49,2.82,47.24l-8.35-8.35c15.23-.65,30.31-.74,45.5-.39s30.4.81,45.85,1.55,31.09,1.67,47.12,2.76S1322.66,2249.86,1339.73,2251.29Z"/><path d="M1268.43,2218.2h-75v-125h100v125h-25Zm0-25v-75h-50v75h50Z"/><rect class="cls-4" x="1259.29" y="2288.54" width="188.64" height="188.96"/><path class="cls-5" d="M1448.64,2478.21c-14.37,1.43-29.46,2.62-44.85,3.72s-31.2,2-47.2,2.76-32.2,1.29-48.47,1.55-32.61.26-48.83-.39l-8.65-.35.31-8c.6-15.75,1.8-31.49,2.82-47.24s2-31.49,2.3-47.24.25-31.49-.14-47.24-1.22-31.49-2.11-47.24l-.29-5.14,5.76-.33,23.58-1.37,11.8-.65,11.79-.53c15.72-.75,31.44-1,47.16-1.43s31.44-.78,47.16-1,31.44-.32,47.16-.21l10.78.08-.1,10.6c-.16,16.38-.54,32.77-1.13,49.06s-1.35,32.48-2.25,48.45-1.92,31.71-3.07,47.09S1449.92,2463.65,1448.64,2478.21Zm-1.41-1.42c-1.28-16.94-2.43-33.32-3.53-49.41s-2.16-31.85-3.07-47.38-1.68-30.84-2.25-46-1-30.3-1.13-45.42l10.69,10.68c-15.72.12-31.44.08-47.16-.2s-31.44-.66-47.16-1-31.44-.68-47.16-1.42l-11.79-.54-11.8-.64-23.58-1.37,5.48-5.48c-.89,15.75-1.75,31.49-2.11,47.24s-.49,31.49-.14,47.24,1.23,31.49,2.3,47.24,2.22,31.49,2.82,47.24l-8.35-8.35c15.23-.65,30.31-.74,45.5-.39s30.4.81,45.85,1.55,31.09,1.67,47.12,2.76S1430.16,2475.36,1447.23,2476.79Z"/><path d="M1313.43,2368.7h-12.5v-50h25v50Zm-12.5,75v-50h25v50h-25Zm62.5-50h-37.5v-25h50v25Zm12.5-37.5v-37.5h25v50h-25Zm0,87.5v-50h25v50h-25Z"/><rect class="cls-4" x="1373.29" y="1846.54" width="188.64" height="188.96"/><path class="cls-5" d="M1562.64,2036.21c-14.37,1.43-29.46,2.62-44.85,3.72s-31.2,2-47.2,2.76-32.2,1.29-48.47,1.55-32.61.26-48.83-.39l-8.65-.35.31-8c.6-15.75,1.8-31.49,2.82-47.24s2-31.49,2.3-47.24.25-31.49-.14-47.24-1.22-31.49-2.11-47.24l-.29-5.14,5.76-.33,23.58-1.37,11.8-.65,11.79-.53c15.72-.75,31.44-1,47.16-1.43s31.44-.78,47.16-1,31.44-.32,47.16-.21l10.78.08-.1,10.6c-.16,16.38-.54,32.77-1.13,49.06s-1.35,32.48-2.25,48.45-1.92,31.71-3.07,47.09S1563.92,2021.65,1562.64,2036.21Zm-1.41-1.42c-1.28-16.94-2.43-33.32-3.53-49.41s-2.16-31.85-3.07-47.38-1.68-30.84-2.25-46-1-30.3-1.13-45.42l10.69,10.68c-15.72.12-31.44.08-47.16-.2s-31.44-.66-47.16-1-31.44-.68-47.16-1.42l-11.79-.54-11.8-.64-23.58-1.37,5.48-5.48c-.89,15.75-1.75,31.49-2.11,47.24s-.49,31.49-.14,47.24,1.23,31.49,2.3,47.24,2.22,31.49,2.82,47.24l-8.35-8.35c15.23-.65,30.31-.74,45.5-.39s30.4.81,45.85,1.55,31.09,1.67,47.12,2.76S1544.16,2033.36,1561.23,2034.79Z"/><path d="M1489.93,2001.7h-75v-125h100v25h-75v75h50v-25h-25v-25h50v75h-25Z"/><rect class="cls-6" x="1374.79" y="2063.04" width="188.64" height="188.96"/><path class="cls-5" d="M1564.14,2252.71c-14.37,1.43-29.46,2.62-44.85,3.72s-31.2,2-47.2,2.76-32.2,1.29-48.47,1.55-32.61.26-48.83-.39l-8.65-.35.31-8c.6-15.75,1.8-31.49,2.82-47.24s2-31.49,2.3-47.24.25-31.49-.14-47.24-1.22-31.49-2.11-47.24l-.29-5.14,5.76-.33,23.58-1.37,11.8-.65L1422,2055c15.72-.75,31.44-1,47.16-1.43s31.44-.78,47.16-1,31.44-.32,47.16-.21l10.78.08-.1,10.6c-.16,16.38-.54,32.77-1.13,49.06s-1.35,32.48-2.25,48.45-1.92,31.71-3.07,47.09S1565.42,2238.15,1564.14,2252.71Zm-1.41-1.42c-1.28-16.94-2.43-33.32-3.53-49.41s-2.16-31.85-3.07-47.38-1.68-30.84-2.25-46-1-30.3-1.13-45.42l10.69,10.68c-15.72.12-31.44.08-47.16-.2s-31.44-.66-47.16-1-31.44-.68-47.16-1.42l-11.79-.54-11.8-.64-23.58-1.37,5.48-5.48c-.89,15.75-1.75,31.49-2.11,47.24s-.49,31.49-.14,47.24,1.23,31.49,2.3,47.24,2.22,31.49,2.82,47.24l-8.35-8.35c15.23-.65,30.31-.74,45.5-.39s30.4.81,45.85,1.55,31.09,1.67,47.12,2.76S1545.66,2249.86,1562.73,2251.29Z"/><path d="M1416.43,2218.2v-125h100v75h-75v50h-25Zm75-75v-25h-50v25h50Z"/><rect class="cls-6" x="1482.29" y="2288.54" width="188.64" height="188.96"/><path class="cls-5" d="M1671.64,2478.21c-14.37,1.43-29.46,2.62-44.85,3.72s-31.2,2-47.2,2.76-32.2,1.29-48.47,1.55-32.61.26-48.83-.39l-8.65-.35.31-8c.6-15.75,1.8-31.49,2.82-47.24s2-31.49,2.3-47.24.25-31.49-.14-47.24-1.22-31.49-2.11-47.24l-.29-5.14,5.76-.33,23.58-1.37,11.8-.65,11.79-.53c15.72-.75,31.44-1,47.16-1.43s31.44-.78,47.16-1,31.44-.32,47.16-.21l10.78.08-.1,10.6c-.16,16.38-.54,32.77-1.13,49.06s-1.35,32.48-2.25,48.45-1.92,31.71-3.07,47.09S1672.92,2463.65,1671.64,2478.21Zm-1.41-1.42c-1.28-16.94-2.43-33.32-3.53-49.41s-2.16-31.85-3.07-47.38-1.68-30.84-2.25-46-1-30.3-1.13-45.42l10.69,10.68c-15.72.12-31.44.08-47.16-.2s-31.44-.66-47.16-1-31.44-.68-47.16-1.42l-11.79-.54-11.8-.64-23.58-1.37,5.48-5.48c-.89,15.75-1.75,31.49-2.11,47.24s-.49,31.49-.14,47.24,1.23,31.49,2.3,47.24,2.22,31.49,2.82,47.24l-8.35-8.35c15.23-.65,30.31-.74,45.5-.39s30.4.81,45.85,1.55,31.09,1.67,47.12,2.76S1653.16,2475.36,1670.23,2476.79Z"/><path d="M1598.93,2443.7h-75v-25h75v-25h-75v-75h25v50h50v-50h25v125h-25Z"/><rect class="cls-7" x="1594.29" y="1846.54" width="188.64" height="188.96"/><path class="cls-5" d="M1783.64,2036.21c-14.37,1.43-29.46,2.62-44.85,3.72s-31.2,2-47.2,2.76-32.2,1.29-48.47,1.55-32.61.26-48.83-.39l-8.65-.35.31-8c.6-15.75,1.8-31.49,2.82-47.24s2-31.49,2.3-47.24.25-31.49-.14-47.24-1.22-31.49-2.11-47.24l-.29-5.14,5.76-.33,23.58-1.37,11.8-.65,11.79-.53c15.72-.75,31.44-1,47.16-1.43s31.44-.78,47.16-1,31.44-.32,47.16-.21l10.78.08-.1,10.6c-.16,16.38-.54,32.77-1.13,49.06s-1.35,32.48-2.25,48.45-1.92,31.71-3.07,47.09S1784.92,2021.65,1783.64,2036.21Zm-1.41-1.42c-1.28-16.94-2.43-33.32-3.53-49.41s-2.16-31.85-3.07-47.38-1.68-30.84-2.25-46-1-30.3-1.13-45.42l10.69,10.68c-15.72.12-31.44.08-47.16-.2s-31.44-.66-47.16-1-31.44-.68-47.16-1.42l-11.79-.54-11.8-.64-23.58-1.37,5.48-5.48c-.89,15.75-1.75,31.49-2.11,47.24s-.49,31.49-.14,47.24,1.23,31.49,2.3,47.24,2.22,31.49,2.82,47.24l-8.35-8.35c15.23-.65,30.31-.74,45.5-.39s30.4.81,45.85,1.55,31.09,1.67,47.12,2.76S1765.16,2033.36,1782.23,2034.79Z"/><path d="M1710.93,2001.7v-50h-50v50h-25v-125h25v50h50v-50h25v125h-25Z"/><rect class="cls-4" x="1595.79" y="2063.04" width="188.64" height="188.96"/><path class="cls-5" d="M1785.14,2252.71c-14.37,1.43-29.46,2.62-44.85,3.72s-31.2,2-47.2,2.76-32.2,1.29-48.47,1.55-32.61.26-48.83-.39l-8.65-.35.31-8c.6-15.75,1.8-31.49,2.82-47.24s2-31.49,2.3-47.24.25-31.49-.14-47.24-1.22-31.49-2.11-47.24l-.29-5.14,5.76-.33,23.58-1.37,11.8-.65L1643,2055c15.72-.75,31.44-1,47.16-1.43s31.44-.78,47.16-1,31.44-.32,47.16-.21l10.78.08-.1,10.6c-.16,16.38-.54,32.77-1.13,49.06s-1.35,32.48-2.25,48.45-1.92,31.71-3.07,47.09S1786.42,2238.15,1785.14,2252.71Zm-1.41-1.42c-1.28-16.94-2.43-33.32-3.53-49.41s-2.16-31.85-3.07-47.38-1.68-30.84-2.25-46-1-30.3-1.13-45.42l10.69,10.68c-15.72.12-31.44.08-47.16-.2s-31.44-.66-47.16-1-31.44-.68-47.16-1.42l-11.79-.54-11.8-.64-23.58-1.37,5.48-5.48c-.89,15.75-1.75,31.49-2.11,47.24s-.49,31.49-.14,47.24,1.23,31.49,2.3,47.24,2.22,31.49,2.82,47.24l-8.35-8.35c15.23-.65,30.31-.74,45.5-.39s30.4.81,45.85,1.55,31.09,1.67,47.12,2.76S1766.66,2249.86,1783.73,2251.29Z"/><path d="M1737.43,2218.2h-100v-125h100v100h25v25h-25Zm-25-25v-75h-50v75h50Z"/><rect class="cls-4" x="1703.29" y="2288.54" width="188.64" height="188.96"/><path class="cls-5" d="M1892.64,2478.21c-14.37,1.43-29.46,2.62-44.85,3.72s-31.2,2-47.2,2.76-32.2,1.29-48.47,1.55-32.61.26-48.83-.39l-8.65-.35.31-8c.6-15.75,1.8-31.49,2.82-47.24s2-31.49,2.3-47.24.25-31.49-.14-47.24-1.22-31.49-2.11-47.24l-.29-5.14,5.76-.33,23.58-1.37,11.8-.65,11.79-.53c15.72-.75,31.44-1,47.16-1.43s31.44-.78,47.16-1,31.44-.32,47.16-.21l10.78.08-.1,10.6c-.16,16.38-.54,32.77-1.13,49.06s-1.35,32.48-2.25,48.45-1.92,31.71-3.07,47.09S1893.92,2463.65,1892.64,2478.21Zm-1.41-1.42c-1.28-16.94-2.43-33.32-3.53-49.41s-2.16-31.85-3.07-47.38-1.68-30.84-2.25-46-1-30.3-1.13-45.42l10.69,10.68c-15.72.12-31.44.08-47.16-.2s-31.44-.66-47.16-1-31.44-.68-47.16-1.42l-11.79-.54-11.8-.64-23.58-1.37,5.48-5.48c-.89,15.75-1.75,31.49-2.11,47.24s-.49,31.49-.14,47.24,1.23,31.49,2.3,47.24,2.22,31.49,2.82,47.24l-8.35-8.35c15.23-.65,30.31-.74,45.5-.39s30.4.81,45.85,1.55,31.09,1.67,47.12,2.76S1874.16,2475.36,1891.23,2476.79Z"/><path d="M1819.93,2356.2v-12.5h-75v-25h100v50h-25Zm0,87.5h-75v-50h25v25h75v25h-25Zm-25-50h-25v-25h50v25h-25Z"/><rect class="cls-6" x="1818.29" y="1846.54" width="188.64" height="188.96"/><path class="cls-5" d="M2007.64,2036.21c-14.37,1.43-29.46,2.62-44.85,3.72s-31.2,2-47.2,2.76-32.2,1.29-48.47,1.55-32.61.26-48.83-.39l-8.65-.35.31-8c.6-15.75,1.8-31.49,2.82-47.24s2-31.49,2.3-47.24.25-31.49-.14-47.24-1.22-31.49-2.11-47.24l-.29-5.14,5.76-.33,23.58-1.37,11.8-.65,11.79-.53c15.72-.75,31.44-1,47.16-1.43s31.44-.78,47.16-1,31.44-.32,47.16-.21l10.78.08-.1,10.6c-.16,16.38-.54,32.77-1.13,49.06s-1.35,32.48-2.25,48.45-1.92,31.71-3.07,47.09S2008.92,2021.65,2007.64,2036.21Zm-1.41-1.42c-1.28-16.94-2.43-33.32-3.53-49.41s-2.16-31.85-3.07-47.38-1.68-30.84-2.25-46-1-30.3-1.13-45.42l10.69,10.68c-15.72.12-31.44.08-47.16-.2s-31.44-.66-47.16-1-31.44-.68-47.16-1.42l-11.79-.54-11.8-.64-23.58-1.37,5.48-5.48c-.89,15.75-1.75,31.49-2.11,47.24s-.49,31.49-.14,47.24,1.23,31.49,2.3,47.24,2.22,31.49,2.82,47.24l-8.35-8.35c15.23-.65,30.31-.74,45.5-.39s30.4.81,45.85,1.55,31.09,1.67,47.12,2.76S1989.16,2033.36,2006.23,2034.79Z"/><path d="M1903.93,2001.7v-125h25v125h-25Z"/><rect class="cls-7" x="1819.79" y="2063.04" width="188.64" height="188.96"/><path class="cls-5" d="M2009.14,2252.71c-14.37,1.43-29.46,2.62-44.85,3.72s-31.2,2-47.2,2.76-32.2,1.29-48.47,1.55-32.61.26-48.83-.39l-8.65-.35.31-8c.6-15.75,1.8-31.49,2.82-47.24s2-31.49,2.3-47.24.25-31.49-.14-47.24-1.22-31.49-2.11-47.24l-.29-5.14,5.76-.33,23.58-1.37,11.8-.65L1867,2055c15.72-.75,31.44-1,47.16-1.43s31.44-.78,47.16-1,31.44-.32,47.16-.21l10.78.08-.1,10.6c-.16,16.38-.54,32.77-1.13,49.06s-1.35,32.48-2.25,48.45-1.92,31.71-3.07,47.09S2010.42,2238.15,2009.14,2252.71Zm-1.41-1.42c-1.28-16.94-2.43-33.32-3.53-49.41s-2.16-31.85-3.07-47.38-1.68-30.84-2.25-46-1-30.3-1.13-45.42l10.69,10.68c-15.72.12-31.44.08-47.16-.2s-31.44-.66-47.16-1-31.44-.68-47.16-1.42l-11.79-.54-11.8-.64-23.58-1.37,5.48-5.48c-.89,15.75-1.75,31.49-2.11,47.24s-.49,31.49-.14,47.24,1.23,31.49,2.3,47.24,2.22,31.49,2.82,47.24l-8.35-8.35c15.23-.65,30.31-.74,45.5-.39s30.4.81,45.85,1.55,31.09,1.67,47.12,2.76S1990.66,2249.86,2007.73,2251.29Z"/><path d="M1936.43,2218.2h-25v-50h-25v50h-25v-125h100v75h-25v25h25v25h-25Zm0-75v-25h-50v25h50Z"/><rect class="cls-5" x="-0.5" y="2604" width="2048" height="128"/><rect class="cls-5" x="-3.5" width="2048" height="128"/><path class="cls-8" d="M1565.5,419.63c-2.54,6.48-3.77,7.34-11.18,7.45-3.26.05-6.52-.11-9.78-.11l-150.4.13c-4.35,0-8.7,0-13-.15-20-.79-39.84,1.19-59.74,2.29-9.07.5-18.41,1.31-27.26-.2-25.92-4.43-51.92-1.28-77.86-1.92s-51.89,0-77.84,0q-108.63,0-217.25-.22a22.09,22.09,0,0,0-18.09,8.26Q821.91,530,740.62,624.84q-47.46,55.36-95,110.64c-6.24,7.24-8.42,15.62-8.37,24.85.07,15.62.25,31.24.25,46.85q0,338.52,0,677c0,.27,0,.54,0,.81-.78,10.25,1.38,12.8-10.47,15H479.42a13.22,13.22,0,0,0-2.26-.66c-5.83-.7-7.25-2.11-7.64-7.93-.18-2.7-.28-5.42-.28-8.13q0-521.15,0-1042.29c0-2.57-.18-5.15-.33-7.72-.2-3.51-2-5.55-5.58-5.8s-7-.48-10.56-.48q-57.89,0-115.76.16c-5.86,0-10.38-1.6-12.48-7.52V347.88c1.39-4.43,4.61-5.77,9-5.76,18.07.05,36.13-.08,54.2-.08,23.37,0,46.73.1,70.1.12,8.77,0,11.69-3,11.7-11.81,0-3-.24-6-.26-9q-.14-25.26-.21-50.53c0-5.38,1.41-9.92,7.14-11.87H630.27c4.82,1.88,7.27,5.38,7.26,10.58,0,20.1.05,40.21-.21,60.31-.12,9.13,2.4,12.26,11.42,12.26,13.18,0,26.35-.12,39.53-.11,42.38,0,84.76,0,127.15.19,7.49,0,13.24-2.35,18-8.33,7.26-9.14,15-17.87,22.64-26.73,4.41-5.15,7.77-5.63,12-1.48,8.41,8.3,17,16.46,24.89,25.23a32.14,32.14,0,0,0,25.45,11.29q81.72-.21,163.42-.17,236,0,471.94.13c9.12,0,9.17,0,11.77,8.15Zm-813.23,8.73c-3-.5-5.37-1.2-7.7-1.21q-48.09-.18-96.18-.18c-9,0-10.92,1.89-10.92,11V554.56c0,1-.37,2.26.11,2.77a4.33,4.33,0,0,0,3,1.26c.66,0,1.26-1.31,1.88-2l80.3-93.76Zm-201-2.89c22.23.06,40.57-17.91,40.63-39.78.06-21.26-18.87-39.94-40.36-39.84-21.68.09-39.43,18.14-39.4,40.06S529.45,425.41,551.31,425.47Z"/><path d="M311.54,1727.17v-100h-50v-25h125v25h-50v100h-25Z"/><path d="M486.54,1727.17v-50h-50v50h-25v-125h25v50h50v-50h25v125h-25Z"/><path d="M611.54,1727.17h-75v-125h100v25h-75v25h75v25h-75v25h75v25h-25Z"/><path d="M799,1727.17H724v-125h25v100h75v25H799Z"/><path d="M924,1752.17H849v-25H949v25H924Z"/><path d="M1049,1752.17H974v-25h100v25h-25Z"/><path d="M1149,1727.17v-100h-50v-25h125v25h-50v100h-25Z"/><path d="M1411.54,1727.17h-100v-125h25v100h25v-100h25v100h25v-100h25v125h-25Z"/><path d="M1536.54,1752.17h-75v-25h100v25h-25Z"/><path d="M1661.54,1727.17h-25v-50h-25v50h-25v-125h100v75h-25v25h25v25h-25Zm0-75v-25h-50v25h50Z"/><path d="M1786.54,1752.17h-75v-25h100v25h-25Z"/><rect class="cls-9" x="25.98" y="27.17" width="96" height="20" rx="10"/><rect class="cls-9" x="25.98" y="56.17" width="96" height="20" rx="10"/><rect class="cls-9" x="25.98" y="87.17" width="96" height="20" rx="10"/><g class="cls-10"><path class="cls-9" d="M531.89,2663.23q0-16.53,0-33.07a10.28,10.28,0,0,1,.23-2.48,4.63,4.63,0,0,1,4.46-3.49q4.7,0,9.4,0a4.61,4.61,0,0,1,4.57,4.17,17.13,17.13,0,0,1,.12,1.89v66.14c0,.23,0,.47,0,.7.07.88-.35,1.15-1.19,1.14-5.46,0-10.92,0-16.38,0-1.14,0-1.21-.58-1.21-1.44q0-16.78,0-33.57"/><path class="cls-9" d="M499.65,2672.22q0-12.13,0-24.27c0-3.45,1.91-5.35,5.39-5.36h8.09c3.21,0,5.2,2,5.21,5.15v49.14c0,1.3,0,1.34-1.36,1.34q-8,0-16,0c-1.32,0-1.35,0-1.35-1.33v-24.67"/><path class="cls-9" d="M541.33,2707.32h50.36a4.62,4.62,0,0,1,4.85,3.36,4.68,4.68,0,0,1-4.32,6h-.7q-50.25,0-100.51,0a4.74,4.74,0,0,1-4.77-2.79,4.6,4.6,0,0,1,4.14-6.54c6.16-.05,12.32,0,18.48,0h32.47"/><path class="cls-9" d="M582.9,2681.45c0,5.16,0,10.33,0,15.49,0,1-.34,1.31-1.33,1.3-5.36,0-10.72,0-16.08,0-1.24,0-1.3-.06-1.3-1.3v-30.77a4.8,4.8,0,0,1,5-5.12c3-.07,5.93-.07,8.9,0a4.79,4.79,0,0,1,4.83,5c0,5.13,0,10.26,0,15.39"/></g><path class="cls-9" d="M1491.74,2717.17h-8.64s0-.07-.08-.08a4,4,0,0,1-3.23-3.16c-.59-2.12-1.21-4.24-1.79-6.37a1.73,1.73,0,0,0-1.07-1.22q-3.67-1.5-7.34-3.07a1.54,1.54,0,0,0-1.54.09c-1.93,1.12-3.86,2.22-5.8,3.32a3.86,3.86,0,0,1-5-.62c-1.68-1.64-3.35-3.31-5-5a3.85,3.85,0,0,1-.69-5.14c1-1.89,2.11-3.79,3.2-5.66a2,2,0,0,0,.11-2q-1.49-3.39-2.86-6.83a2.16,2.16,0,0,0-1.59-1.42q-3.2-.84-6.37-1.79a3.62,3.62,0,0,1-2.9-3.72c-.06-2.55-.07-5.11,0-7.66a3.71,3.71,0,0,1,3.06-3.85c2.12-.61,4.24-1.22,6.37-1.79a1.85,1.85,0,0,0,1.35-1.18c1-2.4,2-4.79,3-7.17a1.82,1.82,0,0,0-.12-1.78c-1.08-1.86-2.12-3.73-3.17-5.6-1.19-2.13-1-3.71.75-5.44l4.56-4.56c1.8-1.79,3.39-2,5.59-.76,1.86,1.07,3.73,2.13,5.58,3.21a1.52,1.52,0,0,0,1.5.09q3.66-1.56,7.33-3.08a1.73,1.73,0,0,0,1.1-1.26c.56-2.09,1.15-4.18,1.73-6.26a4.09,4.09,0,0,1,4.27-3.24h6.82a3.93,3.93,0,0,1,4.33,3.27c.58,2.05,1.17,4.09,1.72,6.14a1.94,1.94,0,0,0,1.22,1.4c2.38,1,4.75,2,7.11,3a1.78,1.78,0,0,0,1.77-.12c1.82-1.07,3.65-2.13,5.49-3.15,2.23-1.23,3.73-1,5.53.77q2.29,2.28,4.56,4.56a4,4,0,0,1,.73,5.5c-1,1.83-2.07,3.67-3.15,5.48a1.8,1.8,0,0,0-.1,1.78c1,2.29,2,4.58,2.88,6.89a2.31,2.31,0,0,0,1.72,1.51q3.24.84,6.43,1.83a3.85,3.85,0,0,1,2.8,3.13,1,1,0,0,0,.12.26v8.53c-.45,2.11-1.9,3.09-3.88,3.57s-3.78,1.07-5.68,1.57a1.78,1.78,0,0,0-1.29,1.15c-1,2.36-2,4.71-3,7.05a2,2,0,0,0,.13,2c1.08,1.85,2.13,3.72,3.17,5.6a3.9,3.9,0,0,1-.58,5.12q-2.52,2.64-5.17,5.15a3.84,3.84,0,0,1-4.91.56c-1.91-1.07-3.82-2.13-5.71-3.24a2,2,0,0,0-2-.11q-3.45,1.5-6.94,2.9a2,2,0,0,0-1.29,1.47q-.87,3.26-1.83,6.49a3.82,3.82,0,0,1-3.08,2.85A1,1,0,0,0,1491.74,2717.17Zm-4.18-62.38a15.66,15.66,0,1,0,15.64,15.64A15.78,15.78,0,0,0,1487.56,2654.79Z"/><path class="cls-9" d="M1960.16,108.54A42.77,42.77,0,1,1,2003,65.8,42.79,42.79,0,0,1,1960.16,108.54Zm-24-42.27c0,2.9,0,5.79,0,8.69,0,3.29,2,4.49,4.83,2.9q7.72-4.29,15.35-8.78c2.84-1.67,2.83-4,0-5.63q-7.54-4.44-15.19-8.71c-3-1.66-4.92-.51-5,2.85C1936.1,60.48,1936.13,63.38,1936.13,66.27Zm39.49-.16c0,2.78-.11,5.57.05,8.34a10,10,0,0,0,1.11,4.11,2.85,2.85,0,0,0,5.22,0,9.42,9.42,0,0,0,1.16-4.25c.13-5.4.08-10.8,0-16.2a10.06,10.06,0,0,0-.61-3.25,3.34,3.34,0,0,0-3.12-2.6,3.26,3.26,0,0,0-3.16,2.54,11.63,11.63,0,0,0-.64,3.41C1975.56,60.87,1975.62,63.49,1975.62,66.11Zm-15.67.14c0,2.68-.1,5.35,0,8a8.89,8.89,0,0,0,1,4,4,4,0,0,0,2.8,1.85,4.15,4.15,0,0,0,2.79-1.91,7.16,7.16,0,0,0,.94-3.64c.09-5.51.13-11,0-16.53a9.31,9.31,0,0,0-1.34-4.36,2.73,2.73,0,0,0-4.82.05,10.29,10.29,0,0,0-1.31,4.37C1959.81,60.79,1960,63.53,1960,66.25Z"/></g></svg>