<svg xmlns="http://www.w3.org/2000/svg" xmlns:xlink="http://www.w3.org/1999/xlink" viewBox="0 0 2048 2732"><defs><style>.cls-1{fill:none;}.cls-2{fill:#858ae3;stroke:#000;}.cls-2,.cls-7{stroke-miterlimit:10;}.cls-3{fill:#4e148c;}.cls-4,.cls-7{fill:#ed217c;}.cls-5{fill:#2c0735;}.cls-6{fill:#613dc1;}.cls-7{stroke:#2c0735;stroke-width:8px;}.cls-8{fill:url(#radial-gradient);}.cls-9{fill:url(#radial-gradient-2);}.cls-10{fill:#fff;}.cls-11{clip-path:url(#clip-path);}</style><radialGradient id="radial-gradient" cx="1628.73" cy="1833.74" r="14.05" gradientTransform="translate(0 733.5) scale(1 0.6)" gradientUnits="userSpaceOnUse"><stop offset="0" stop-color="#ed217c"/><stop offset="0.68" stop-color="#2c0735"/></radialGradient><radialGradient id="radial-gradient-2" cx="1505.76" cy="1833.74" r="14.06" xlink:href="#radial-gradient"/><clipPath id="clip-path"><rect class="cls-1" x="496.83" y="2621" width="110.92" height="92.49"/></clipPath></defs><g id="background"><rect class="cls-2" x="-0.5" y="128.5" width="2052" height="2475"/></g><g id="Layer_2" data-name="Layer 2"><path class="cls-3" d="M1050,319c13.31,5.74,21.94,14.94,21.13,30.26-.56,10.61-5.94,18.63-15.38,23.7-5.69,3.05-11.5,5.88-19.19,9.8,18.09,1,30.74,7.87,33.39,24.92,3.51,22.5-13.53,30.49-29.9,39.32,2,.17,4.05.24,6.05.54A28.81,28.81,0,0,1,1070,481.63c-2.38,11.42-5.82,13.58-17.26,12.15-30.14-3.77-60.24-3.6-90.21,1.9-1.62.29-3.26.46-5.58.78,3.81-16.22,18.91-18.4,30.75-26.36-16.87-.5-28.5-7.46-31.55-23.24-4.66-24.08,14-31.66,32.95-40.3-6.5-.92-11-.86-14.95-2.23-11.78-4-18.76-12.55-19.69-25-1-12.73,4.68-22.4,16.16-28.21,21.36-10.82,42.8-21.45,64.21-32.16Z"/><path class="cls-3" d="M1012.74,867.22c-44.54,1.06-88.56-3-131.36-15.64-53.55-15.86-80.9-50.1-83.61-105.63-1.26-25.77-2.61-52.1,1.15-77.42,6.59-44.39,33.29-77.35,69.07-103.21,89.25-64.5,227.85-57.9,308,14.95,35.56,32.33,55.2,72.19,53.55,121-.7,20.79-1,41.75-3.9,62.29-6,42.44-31.11,70.31-71.11,84.49-41.12,14.58-84,18.82-127.35,19.14C1022.33,867.25,1017.54,867.22,1012.74,867.22Zm94-57.8v0c12.12,0,24.24.35,36.34-.1,11.77-.44,18.11-12.2,11.52-21.65-2.74-3.92-1.71-6.6-1.14-10.54,1.47-10.09,3.93-20.87,1.88-30.49-6.17-28.86-36.06-44.93-63.93-36s-42.09,38.8-31.77,66.55c1,2.64.3,6,.06,9-.42,5.27-3.14,11.6-1.09,15.46s8.63,7,13.51,7.5C1083.54,810.15,1095.16,809.42,1106.71,809.42Zm-188,0c11.83,0,23.67.25,35.5-.07,12.83-.35,18.67-11.72,12.29-22.6-1.37-2.33-1.18-5.84-1-8.77.61-10.49,3.94-21.45,1.88-31.33-6-28.81-36.07-45-63.91-36s-42.11,38.8-31.82,66.52c1,2.65.34,6,.1,9-.42,5.26-3.17,11.58-1.13,15.44s8.61,7.08,13.47,7.54C895.57,810.15,907.19,809.42,918.74,809.41Z"/><path class="cls-3" d="M1149.25,881.27c2.58,24.57,6.37,47.93,7.09,71.39.61,20-8.8,36.25-26.58,46.93-26.16,15.71-54.48,23.69-85,25.09-36.42,1.68-72.94,3.36-108.23-7.52-15.43-4.75-30.34-12.11-44.32-20.28-15.73-9.18-23.53-25.15-23-42.72.7-24,4.37-47.94,6.87-73C967.84,901.64,1057.2,901.65,1149.25,881.27Zm-136.67,86.9c5.07,0,10.17.29,15.22-.07,8.11-.58,13.78-6.71,13.77-14.34a14,14,0,0,0-13.82-14.2c-9.86-.37-19.75-.34-29.61,0-8.25.27-14,6.19-14.17,13.86-.21,8,5.65,14.2,14.22,14.73C1003,968.42,1007.78,968.18,1012.58,968.17Z"/><path class="cls-3" d="M847.68,987.38c-10.32,3.26-19.23,6.9-28.49,8.83-18,3.74-33.77-4.08-42.47-20.4-9.73-18.24-10.83-37.23-2.6-56.17A195.54,195.54,0,0,1,816,858.71c3.46-3.44,6.1-5,10.58-1.27,4.09,3.36,8.8,6.5,13.77,8.13,9.81,3.22,10,8.92,8.18,17.91-3.62,17.88-5.93,36.07-8.07,54.21A94.22,94.22,0,0,0,847.68,987.38Z"/><path class="cls-3" d="M1178.38,987.41c13.79-37.38,4.61-72.71-2-108-1.26-6.68,0-9.4,5.88-12.13,7.6-3.54,14.65-8.26,22.57-12.84a168.6,168.6,0,0,1,36.46,45.65,173.2,173.2,0,0,1,13.79,32.39c4.2,14,1.24,27.91-5,41-8.81,18.37-25.41,26.8-45.24,22.37C1196.08,993.91,1187.72,990.45,1178.38,987.41Z"/><path class="cls-4" d="M1128.17,758.77a21.44,21.44,0,1,1-21.5-21.26A21.36,21.36,0,0,1,1128.17,758.77Z"/><path class="cls-4" d="M919,780.57a21.52,21.52,0,1,1,0-43,21.52,21.52,0,0,1,0,43Z"/><rect class="cls-5" width="2048" height="128"/><rect class="cls-5" y="2604" width="2048" height="128"/><rect class="cls-6" x="490.38" y="1380.08" width="1076.39" height="394.83"/><path class="cls-5" d="M1566.76,1774.91l-260.4,12.8-66.22,3.21-16.61.82c-5.54.27-11.07.57-16.67.77-11.16.42-22.59.42-34.07.29l-17.18-.13c-5.71,0-11.38,0-17.07.07l-34.1.23-68.22.42q-272.93,1.6-545.84,1.52h-20V1360.08H1533.13c11.21,0,22.42-.26,33.63-.43l20.14-.32.3,20.75c.12,8.53,0,17.06-.36,25.58l-1.24,25.5-2.59,50.73c-.87,16.84-1.85,33.59-2.78,50.26l-2.85,49.74-5.62,97.71Q1569,1727.83,1566.76,1774.91Zm0,0q-2.33-51.67-5-102.1l-2.76-50.16-2.85-49.55-5.63-97.41-2.6-48-1.24-23.85c-.37-7.93-.47-15.85-.35-23.77l20.43,20.43c-11.21-.17-22.42-.46-33.63-.43H490.38l20-20v394.83l-20-20q265.57,0,530.54,1.52l66.32.42,33.18.23c5.53,0,11.06.09,16.56.07l16.46-.12c11-.14,22-.14,33.21.28,5.62.2,11.3.5,17,.77l17,.82,68.32,3.21Z"/><path class="cls-7" d="M336.85,864.39,306.71,715.57,232.3,730.64l-7.54-37.21,186-37.68L418.32,693,343.91,708l30.15,148.82Z"/><path class="cls-7" d="M597.29,811.63l-15.07-74.41-74.41,15.07,15.07,74.41-37.21,7.54L448,648.21l37.21-7.53,15.07,74.41L574.68,700,559.61,625.6l37.2-7.53,37.69,186Z"/><path class="cls-7" d="M783.32,773.94,671.7,796.56,634,610.53l148.82-30.15,7.53,37.21L678.76,640.2l7.54,37.2,111.61-22.61L805.45,692,693.83,714.61l7.54,37.2L813,729.2l7.53,37.21Z"/><path class="cls-7" d="M601,1207.87l-105.65-25.49,42.47-176.08,35.22,8.5-34,140.86,105.65,25.48-8.49,35.22Z"/><path class="cls-7" d="M777.07,1250.34l8.49-35.22-70.43-17-8.49,35.22-35.22-8.5,42.47-176.08,140.87,34-42.47,176.08Zm17-70.43,17-70.44-70.43-17-17,70.43Z"/><path class="cls-7" d="M953.15,1292.81,847.5,1267.33l8.5-35.22,105.65,25.49,8.49-35.22L864.49,1196.9,890,1091.25l140.86,34-8.49,35.21L916.7,1135l-8.5,35.21,105.65,25.49-25.48,105.65Z"/><path class="cls-7" d="M1094,1326.79l34-140.86-70.43-17,8.5-35.22,176.08,42.47-8.5,35.22-70.43-17-34,140.86Z"/><path class="cls-7" d="M1348.75,1021.35l-125.59,86.13-107.65-157,31.4-21.54L1233,1054.55l31.4-21.53L1178.3,907.43l31.4-21.53,86.12,125.59,31.4-21.53L1241.1,864.37l31.39-21.53,107.66,157Z"/><path class="cls-7" d="M1505.73,913.7l-94.19,64.59-107.65-157,125.58-86.12,107.66,157Zm-21.53-31.4-64.59-94.19-62.79,43.07,64.59,94.19Z"/><path class="cls-7" d="M1662.71,806.05l-31.39,21.53-43.06-62.8-31.4,21.54,43.06,62.79-31.39,21.53-107.66-157,125.59-86.13,64.59,94.19-31.4,21.53,21.53,31.4,31.4-21.53,21.53,31.4Zm-64.59-94.19-21.53-31.4-62.79,43.06,21.53,31.4Z"/><path class="cls-7" d="M1819.7,698.39,1725.51,763,1617.85,606,1712,541.41l21.53,31.4-62.79,43.06,64.59,94.19,62.8-43.06-64.6-94.19,31.4-21.53,86.12,125.58Z"/><rect class="cls-6" x="490.59" y="1930.31" width="1076.39" height="394.83"/><path class="cls-5" d="M490.59,1930.31l260.4-12.8,66.22-3.21,16.62-.82c5.54-.27,11.07-.57,16.66-.77,11.17-.42,22.59-.42,34.07-.29l17.18.13c5.71,0,11.39,0,17.07-.07l34.1-.23,68.22-.42q272.92-1.61,545.85-1.52h20v434.83H524.23c-11.22,0-22.43.26-33.64.43l-20.14.32-.29-20.75q-.2-12.79.35-25.58l1.24-25.5,2.6-50.73c.86-16.84,1.85-33.59,2.78-50.26l2.84-49.74,5.62-97.71Q488.32,1977.4,490.59,1930.31Zm0,0q2.32,51.68,5,102.1l2.77,50.16,2.85,49.55,5.62,97.41,2.6,48,1.24,23.85c.37,7.93.47,15.85.35,23.77l-20.43-20.43c11.21.17,22.42.46,33.64.43H1567l-20,20V1930.31l20,20q-265.57,0-530.54-1.52l-66.33-.42-33.18-.23c-5.53,0-11.06-.09-16.56-.07l-16.46.12c-10.94.14-21.95.14-33.2-.28-5.62-.2-11.31-.5-17-.77l-17-.82-68.33-3.21Z"/><path d="M825.29,1647H748.75V1519.38h25.51v102.07h76.55V1647H825.29Z"/><path d="M952.88,1647H876.33V1519.38H978.39V1647H952.88Zm0-25.52V1544.9h-51v76.55h51Z"/><path d="M1080.46,1647h-76.55V1519.38H1106v25.52h-76.55v76.55h51v-25.52h-25.52v-25.51h51V1647h-25.51Z"/><path d="M1131.49,1647V1519.38H1157V1647h-25.52Z"/><path d="M1259.07,1647V1544.9h-51V1647h-25.52V1519.38h102.07V1647h-25.52Z"/><path d="M630.66,2194.53H605.14v-51H579.63v51H554.11V2067H656.18v76.55H630.66V2169h25.52v25.51H630.66Zm0-76.55v-25.51h-51V2118h51Z"/><path d="M758.24,2194.53H681.69V2067H783.76v25.52H707.21V2118h76.55v25.52H707.21V2169h76.55v25.51H758.24Z"/><path d="M885.82,2194.53H809.27V2067H911.34v25.52H834.79V2169h51V2143.5H860.31V2118h51v76.55H885.82Z"/><path d="M936.85,2194.53V2067h25.52v127.58H936.85Z"/><path d="M1064.44,2194.53H987.89V2169h76.55V2143.5H987.89V2067H1090v25.52H1013.4V2118H1090v76.55h-25.51Z"/><path d="M1166.5,2194.53V2092.47h-51V2067h127.58v25.52h-51v102.06H1166.5Z"/><path d="M1345.12,2194.53h-76.55V2067h102.06v25.52h-76.55V2118h76.55v25.52h-76.55V2169h76.55v25.51h-25.51Z"/><path d="M1472.7,2194.53h-25.52v-51h-25.51v51h-25.52V2067h102.06v76.55H1472.7V2169h25.51v25.51H1472.7Zm0-76.55v-25.51h-51V2118h51Z"/><path class="cls-7" d="M356.5,857.89,326.36,709.06,252,724.14l-7.54-37.21,186-37.68,7.53,37.2-74.41,15.08,30.15,148.82Z"/><path class="cls-7" d="M616.94,805.13l-15.07-74.41-74.41,15.07,15.07,74.41-37.2,7.54-37.69-186,37.21-7.54,15.07,74.42,74.41-15.08L579.26,619.1l37.2-7.54,37.69,186Z"/><path class="cls-7" d="M803,767.44,691.35,790.05,653.67,604l148.82-30.15,7.54,37.2L698.41,633.7,706,670.9l111.61-22.61,7.54,37.21L713.48,708.11l7.54,37.2L832.64,722.7l7.53,37.21Z"/><path class="cls-7" d="M620.64,1201.36,515,1175.88,557.47,999.8l35.21,8.49-34,140.87,105.65,25.48-8.49,35.22Z"/><path class="cls-7" d="M796.72,1243.84l8.5-35.22-70.44-17-8.49,35.22-35.22-8.5,42.48-176.08,140.86,34-42.47,176.08Zm17-70.44,17-70.43-70.43-17-17,70.44Z"/><path class="cls-7" d="M972.8,1286.31l-105.65-25.48,8.5-35.22,105.65,25.48,8.49-35.21-105.65-25.49,25.49-105.64,140.86,34-8.49,35.22-105.65-25.48-8.5,35.21,105.65,25.49L1008,1294.8Z"/><path class="cls-7" d="M1113.67,1320.29l34-140.87-70.43-17,8.5-35.21,176.08,42.47-8.5,35.22-70.43-17-34,140.86Z"/><path class="cls-7" d="M1368.4,1014.85,1242.81,1101,1135.16,944l31.4-21.53,86.12,125.59,31.4-21.53L1198,900.93l31.4-21.53L1315.47,1005l31.4-21.53-86.12-125.59,31.39-21.53,107.66,157Z"/><path class="cls-7" d="M1525.38,907.2l-94.19,64.59-107.65-157,125.59-86.12,107.65,157Zm-21.53-31.4-64.59-94.19-62.79,43.06,64.59,94.19Z"/><path class="cls-7" d="M1682.37,799.54,1651,821.08l-43.06-62.8-31.4,21.53,43.06,62.8-31.39,21.53-107.66-157L1606.11,621l64.59,94.19-31.4,21.53,21.53,31.4,31.4-21.53L1713.76,778Zm-64.6-94.18L1596.24,674,1533.45,717l21.53,31.4Z"/><path class="cls-7" d="M1839.35,691.89l-94.19,64.59-107.66-157,94.19-64.59,21.53,31.39-62.79,43.07L1755,703.56l62.8-43.07-64.6-94.19,31.4-21.53,86.12,125.59Z"/><path class="cls-8" d="M1642.76,1833.56a14,14,0,1,1-14.07-13.91A14,14,0,0,1,1642.76,1833.56Z"/><path class="cls-9" d="M1505.89,1847.82a14.08,14.08,0,1,1,13.9-14.07A14,14,0,0,1,1505.89,1847.82Z"/><rect class="cls-10" x="37" y="24" width="96" height="20" rx="10"/><rect class="cls-10" x="37" y="53" width="96" height="20" rx="10"/><rect class="cls-10" x="37" y="84" width="96" height="20" rx="10"/><g class="cls-11"><path class="cls-10" d="M542.91,2660.05V2627a10.36,10.36,0,0,1,.22-2.49,4.62,4.62,0,0,1,4.47-3.48q4.7,0,9.39,0a4.62,4.62,0,0,1,4.58,4.17,17.11,17.11,0,0,1,.11,1.89v66.14c0,.23,0,.47,0,.7.07.87-.35,1.14-1.19,1.14-5.46,0-10.92,0-16.38,0-1.14,0-1.21-.59-1.21-1.45q0-16.78,0-33.57"/><path class="cls-10" d="M510.67,2669.05v-24.27c0-3.46,1.92-5.36,5.39-5.36,2.7,0,5.4,0,8.09,0,3.21,0,5.21,2,5.21,5.15v49.14c0,1.3,0,1.34-1.35,1.34H512c-1.33,0-1.36,0-1.36-1.33v-24.67"/><path class="cls-10" d="M552.36,2704.15h50.35a4.62,4.62,0,0,1,4.85,3.36,4.68,4.68,0,0,1-4.32,6H502a4.74,4.74,0,0,1-4.77-2.78,4.61,4.61,0,0,1,4.14-6.55c6.16,0,12.32,0,18.48,0h32.48"/><path class="cls-10" d="M593.93,2678.28c0,5.16,0,10.32,0,15.49,0,1-.35,1.3-1.33,1.3-5.37,0-10.73,0-16.09,0-1.24,0-1.3-.06-1.3-1.3q0-15.39,0-30.78a4.78,4.78,0,0,1,5-5.11c3-.07,5.93-.07,8.9,0a4.79,4.79,0,0,1,4.83,5q0,7.7,0,15.39"/></g><path class="cls-10" d="M1502.77,2714h-8.65s0-.08-.07-.08a4,4,0,0,1-3.24-3.16c-.59-2.12-1.21-4.24-1.79-6.37a1.71,1.71,0,0,0-1.07-1.22c-2.45-1-4.9-2-7.33-3.07a1.58,1.58,0,0,0-1.55.08c-1.92,1.13-3.86,2.23-5.8,3.33a3.87,3.87,0,0,1-5-.62q-2.52-2.47-5-5a3.85,3.85,0,0,1-.69-5.14c1-1.9,2.11-3.79,3.2-5.66a2,2,0,0,0,.11-2c-1-2.27-1.94-4.54-2.86-6.84a2.16,2.16,0,0,0-1.59-1.41q-3.2-.85-6.37-1.8a3.61,3.61,0,0,1-2.9-3.71c-.06-2.56-.07-5.11,0-7.66a3.7,3.7,0,0,1,3.06-3.85c2.12-.61,4.24-1.22,6.37-1.8a1.84,1.84,0,0,0,1.35-1.17c1-2.4,2-4.79,3-7.17a1.82,1.82,0,0,0-.13-1.78c-1.07-1.86-2.12-3.73-3.17-5.61a4,4,0,0,1,.75-5.43l4.56-4.56c1.8-1.8,3.39-2,5.59-.76,1.86,1.06,3.73,2.12,5.58,3.21a1.57,1.57,0,0,0,1.5.09c2.44-1,4.88-2.08,7.34-3.08a1.72,1.72,0,0,0,1.09-1.26c.56-2.1,1.15-4.18,1.73-6.27A4.1,4.1,0,0,1,1495,2621h6.81a3.94,3.94,0,0,1,4.33,3.28c.58,2,1.17,4.08,1.73,6.14a1.91,1.91,0,0,0,1.21,1.39q3.57,1.46,7.11,3a1.8,1.8,0,0,0,1.78-.12q2.71-1.61,5.48-3.14c2.23-1.24,3.73-1,5.53.77q2.29,2.26,4.56,4.56a4,4,0,0,1,.73,5.5c-1,1.83-2.07,3.66-3.15,5.48a1.8,1.8,0,0,0-.1,1.77c1,2.29,2,4.58,2.88,6.9a2.31,2.31,0,0,0,1.73,1.51q3.22.84,6.42,1.82a3.87,3.87,0,0,1,2.81,3.14,1,1,0,0,0,.11.26v8.52c-.45,2.11-1.89,3.1-3.88,3.58s-3.78,1.06-5.68,1.57a1.77,1.77,0,0,0-1.29,1.14c-1,2.36-2,4.72-3,7a2,2,0,0,0,.13,2c1.08,1.86,2.13,3.73,3.17,5.6a3.9,3.9,0,0,1-.58,5.12q-2.52,2.64-5.17,5.15a3.83,3.83,0,0,1-4.91.56c-1.91-1.06-3.82-2.12-5.71-3.23a2,2,0,0,0-2-.12q-3.45,1.5-6.94,2.91a2,2,0,0,0-1.29,1.47q-.87,3.26-1.83,6.48a3.79,3.79,0,0,1-3.08,2.85A.78.78,0,0,0,1502.77,2714Zm-4.19-62.38a15.66,15.66,0,1,0,15.65,15.64A15.77,15.77,0,0,0,1498.58,2651.62Z"/></g><g id="Capa_4" data-name="Capa 4"><path class="cls-5" d="M1664.85,219q127.34,0,254.68,0c35.56.07,46.77,9,46.8,37.44q.26,206.63.09,413.24c0,24-13.13,37.84-35,38-22.1.18-35.24-13.29-35.28-37.5q-.26-173.94-.09-347.87c0-39.27-9-46.6-57.09-46.62q-215.61-.07-431.21.08c-22.3,0-40.9-3.06-45.76-23.63-4.67-19.79,12.06-33,42.35-33.11C1491.21,218.83,1578,219,1664.85,219Z"/><path class="cls-5" d="M84.83,2272.25V2071.47c0-1.55-.06-3.11,0-4.67.18-27.42,10.77-39.73,34.55-40.15,24.57-.43,35.91,12.51,36,41.27.06,25.68,0,51.36,0,77q0,134.25.07,268.49c.08,36.71,9.2,44,53.82,44.05q214.15.09,428.32.11c9.56,0,22.2-1.73,28,2.35,10.46,7.35,23.63,18.82,23,28-.64,9-15.52,19.22-27.11,25.13-7.73,3.94-20.65,1.51-31.24,1.52q-247.44.22-494.88.32c-40.62,0-50.36-8-50.41-41.88Q84.73,2372.65,84.83,2272.25Z"/><path class="cls-5" d="M1903.46,742.6c4.73,7.78,8.41,11.61,9.38,15.84,4.27,18.57,9.89,37.21,10.71,55.94.5,11.53-9.43,23.19-10,35-1.58,30.3-10.38,63.66,2,90.25,14.1,30.3,5.93,54.1-1.4,81.76-5.32,20.09-.95,41.85-1,62.86-.07,13.8-1.44,26.17,15.77,37.07,15,9.5,12.92,25.12-.51,37.52-4.35,4-13.57,7.59-13.5,11.29.69,38.47,2.68,76.93,4.71,115.38.27,5.11,5.73,11.19,3.68,15-21.54,40.54-13,83.69-7,123.83,3.46,23.09,5.53,41-.19,65-10.39,43.54-3.47,89.85-2.43,135,.13,5.43,8,11.14,13.33,16,15.11,14,14.93,27,.33,41.66-7,7-13,16.69-13.62,25.42-1.77,25.6-1.17,51.36-.26,77,.28,8.1,4.45,16.11,6.83,24.17,1.29,4.38,5.22,9.75,3.39,13-22.65,40.31-5.46,82.66-9.93,123.85-.6,5.55,9.51,11.47,10.26,17.58,1.35,11,3.19,23.94-2.84,32.61-3,4.29-26,4.6-34.67.1-14.75-7.62-13.55-20.23-3-32.67,6.42-7.56,11.68-17.33,12.17-26.3,1.55-28,1.11-56,.26-84-.24-8.09-4.63-16.07-6.84-24.14-1.41-5.11-3.64-10.37-3.23-15.44,3.15-38.2,7.43-76.35,9.71-114.58.31-5.18-7.69-11.31-13.2-16-16.78-14.17-16-28.23-.18-43.09,7.13-6.67,13.09-16.53,13.45-25.11,1.5-35,.57-70,.64-105.07,0-14.56,1.91-28.68-14.69-40.35-5.12-3.6-5.74-19.41-1-22.75,20.26-14.27,15.23-32.15,15.59-49.47.31-14.79,1.82-29.74-.24-44.34-7.67-54.55,3.94-109-.33-163.43-.79-10.06-7.39-21.07-15.17-29.26-14.21-15-13.57-27.19.93-41.69,7.45-7.46,13.31-17.86,14.21-27.29a337.61,337.61,0,0,0,0-65.3c-1.13-11.18-10.56-21.68-13-33-2.07-9.56-.94-20,1.41-29.64,2.42-9.86,11.1-19.09,11.69-28.81,1.67-27.17,1.12-54.47.24-81.7-.26-8.07-4.45-16.07-6.92-24.09-1.36-4.38-4.93-9-4-13C1890,793,1896.1,770.83,1903.46,742.6Z"/><path class="cls-5" d="M142.61,1986.09c-1.36-6.5-2.65-13-4.08-19.51-3.27-14.87-6.65-29.73-9.89-44.61-.65-3-2.42-6.62-1.06-9,22.43-38.72,14.72-80.73,7.83-119-5-28-8.85-51.41,1.34-79.29,8.37-22.92,2.91-49.46,1.07-74.27-.65-8.67-6.95-18.14-13.87-25.2-14.42-14.7-13.92-27.28.46-41.81,7-7,12.73-16.7,13.43-25.47,1.83-23.25,3.75-47-.06-69.93-8.32-50.1,8.77-100.14-.32-149.55-6.2-33.72-12.75-64.9-1-99.85,9.78-29,1.86-61.81,2-92.94.08-17.53,2.39-34.1-17.81-48.52-6.54-4.67.42-23.13,3.73-34.82,2.74-9.63,12.55-18.38,13.37-27.85,2-23.23,4.08-47,0-69.92-9.28-51.68,7.28-103,.3-154.33-1.45-10.61-10.42-20.52-12.14-31.16-1.65-10.19-2.73-23.88,4.14-30.41,5.22-5,29-5.09,34.28-.19,6.91,6.41,6.05,20.16,4.29,30.27-2,11.32-11.73,21.93-12.7,33.15-2.05,24-4.85,48.81.25,72.21,11,50.26-8.07,99.88-.45,149.63A51.38,51.38,0,0,0,170,1051.4c15.91,15.62,14.88,28.51-1.31,43.3-6.72,6.13-12.46,15.29-12.8,23.24-1.4,33.42-.68,66.9-.55,100.37.06,16.67-3.87,33.59,15.31,47.28,4.83,3.44,4.47,19.07-.6,22.75-17.16,12.48-14.68,27.56-14.69,42.83,0,24.12-3.45,48.67,1,72.25,4.38,23.17,5.13,44.87,0,68.11-4.68,21.11-.95,43.43-1,65.22,0,15.28-1.95,29.2,17.71,41,15.43,9.29,10.18,24.5-2.36,37.36-7.4,7.59-13.88,17.76-14.73,27.12-2.1,23.23-1.8,46.7-.2,70,.63,9.08,8.27,17.71,11,26.87s8.68,23,3.72,26.86c-18.2,14.16-15.1,30.73-15.13,47.44,0,26.45-7.76,55.06,2.16,78.85,14,33.52-13.46,61.57-2,92.7Z"/><path class="cls-5" d="M738.84,2461.35c7-1.29,14.06-2.78,21.17-3.81q30.38-4.38,60.82-8.42c3.72-.49,8.22-1.48,11.27-.33,49.84,18.68,103.77,11.46,153.06,6.07,30-3.27,52.6-7.41,83.79.72,33.2,8.64,72.59,2.43,109.22,1.44,7-.18,14.86-5.31,20.48-9.69,18-14,35.3-13.94,53.24-.39,4.73,3.57,9.89,10,14.58,9.88,48.39-1.63,96.73-4.32,145.08-6.8,3.76-.19,7.56-1.69,11.19-1.38,32.84,2.84,65.67,5.78,98.43,9.14,5.23.54,10.1,3.32,15.14,5.07-.35,2-.69,4.06-1,6.09-7.71.69-15.44,1.3-23.14,2.08-28.92,3-57.82,6-86.75,8.92-3.75.37-8.22.85-11.34-.38-46-18.07-94.69-4.75-141.93-7.91-6.23-.41-13.89,6.23-19.77,10.58-18.14,13.4-35.71,13.88-53.21-.4-2.68-2.19-4.68-7.2-6.89-7.16-47.6.83-95.82-1-142.44,5.11-16.84,2.19-29.77,10-46.14-.39-6.73-4.28-16.21-7.85-24.56-8-37.62-.84-75.28-.62-112.91-.1-8.17.11-16.34,2.83-24.4,4.66-5.39,1.22-11,4.88-15.81,4.2-28.5-4-56.8-8.92-85.17-13.54C740.15,2464.84,739.49,2463.09,738.84,2461.35Z"/><path class="cls-5" d="M1311,275.67c-15.62,0-31.35-1-46.82.28-14.74,1.18-29.16,4.82-43.8,7.05-5.5.84-12.11,2.41-16.7.82-50.13-17.37-102.58-4.21-153.71-7.75-5.29-.37-12,4-16.59,7.46-14.41,11-27.6,11.12-43.58,1.24-8.21-5.07-20-8.22-30.42-8.74-25-1.24-50.15-.5-75.24-.4-18.79.07-36.32-1.6-51,14.07-11.69,12.49-31.27,9.67-46.18-1.4C782.09,284.71,778,277,773.6,277c-46.83.23-93.64,1.66-140.46,2.7-10.45.23-21,.81-31.34.13-9.27-.61-18.33-3.69-27.58-4-19-.66-38-.2-59.5-5.76,4.24-2.66,8.13-7.12,12.76-7.7,28.82-3.61,57.74-7.38,86.79-8.81,10.33-.51,21.05,7.66,31.75,8,39.52,1.07,79.13,1,118.66.09,7-.16,14.73-5.55,20.49-9.92,18.17-13.83,35.6-13.71,53.14.24,2.7,2.15,4.63,7.23,6.79,7.18,48-1.08,96-2.43,144-4.4,12.22-.5,30.44-8.16,35.3-4.15,17.09,14.08,36.68,11.42,56.41,11.5,33.77.12,69.66,5.74,100.8-1.59,42.73-10.07,81.43,9.69,122.12,2.45,2.24-.4,5.53,3.06,8.33,4.73C1311.66,270.34,1311.31,273,1311,275.67Z"/><path class="cls-5" d="M99.87,1501.78c.57,7.15,1.59,14.3,1.63,21.45.19,34.25-.53,68.52.51,102.75.32,10.31,5.4,20.49,8,30.78,1.13,4.43,3.88,9.82,1.93,13.34-22.41,40.39-4.83,82.79-10.11,124-.44,3.44,1.08,8.47,4.06,10.54,20.59,14.34,21.4,27.84.92,43.09-4.48,3.34-4.9,11.31-5,17.18-.55,22.57-.06,45.16-.3,67.74-.15,13.87-.52,26,16.35,36.62,15.48,9.76,13.59,25.71-.71,37.21s-31.91,11.87-46.63.65c-15.78-12-17.34-28.45-.55-38.82,15.5-9.57,14.85-20.16,14.85-32.38,0-21.8,1.28-43.67-.54-65.38-.82-9.81-9.33-19.06-11.52-29a71.33,71.33,0,0,1-.37-29.88c2.26-10.62,11.14-20.6,11.88-31.1,1.8-25.62,1.27-51.39.21-77.06-.4-9.63-4.81-19.16-7.5-28.71-1-3.69-4.66-8.07-3.26-10.88,23.69-47.34,5.27-96.7,11.19-144.83.74-6,2.23-12,3.38-18.06Z"/><path class="cls-5" d="M1953,1232.59c-1.09-6.78-3.06-13.55-3.13-20.34-.32-35,.48-70-.53-105-.3-10.29-5.4-20.48-8-30.76-1.13-4.41-3.93-9.79-2-13.26,22.67-40.3,4.84-82.62,10.06-123.73.43-3.39-1.16-8.26-4.1-10.38-20.1-14.49-21-28.06-.54-43.24,4.44-3.29,4.62-11.3,4.78-17.17.55-20.21.34-40.44.19-60.65-.11-16.59,2.43-32.24-18-45.6-14.67-9.58-12.18-28.36,5.21-36,11.41-5,32.32-4.8,43.36.58,16.7,8.14,18.68,26.81,3.56,36.25-19.21,12-17.31,25.93-17.32,41.12,0,17.89-1.7,35.92.62,53.61,1.57,12,10.44,23.3,13,35.34,2,9.64.74,20.13-1.63,29.83-2.21,9-10.89,17.38-11.35,26.22-1.51,28.72-1,57.53-.25,86.29.19,7.28,4.16,14.51,6.53,21.74,1.44,4.38,6,9.73,4.32,12.91-24.27,44.88-5,91.89-11.1,137.57-1.06,8-1.33,16-2,24Z"/><path class="cls-5" d="M1202.35,218.89c16.4,0,33.13,1.58,49.12-.51a100.82,100.82,0,0,0,36.33-12.3c17.64-10.24,34.1-11.62,49.23.83,14.25,11.75,13.9,26.09-.1,37.66-15.09,12.47-31.71,10.72-49.29.6-10.5-6-23.85-11.34-36.38-12.11-28.78-1.79-57.85-.72-86.8-.58-17.83.08-35.66-2.32-50.16,11.44-4.4,4.17-24.22,4.65-28.62.72-18-16.06-40.21-11.84-61.68-12.15-22.18-.31-44.48-1.08-66.55.27-16.56,1-32.71,5.85-49.28,7.36-7.58.7-18.52-.56-22.79-4.53s-4.85-14.05-1.28-18.3,14.57-7.15,21.86-6.61c24.19,1.79,48.07,6.36,72.27,8,21.08,1.42,43.94,4.27,63.34-.54,39.12-9.7,75.82-12.15,114.78.16,13.39,4.23,30.56.68,46,.68Z"/><path class="cls-5" d="M699.2,2506.62c10.57-9.3,17.62-20.65,28-23.23s24.53,2.86,36.56,6c12.61,3.24,24.38,10.43,37,11.36a497.52,497.52,0,0,0,75,0c15.75-1.23,30.7-8.12,46.4-11.13,9.55-1.82,24.93-4.62,29-.88,17.66,16.44,39.94,12.13,61.3,12.45,26,.39,52,1,77.94-.24,13.71-.66,27-6.17,40.75-7.34,7.3-.63,17.47,1.63,22.12,5.72,3.79,3.33,4.3,13.29.82,16.74-4.39,4.35-14.5,7.38-21.8,7-36.71-2-73.24-6.56-110-7.88-24.86-.89-51.8-5.79-72.5,13-3.51,3.19-17.91,3.89-21.21,1.09-27.75-23.55-62.93-12.83-95-14.08-27.5-1.08-56.82-6.24-78.92,16.2-4.42,4.49-24.29,2.87-34-1C712.11,2527,707.76,2516.63,699.2,2506.62Z"/><ellipse class="cls-5" cx="1958.47" cy="1356.37" rx="5.8" ry="94.21"/><path class="cls-5" d="M98.79,1448.94c-19.56-22-17.76-127,0-139.06Z"/><path class="cls-5" d="M1587.08,2459.12c10.64-5.69,20.61-14.78,32.09-16.27,17.79-2.31,31.26,8.29,27.45,22.25-2.37,8.66-16.95,20.86-26.4,21.07-11,.24-22.43-10.86-33.68-17Z"/><path class="cls-5" d="M451,274.32c-11.48,6-23.23,16.93-34.36,16.54-9.31-.33-23.43-13-25.54-21.79-3.39-14.06,10.46-24.4,28.13-21.71,11.49,1.74,21.19,11.18,31.69,17.18C450.9,267.8,450.92,271.06,451,274.32Z"/></g></svg>