<svg xmlns="http://www.w3.org/2000/svg" xmlns:xlink="http://www.w3.org/1999/xlink" viewBox="0 0 2048 2732"><defs><style>.cls-1{fill:none;}.cls-2{fill:#858ae3;}.cls-2,.cls-4{stroke:#000;}.cls-2,.cls-4,.cls-7{stroke-miterlimit:10;}.cls-3{fill:#2c0735;}.cls-4,.cls-7{fill:#ed217c;}.cls-4{stroke-width:5px;}.cls-5{fill:url(#radial-gradient);}.cls-6{fill:url(#radial-gradient-2);}.cls-7{stroke:#2c0735;stroke-width:8px;}.cls-8{fill:#fff;}.cls-9{clip-path:url(#clip-path);}</style><radialGradient id="radial-gradient" cx="1187.29" cy="1333.94" r="39.22" gradientTransform="translate(0 533.58) scale(1 0.6)" gradientUnits="userSpaceOnUse"><stop offset="0" stop-color="#ed217c"/><stop offset="0.68" stop-color="#2c0735"/></radialGradient><radialGradient id="radial-gradient-2" cx="844.15" cy="1333.95" r="39.22" xlink:href="#radial-gradient"/><clipPath id="clip-path"><rect class="cls-1" x="510.83" y="2621" width="110.92" height="92.49"/></clipPath></defs><g id="background"><rect class="cls-2" x="-2.5" y="128.5" width="2052" height="2475"/></g><g id="Layer_2" data-name="Layer 2"><rect class="cls-3" x="-2" width="2048" height="128"/><rect class="cls-3" x="2" y="2604" width="2048" height="128"/><path class="cls-4" d="M204.5,2018.18v-111H149v-27.75H287.75v27.75h-55.5v111H204.5Z"/><path class="cls-4" d="M398.76,2018.18v-55.5h-55.5v55.5H315.51V1879.43h27.75v55.5h55.5v-55.5h27.75v138.75H398.76Z"/><path class="cls-4" d="M537.51,2018.18H454.26V1879.43h111v27.75H482v27.75h83.25v27.75H482v27.75h83.25v27.75H537.51Z"/><path class="cls-4" d="M745.65,2018.18H662.39V1879.43h27.75v111H773.4v27.75H745.65Z"/><path class="cls-4" d="M884.4,2018.18v-27.75H828.9v27.75H801.15V1879.43h111v138.75H884.4Zm0-55.5v-55.5H828.9v55.5h55.5Z"/><path class="cls-4" d="M1023.15,2018.18H939.9v-27.75h83.25v-27.75H939.9v-83.25h111v27.75H967.65v27.75h83.26v83.25h-27.76Z"/><path class="cls-4" d="M1134.16,2018.18v-111h-55.5v-27.75h138.75v27.75h-55.5v111h-27.75Z"/><path class="cls-4" d="M1425.54,2018.18h-111V1879.43h27.75v111H1370v-111h27.75v111h27.75v-111h27.75v138.75h-27.75Z"/><path class="cls-4" d="M1564.3,2018.18h-83.25V1879.43h111v138.75H1564.3Zm0-27.75v-83.25h-55.5v83.25h55.5Z"/><path class="cls-4" d="M1703.05,2018.18H1675.3v-55.5h-27.75v55.5H1619.8V1879.43h111v83.25h-27.75v27.75h27.75v27.75h-27.75Zm0-83.25v-27.75h-55.5v27.75h55.5Z"/><path class="cls-4" d="M1841.81,2018.18h-83.26V1879.43h83.26v27.75h-55.5v83.25h55.5v-83.25h27.75v111h-27.75Z"/><path class="cls-4" d="M218.42,2009.56v-111h-55.5V1870.8H301.67v27.75h-55.5v111H218.42Z"/><path class="cls-4" d="M412.68,2009.56v-55.5h-55.5v55.5H329.42V1870.8h27.76v55.5h55.5v-55.5h27.75v138.76H412.68Z"/><path class="cls-4" d="M551.43,2009.56H468.18V1870.8h111v27.75H495.93v27.75h83.25v27.76H495.93v27.75h83.25v27.75H551.43Z"/><path class="cls-4" d="M759.56,2009.56H676.31V1870.8h27.75v111h83.26v27.75H759.56Z"/><path class="cls-4" d="M898.32,2009.56v-27.75h-55.5v27.75H815.07V1870.8h111v138.76H898.32Zm0-55.5v-55.51h-55.5v55.51h55.5Z"/><path class="cls-4" d="M1037.07,2009.56H953.82v-27.75h83.25v-27.75H953.82V1870.8h111v27.75H981.57v27.75h83.25v83.26h-27.75Z"/><path class="cls-4" d="M1148.08,2009.56v-111h-55.5V1870.8h138.75v27.75h-55.5v111h-27.75Z"/><path class="cls-4" d="M1439.46,2009.56h-111V1870.8h27.75v111H1384v-111h27.75v111h27.75v-111h27.75v138.76h-27.75Z"/><path class="cls-4" d="M1578.22,2009.56H1495V1870.8h111v138.76h-27.75Zm0-27.75v-83.26h-55.5v83.26h55.5Z"/><path class="cls-4" d="M1717,2009.56h-27.75v-55.5h-27.75v55.5h-27.75V1870.8h111v83.26H1717v27.75h27.75v27.75H1717Zm0-83.26v-27.75h-55.5v27.75H1717Z"/><path class="cls-4" d="M1855.73,2009.56h-83.26V1870.8h83.26v27.75h-55.51v83.26h55.51v-83.26h27.75v111h-27.75Z"/><path class="cls-5" d="M1226.42,1333.45a39.14,39.14,0,1,1-39.25-38.81A39,39,0,0,1,1226.42,1333.45Z"/><path class="cls-6" d="M844.52,1373.24A39.09,39.09,0,0,1,805,1334.67c-.34-22.55,17.16-40.25,39.56-40a39.29,39.29,0,0,1-.05,78.58Z"/><path class="cls-7" d="M1083.77,530.53c24.29,10.47,40,27.27,38.57,55.25-1,19.36-10.85,34-28.09,43.26-10.39,5.57-21,10.75-35,17.9,33,1.83,56.11,14.37,61,45.5,6.4,41.08-24.71,55.67-54.59,71.79,3.68.32,7.39.44,11,1,29.48,4.43,49.56,33.21,43.52,62.24-4.35,20.85-10.63,24.8-31.51,22.19-55-6.88-110-6.57-164.71,3.46-3,.54-6,.84-10.2,1.43,7-29.62,34.54-33.6,56.15-48.12-30.8-.92-52-13.63-57.6-42.44-8.51-44,25.57-57.81,60.16-73.58-11.87-1.67-20-1.57-27.3-4.07-21.5-7.36-34.24-22.9-35.94-45.56-1.76-23.25,8.54-40.9,29.51-51.52,39-19.75,78.14-39.16,117.22-58.71Z"/><path class="cls-7" d="M1015.68,1531.45c-81.33,1.94-161.69-5.41-239.84-28.55-97.78-29-147.7-91.47-152.66-192.86-2.3-47-4.76-95.12,2.11-141.35,12-81,60.78-141.22,126.11-188.43,163-117.77,416-105.71,562.24,27.28,64.92,59,100.78,131.81,97.78,221-1.28,38-1.8,76.24-7.13,113.74-11,77.49-56.79,128.37-129.83,154.26-75.07,26.62-153.33,34.36-232.51,35C1033.19,1531.5,1024.43,1531.45,1015.68,1531.45Zm171.57-105.52v-.08c22.11,0,44.26.65,66.34-.18,21.49-.81,33.07-22.28,21-39.54-5-7.16-3.12-12-2.07-19.24,2.68-18.42,7.17-38.09,3.42-55.66-11.25-52.69-65.82-82-116.71-65.69-51.07,16.4-76.84,70.84-58,121.51,1.78,4.81.55,10.89.12,16.33-.77,9.62-5.75,21.18-2,28.24s15.75,12.85,24.66,13.68C1144.94,1427.26,1166.16,1425.93,1187.25,1425.93Zm-343.19,0c21.6,0,43.22.46,64.8-.13,23.43-.64,34.1-21.4,22.45-41.25-2.51-4.26-2.15-10.68-1.84-16,1.13-19.14,7.21-39.17,3.44-57.19-11-52.61-65.85-82.09-116.68-65.81-51,16.33-76.89,70.83-58.1,121.46,1.79,4.83.63,10.93.19,16.39-.77,9.6-5.8,21.14-2.07,28.19s15.71,12.92,24.6,13.76C801.75,1427.26,823,1425.93,844.06,1425.9Z"/><path class="cls-7" d="M1264.91,1557.11c4.71,44.85,11.63,87.51,12.95,130.34,1.12,36.44-16.07,66.18-48.53,85.68-47.77,28.69-99.46,43.26-155.12,45.82-66.5,3.06-133.18,6.12-197.61-13.74-28.16-8.68-55.39-22.12-80.92-37-28.72-16.77-42.95-45.93-42-78,1.29-43.84,8-87.52,12.56-133.26C933.7,1594.3,1096.84,1594.31,1264.91,1557.11Zm-249.53,158.65c9.27,0,18.57.54,27.79-.12,14.81-1.06,25.17-12.26,25.14-26.18s-10.36-25.36-25.23-25.92c-18-.69-36.06-.63-54.06,0-15.07.49-25.49,11.3-25.86,25.3-.39,14.56,10.3,25.94,26,26.9C997.84,1716.23,1006.62,1715.79,1015.38,1715.76Z"/><path class="cls-7" d="M714.31,1750.83c-18.84,6-35.1,12.61-52,16.13-32.85,6.83-61.66-7.45-77.55-37.25-17.75-33.31-19.77-68-4.74-102.55,18.21-41.89,44-78.9,76.41-111.25,6.31-6.28,11.13-9,19.32-2.31,7.46,6.13,16.06,11.86,25.13,14.84,17.92,5.89,18.27,16.28,15,32.7-6.62,32.65-10.83,65.85-14.73,99C697.56,1690.06,700.89,1719.57,714.31,1750.83Z"/><path class="cls-7" d="M1318.09,1750.89c25.19-68.24,8.43-132.76-3.7-197.13-2.3-12.19,0-17.16,10.73-22.14,13.88-6.46,26.75-15.08,41.21-23.45a308,308,0,0,1,66.57,83.35c10.17,18.79,19.06,38.72,25.19,59.14,7.66,25.55,2.25,51-9.2,74.82-16.08,33.53-46.39,48.94-82.59,40.83C1350.41,1762.76,1335.15,1756.45,1318.09,1750.89Z"/><rect class="cls-8" x="51" y="24" width="96" height="20" rx="10"/><rect class="cls-8" x="51" y="53" width="96" height="20" rx="10"/><rect class="cls-8" x="51" y="84" width="96" height="20" rx="10"/><g class="cls-9"><path class="cls-8" d="M556.91,2660.05V2627a10.36,10.36,0,0,1,.22-2.49,4.62,4.62,0,0,1,4.47-3.48q4.7,0,9.39,0a4.62,4.62,0,0,1,4.58,4.17,17.11,17.11,0,0,1,.11,1.89v66.14c0,.23,0,.47,0,.7.07.87-.35,1.14-1.19,1.14-5.46,0-10.92,0-16.38,0-1.14,0-1.21-.59-1.21-1.45q0-16.78,0-33.57"/><path class="cls-8" d="M524.67,2669.05v-24.27c0-3.46,1.92-5.36,5.39-5.36,2.7,0,5.4,0,8.09,0,3.21,0,5.21,2,5.21,5.15v49.14c0,1.3,0,1.34-1.35,1.34H526c-1.33,0-1.36,0-1.36-1.33v-24.67"/><path class="cls-8" d="M566.36,2704.15h50.35a4.62,4.62,0,0,1,4.85,3.36,4.68,4.68,0,0,1-4.32,6H516a4.74,4.74,0,0,1-4.77-2.78,4.61,4.61,0,0,1,4.14-6.55c6.16,0,12.32,0,18.48,0h32.48"/><path class="cls-8" d="M607.93,2678.28c0,5.16,0,10.32,0,15.49,0,1-.35,1.3-1.33,1.3-5.37,0-10.73,0-16.09,0-1.24,0-1.3-.06-1.3-1.3q0-15.39,0-30.78a4.78,4.78,0,0,1,5-5.11c3-.07,5.93-.07,8.9,0a4.79,4.79,0,0,1,4.83,5q0,7.7,0,15.39"/></g><path class="cls-8" d="M1516.77,2714h-8.65s0-.08-.07-.08a4,4,0,0,1-3.24-3.16c-.59-2.12-1.21-4.24-1.79-6.37a1.71,1.71,0,0,0-1.07-1.22c-2.45-1-4.9-2-7.33-3.07a1.58,1.58,0,0,0-1.55.08c-1.92,1.13-3.86,2.23-5.8,3.33a3.87,3.87,0,0,1-5-.62q-2.52-2.47-5-5a3.85,3.85,0,0,1-.69-5.14c1-1.9,2.11-3.79,3.2-5.66a2,2,0,0,0,.11-2c-1-2.27-1.94-4.54-2.86-6.84a2.16,2.16,0,0,0-1.59-1.41q-3.2-.85-6.37-1.8a3.61,3.61,0,0,1-2.9-3.71c-.06-2.56-.07-5.11,0-7.66a3.7,3.7,0,0,1,3.06-3.85c2.12-.61,4.24-1.22,6.37-1.8a1.84,1.84,0,0,0,1.35-1.17c1-2.4,2-4.79,3-7.17a1.82,1.82,0,0,0-.13-1.78c-1.07-1.86-2.12-3.73-3.17-5.61a4,4,0,0,1,.75-5.43l4.56-4.56c1.8-1.8,3.39-2,5.59-.76,1.86,1.06,3.73,2.12,5.58,3.21a1.57,1.57,0,0,0,1.5.09c2.44-1,4.88-2.08,7.34-3.08a1.72,1.72,0,0,0,1.09-1.26c.56-2.1,1.15-4.18,1.73-6.27A4.1,4.1,0,0,1,1509,2621h6.81a3.94,3.94,0,0,1,4.33,3.28c.58,2,1.17,4.08,1.73,6.14a1.91,1.91,0,0,0,1.21,1.39q3.57,1.46,7.11,3a1.8,1.8,0,0,0,1.78-.12q2.71-1.61,5.48-3.14c2.23-1.24,3.73-1,5.53.77q2.29,2.26,4.56,4.56a4,4,0,0,1,.73,5.5c-1,1.83-2.07,3.66-3.15,5.48a1.8,1.8,0,0,0-.1,1.77c1,2.29,2,4.58,2.88,6.9a2.31,2.31,0,0,0,1.73,1.51q3.22.84,6.42,1.82a3.87,3.87,0,0,1,2.81,3.14,1,1,0,0,0,.11.26v8.52c-.45,2.11-1.89,3.1-3.88,3.58s-3.78,1.06-5.68,1.57a1.77,1.77,0,0,0-1.29,1.14c-1,2.36-2,4.72-3,7a2,2,0,0,0,.13,2c1.08,1.86,2.13,3.73,3.17,5.6a3.9,3.9,0,0,1-.58,5.12q-2.52,2.64-5.17,5.15a3.83,3.83,0,0,1-4.91.56c-1.91-1.06-3.82-2.12-5.71-3.23a2,2,0,0,0-2-.12q-3.45,1.5-6.94,2.91a2,2,0,0,0-1.29,1.47q-.87,3.26-1.83,6.48a3.79,3.79,0,0,1-3.08,2.85A.78.78,0,0,0,1516.77,2714Zm-4.19-62.38a15.66,15.66,0,1,0,15.65,15.64A15.77,15.77,0,0,0,1512.58,2651.62Z"/></g></svg>