<svg xmlns="http://www.w3.org/2000/svg" viewBox="0 0 2048 2732"><defs><style>.cls-1{fill:#858ae3;stroke:#000;}.cls-1,.cls-4,.cls-5{stroke-miterlimit:10;}.cls-2{fill:#2c0735;}.cls-3{fill:#613dc1;}.cls-4,.cls-5,.cls-8{fill:none;}.cls-4,.cls-5{stroke:#2c0735;}.cls-4{stroke-width:20px;}.cls-5{stroke-width:10px;}.cls-6{fill:#ed217c;}.cls-7{fill:#2892d7;}.cls-9{fill:#fa8334;}.cls-10{fill:#4a1942;}.cls-11{font-size:180px;font-family:GoodbyeDespair, Goodbye Despair;}.cls-12{fill:#fff;}</style></defs><g id="background"><rect class="cls-1" y="127.5" width="2052" height="2475"/></g><g id="Layer_2" data-name="Layer 2"><rect class="cls-2" x="-0.5" y="2602" width="2048" height="128"/><rect class="cls-2" x="-0.5" width="2048" height="128"/><rect class="cls-3" x="186.5" y="493" width="1716" height="1993"/><rect class="cls-4" x="187.37" y="492.74" width="1716" height="1993"/><rect class="cls-5" x="187.37" y="492.74" width="1716" height="248"/><rect class="cls-5" x="187.37" y="742.03" width="1716" height="248"/><rect class="cls-5" x="187.37" y="991.31" width="1716" height="248"/><rect class="cls-5" x="187.37" y="1240.6" width="1716" height="248"/><rect class="cls-5" x="187.37" y="1489.88" width="1716" height="248"/><rect class="cls-5" x="187.37" y="1739.17" width="1716" height="248"/><rect class="cls-5" x="187.37" y="1988.45" width="1716" height="248"/><rect class="cls-5" x="187.37" y="2237.74" width="1716" height="248"/><polygon class="cls-6" points="337.93 634.25 337.93 651 354.66 651 354.66 667.73 371.38 667.73 371.38 684.47 287.8 684.47 287.8 667.84 304.38 667.84 304.38 651.11 321.22 651.11 321.22 634.25 321.17 634.3 337.98 634.3 337.93 634.25"/><path class="cls-6" d="M287.7,567.26V550.58h83.75v16.68l.05,0H287.65Z"/><polygon class="cls-6" points="254.17 600.73 237.5 600.73 237.5 567.26 254.17 567.26 254.13 567.21 254.13 600.78 254.17 600.73"/><path class="cls-6" d="M270.89,567.26H287.7l-.05,0v33.57l.05,0H270.89l.05,0V567.21Z"/><path class="cls-6" d="M388.26,600.73H371.45l.05,0V567.21l-.05,0h16.81l-.05,0v33.57Z"/><polygon class="cls-6" points="404.98 567.26 421.65 567.26 421.65 600.73 404.98 600.73 405.02 600.78 405.02 567.21 404.98 567.26"/><polygon class="cls-6" points="254.17 567.26 254.17 550.58 270.89 550.58 270.89 567.26 270.94 567.21 254.13 567.21 254.17 567.26"/><polygon class="cls-6" points="388.26 567.26 388.26 550.58 404.98 550.58 404.98 567.26 405.02 567.21 388.21 567.21 388.26 567.26"/><polygon class="cls-6" points="270.89 600.73 270.89 617.41 254.17 617.41 254.17 600.73 254.13 600.78 270.94 600.78 270.89 600.73"/><path class="cls-6" d="M304.46,617.49H287.69V600.73l0,0h16.76v16.76Z"/><polygon class="cls-6" points="371.45 600.73 371.45 617.49 354.69 617.49 354.74 617.54 354.74 600.78 371.5 600.78 371.45 600.73"/><path class="cls-6" d="M405,600.73v16.68H388.26V600.73l-.05,0H405Z"/><polygon class="cls-6" points="321.22 634.25 304.45 634.25 304.45 617.49 304.41 617.54 321.17 617.54 321.17 634.3 321.22 634.25"/><polygon class="cls-6" points="354.69 617.49 354.69 634.25 337.93 634.25 337.98 634.3 337.98 617.54 354.74 617.54 354.69 617.49"/><polygon class="cls-6" points="354.74 617.54 337.98 617.54 337.98 634.3 321.17 634.3 321.17 617.54 304.41 617.54 304.41 600.78 287.65 600.78 287.65 567.21 371.5 567.21 371.5 600.78 354.74 600.78 354.74 617.54"/><path class="cls-6" d="M270.94,600.78H254.13V567.21h16.81v33.57"/><rect class="cls-6" x="388.21" y="567.21" width="16.8" height="33.56"/><polygon class="cls-7" points="337.93 882.25 337.93 899 354.66 899 354.66 915.73 371.38 915.73 371.38 932.47 287.8 932.47 287.8 915.84 304.38 915.84 304.38 899.11 321.22 899.11 321.22 882.25 321.17 882.3 337.98 882.3 337.93 882.25"/><path class="cls-7" d="M287.7,815.26V798.58h83.75v16.68l.05,0H287.65Z"/><polygon class="cls-7" points="254.17 848.73 237.5 848.73 237.5 815.26 254.17 815.26 254.13 815.21 254.13 848.78 254.17 848.73"/><path class="cls-7" d="M270.89,815.26H287.7l-.05,0v33.57l.05,0H270.89l.05,0V815.21Z"/><path class="cls-7" d="M388.26,848.73H371.45l.05,0V815.21l-.05,0h16.81l-.05,0v33.57Z"/><polygon class="cls-7" points="404.98 815.26 421.65 815.26 421.65 848.73 404.98 848.73 405.02 848.78 405.02 815.21 404.98 815.26"/><polygon class="cls-7" points="254.17 815.26 254.17 798.58 270.89 798.58 270.89 815.26 270.94 815.21 254.13 815.21 254.17 815.26"/><polygon class="cls-7" points="388.26 815.26 388.26 798.58 404.98 798.58 404.98 815.26 405.02 815.21 388.21 815.21 388.26 815.26"/><polygon class="cls-7" points="270.89 848.73 270.89 865.41 254.17 865.41 254.17 848.73 254.13 848.78 270.94 848.78 270.89 848.73"/><path class="cls-7" d="M304.46,865.49H287.69V848.73l0,0h16.76v16.76Z"/><polygon class="cls-7" points="371.45 848.73 371.45 865.49 354.69 865.49 354.74 865.54 354.74 848.78 371.5 848.78 371.45 848.73"/><path class="cls-7" d="M405,848.73v16.68H388.26V848.73l-.05,0H405Z"/><polygon class="cls-7" points="321.22 882.25 304.45 882.25 304.45 865.49 304.41 865.54 321.17 865.54 321.17 882.3 321.22 882.25"/><polygon class="cls-7" points="354.69 865.49 354.69 882.25 337.93 882.25 337.98 882.3 337.98 865.54 354.74 865.54 354.69 865.49"/><polygon class="cls-7" points="354.74 865.54 337.98 865.54 337.98 882.3 321.17 882.3 321.17 865.54 304.41 865.54 304.41 848.78 287.65 848.78 287.65 815.21 371.5 815.21 371.5 848.78 354.74 848.78 354.74 865.54"/><path class="cls-7" d="M270.94,848.78H254.13V815.21h16.81v33.57"/><rect class="cls-7" x="388.21" y="815.21" width="16.8" height="33.56"/><polygon class="cls-7" points="337.93 1132.26 337.93 1149 354.66 1149 354.66 1165.73 371.38 1165.73 371.38 1182.47 287.8 1182.47 287.8 1165.84 304.38 1165.84 304.38 1149.11 321.22 1149.11 321.22 1132.26 321.17 1132.3 337.98 1132.3 337.93 1132.26"/><path class="cls-7" d="M287.7,1065.26v-16.68h83.75v16.68l.05,0H287.65Z"/><polygon class="cls-7" points="254.17 1098.73 237.5 1098.73 237.5 1065.26 254.17 1065.26 254.13 1065.21 254.13 1098.78 254.17 1098.73"/><path class="cls-7" d="M270.89,1065.26H287.7l-.05,0v33.57l.05,0H270.89l.05,0v-33.57Z"/><path class="cls-7" d="M388.26,1098.73H371.45l.05,0v-33.57l-.05,0h16.81l-.05,0v33.57Z"/><polygon class="cls-7" points="404.98 1065.26 421.65 1065.26 421.65 1098.73 404.98 1098.73 405.02 1098.78 405.02 1065.21 404.98 1065.26"/><polygon class="cls-7" points="254.17 1065.26 254.17 1048.58 270.89 1048.58 270.89 1065.26 270.94 1065.21 254.13 1065.21 254.17 1065.26"/><polygon class="cls-7" points="388.26 1065.26 388.26 1048.58 404.98 1048.58 404.98 1065.26 405.02 1065.21 388.21 1065.21 388.26 1065.26"/><polygon class="cls-7" points="270.89 1098.73 270.89 1115.41 254.17 1115.41 254.17 1098.73 254.13 1098.78 270.94 1098.78 270.89 1098.73"/><path class="cls-7" d="M304.46,1115.49H287.69v-16.76l0,0h16.76v16.76Z"/><polygon class="cls-7" points="371.45 1098.73 371.45 1115.49 354.69 1115.49 354.74 1115.54 354.74 1098.78 371.5 1098.78 371.45 1098.73"/><path class="cls-7" d="M405,1098.73v16.68H388.26v-16.68l-.05,0H405Z"/><polygon class="cls-7" points="321.22 1132.26 304.45 1132.26 304.45 1115.49 304.41 1115.54 321.17 1115.54 321.17 1132.3 321.22 1132.26"/><polygon class="cls-7" points="354.69 1115.49 354.69 1132.26 337.93 1132.26 337.98 1132.3 337.98 1115.54 354.74 1115.54 354.69 1115.49"/><polygon class="cls-7" points="354.74 1115.54 337.98 1115.54 337.98 1132.3 321.17 1132.3 321.17 1115.54 304.41 1115.54 304.41 1098.78 287.65 1098.78 287.65 1065.21 371.5 1065.21 371.5 1098.78 354.74 1098.78 354.74 1115.54"/><path class="cls-7" d="M270.94,1098.78H254.13v-33.57h16.81v33.57"/><rect class="cls-7" x="388.21" y="1065.21" width="16.8" height="33.56"/><rect class="cls-8" x="21.37" y="68.74" width="2048" height="2732"/><path d="M353.2,1418.93v-47.5H282v-71.25H305.7v47.5h47.5v-47.5H377v118.75H353.2Z"/><path d="M353.2,1669.54H282v-23.75H353.2V1622H282v-71.25h95v23.75H305.7v23.75H377v71.25H353.2Z"/><path d="M353.2,1920.15H282V1801.4h95v23.75H305.7v23.75H377v71.25H353.2Zm0-23.75v-23.75H305.7v23.75h47.5Z"/><path d="M353.2,2176.76v-95H305.7v23.75H282V2058h95v118.75H353.2Z"/><path d="M353.2,2421.37H282V2302.62h95v118.75H353.2Zm0-71.25v-23.75H305.7v23.75h47.5Zm0,47.5v-23.75H305.7v23.75h47.5Z"/><path d="M732.72,661.72v-75h-37.5v75H676.47V568h75v93.75H732.72Z"/><path d="M826.47,661.72v-37.5H789v37.5H770.22V568h75v93.75H826.47Zm0-56.25V586.72H789v18.75h37.5Z"/><path d="M939,661.72v-75H920.22v75H901.47v-75H882.72v75H864V568h93.75v93.75H939Z"/><path d="M1032.72,661.72H976.47V568h75v18.75H995.22v18.75h56.25v18.75H995.22V643h56.25v18.75h-18.75Z"/><path d="M732.72,912.07v-75h-37.5v75H676.47V818.32h75v93.75H732.72Z"/><path d="M826.47,912.07v-37.5H789v37.5H770.22V818.32h75v93.75H826.47Zm0-56.25V837.07H789v18.75h37.5Z"/><path d="M939,912.07v-75H920.22v75H901.47v-75H882.72v75H864V818.32h93.75v93.75H939Z"/><path d="M1032.72,912.07H976.47V818.32h75v18.75H995.22v18.75h56.25v18.75H995.22v18.75h56.25v18.75h-18.75Z"/><path d="M732.72,1162.42v-75h-37.5v75H676.47v-93.75h75v93.75H732.72Z"/><path d="M826.47,1162.42v-37.5H789v37.5H770.22v-93.75h75v93.75H826.47Zm0-56.25v-18.75H789v18.75h37.5Z"/><path d="M939,1162.42v-75H920.22v75H901.47v-75H882.72v75H864v-93.75h93.75v93.75H939Z"/><path d="M1032.72,1162.42H976.47v-93.75h75v18.75H995.22v18.75h56.25v18.75H995.22v18.75h56.25v18.75h-18.75Z"/><path d="M732.72,1412.77v-75h-37.5v75H676.47V1319h75v93.75H732.72Z"/><path d="M826.47,1412.77v-37.5H789v37.5H770.22V1319h75v93.75H826.47Zm0-56.25v-18.75H789v18.75h37.5Z"/><path d="M939,1412.77v-75H920.22v75H901.47v-75H882.72v75H864V1319h93.75v93.75H939Z"/><path d="M1032.72,1412.77H976.47V1319h75v18.75H995.22v18.75h56.25v18.75H995.22V1394h56.25v18.75h-18.75Z"/><path d="M732.72,1663.12v-75h-37.5v75H676.47v-93.75h75v93.75H732.72Z"/><path d="M826.47,1663.12v-37.5H789v37.5H770.22v-93.75h75v93.75H826.47Zm0-56.25v-18.75H789v18.75h37.5Z"/><path d="M939,1663.12v-75H920.22v75H901.47v-75H882.72v75H864v-93.75h93.75v93.75H939Z"/><path d="M1032.72,1663.12H976.47v-93.75h75v18.75H995.22v18.75h56.25v18.75H995.22v18.75h56.25v18.75h-18.75Z"/><path d="M732.72,1913.47v-75h-37.5v75H676.47v-93.75h75v93.75H732.72Z"/><path d="M826.47,1913.47V1876H789v37.5H770.22v-93.75h75v93.75H826.47Zm0-56.25v-18.75H789v18.75h37.5Z"/><path d="M939,1913.47v-75H920.22v75H901.47v-75H882.72v75H864v-93.75h93.75v93.75H939Z"/><path d="M1032.72,1913.47H976.47v-93.75h75v18.75H995.22v18.75h56.25V1876H995.22v18.75h56.25v18.75h-18.75Z"/><path d="M732.72,2163.82v-75h-37.5v75H676.47v-93.75h75v93.75H732.72Z"/><path d="M826.47,2163.82v-37.5H789v37.5H770.22v-93.75h75v93.75H826.47Zm0-56.25v-18.75H789v18.75h37.5Z"/><path d="M939,2163.82v-75H920.22v75H901.47v-75H882.72v75H864v-93.75h93.75v93.75H939Z"/><path d="M1032.72,2163.82H976.47v-93.75h75v18.75H995.22v18.75h56.25v18.75H995.22v18.75h56.25v18.75h-18.75Z"/><path d="M732.72,2414.17v-75h-37.5v75H676.47v-93.75h75v93.75H732.72Z"/><path d="M826.47,2414.17v-37.5H789v37.5H770.22v-93.75h75v93.75H826.47Zm0-56.25v-18.75H789v18.75h37.5Z"/><path d="M939,2414.17v-75H920.22v75H901.47v-75H882.72v75H864v-93.75h93.75v93.75H939Z"/><path d="M1032.72,2414.17H976.47v-93.75h75v18.75H995.22v18.75h56.25v18.75H995.22v18.75h56.25v18.75h-18.75Z"/><path class="cls-9" d="M1167.42,673.22v-75h-18.75V579.47h37.5v93.75h-18.75Z"/><path class="cls-9" d="M1223.67,673.22V654.47h18.75v18.75h-18.75Z"/><path class="cls-9" d="M1317.42,673.22h-56.25V579.47h75v93.75h-18.75Zm0-18.75V598.22h-37.5v56.25h37.5Z"/><path class="cls-9" d="M1411.17,673.22h-56.25V654.47h56.25V635.72h-56.25V617h56.25V598.22h-56.25V579.47h75v93.75h-18.75Z"/><path class="cls-9" d="M1504.92,673.22h-56.25V654.47h56.25V635.72h-56.25V579.47h75v18.75h-56.25V617h56.25v56.25h-18.75Z"/><path class="cls-9" d="M1542.42,673.22V654.47h18.75v18.75h-18.75Z"/><path class="cls-9" d="M1636.17,673.22h-56.25V579.47h75v18.75h-56.25V617h56.25v56.25h-18.75Zm0-18.75V635.72h-37.5v18.75h37.5Z"/><path class="cls-9" d="M1729.92,673.22h-56.25V654.47h56.25V635.72h-56.25V579.47h75v18.75h-56.25V617h56.25v56.25h-18.75Z"/><path class="cls-9" d="M1823.67,673.22h-56.25V579.47h75v18.75h-56.25V617h56.25v56.25h-18.75Zm0-18.75V635.72h-37.5v18.75h37.5Z"/><path class="cls-9" d="M1317.42,915.12h-56.25V896.37h56.25V877.62h-56.25V821.37h75v93.75h-18.75Zm0-56.25V840.12h-37.5v18.75h37.5Z"/><path class="cls-9" d="M1411.17,915.12h-56.25V858.87h56.25V840.12h-56.25V821.37h75v56.25h-56.25v18.75h56.25v18.75h-18.75Z"/><path class="cls-9" d="M1504.92,915.12h-56.25V896.37h56.25V877.62h-56.25V858.87h56.25V840.12h-56.25V821.37h75v93.75h-18.75Z"/><path class="cls-9" d="M1542.42,915.12V896.37h18.75v18.75h-18.75Z"/><path class="cls-9" d="M1636.17,915.12h-56.25V896.37h56.25V877.62h-56.25V821.37h75v18.75h-56.25v18.75h56.25v56.25h-18.75Z"/><path class="cls-9" d="M1729.92,915.12h-56.25V821.37h75v18.75h-56.25v18.75h56.25v56.25h-18.75Zm0-18.75V877.62h-37.5v18.75h37.5Z"/><path class="cls-9" d="M1823.67,915.12h-56.25V821.37h75v93.75h-18.75Zm0-56.25V840.12h-37.5v18.75h37.5Zm0,37.5V877.62h-37.5v18.75h37.5Z"/><path class="cls-9" d="M1317.42,1171.17h-56.25v-93.75h75v93.75h-18.75Zm0-56.25v-18.75h-37.5v18.75h37.5Zm0,37.5v-18.75h-37.5v18.75h37.5Z"/><path class="cls-9" d="M1411.17,1171.17h-56.25v-18.75h56.25v-18.75h-56.25v-56.25h75v93.75h-18.75Zm0-56.25v-18.75h-37.5v18.75h37.5Z"/><path class="cls-9" d="M1504.92,1171.17h-56.25v-18.75h56.25v-18.75h-56.25v-56.25h75v93.75h-18.75Zm0-56.25v-18.75h-37.5v18.75h37.5Z"/><path class="cls-9" d="M1542.42,1171.17v-18.75h18.75v18.75h-18.75Z"/><path class="cls-9" d="M1636.17,1171.17v-75h-37.5v18.75h-18.75v-37.5h75v93.75h-18.75Z"/><path class="cls-9" d="M1729.92,1171.17h-56.25v-93.75h75v18.75h-56.25v18.75h56.25v56.25h-18.75Zm0-18.75v-18.75h-37.5v18.75h37.5Z"/><path class="cls-9" d="M1823.67,1171.17h-56.25v-18.75h56.25v-18.75h-56.25v-56.25h75v18.75h-56.25v18.75h56.25v56.25h-18.75Z"/><path class="cls-9" d="M1317.42,1415.07h-56.25v-93.75h75v18.75h-56.25v18.75h56.25v56.25h-18.75Zm0-18.75v-18.75h-37.5v18.75h37.5Z"/><path class="cls-9" d="M1411.17,1415.07h-56.25v-93.75h75v93.75h-18.75Zm0-18.75v-56.25h-37.5v56.25h37.5Z"/><path class="cls-9" d="M1504.92,1415.07h-56.25v-93.75h75v93.75h-18.75Zm0-56.25v-18.75h-37.5v18.75h37.5Zm0,37.5v-18.75h-37.5v18.75h37.5Z"/><path class="cls-9" d="M1542.42,1415.07v-18.75h18.75v18.75h-18.75Z"/><path class="cls-9" d="M1636.17,1415.07h-56.25v-93.75h75v93.75h-18.75Zm0-18.75v-56.25h-37.5v56.25h37.5Z"/><path class="cls-9" d="M1711.17,1415.07v-75h-18.75v-18.75h37.5v93.75h-18.75Z"/><path class="cls-9" d="M1804.92,1415.07v-75h-18.75v-18.75h37.5v93.75h-18.75Z"/><path class="cls-9" d="M1317.42,1665h-56.25v-18.75h56.25v-18.75h-56.25v-56.25h75V1590h-56.25v18.75h56.25V1665h-18.75Z"/><path class="cls-9" d="M1411.17,1665h-56.25v-18.75h56.25v-18.75h-56.25v-56.25h75V1665h-18.75Zm0-56.25V1590h-37.5v18.75h37.5Z"/><path class="cls-9" d="M1504.92,1665h-56.25v-56.25h56.25V1590h-56.25v-18.75h75v56.25h-56.25v18.75h56.25V1665h-18.75Z"/><path class="cls-9" d="M1542.42,1665v-18.75h18.75V1665h-18.75Z"/><path class="cls-9" d="M1617.42,1665v-75h-18.75v-18.75h37.5V1665h-18.75Z"/><path class="cls-9" d="M1711.17,1665v-75h-18.75v-18.75h37.5V1665h-18.75Z"/><path class="cls-9" d="M1823.67,1665h-56.25v-56.25h56.25V1590h-56.25v-18.75h75v56.25h-56.25v18.75h56.25V1665h-18.75Z"/><path class="cls-9" d="M1317.42,1918h-56.25v-18.75h56.25v-18.75h-56.25v-56.25h75V1843h-56.25v18.75h56.25V1918h-18.75Z"/><path class="cls-9" d="M1411.17,1918v-75h-37.5v18.75h-18.75v-37.5h75V1918h-18.75Z"/><path class="cls-9" d="M1504.92,1918h-56.25v-18.75h56.25v-18.75h-56.25v-56.25h75V1918h-18.75Zm0-56.25V1843h-37.5v18.75h37.5Z"/><path class="cls-9" d="M1542.42,1918v-18.75h18.75V1918h-18.75Z"/><path class="cls-9" d="M1636.17,1918h-56.25v-93.75h75V1843h-56.25v18.75h56.25V1918h-18.75Zm0-18.75v-18.75h-37.5v18.75h37.5Z"/><path class="cls-9" d="M1729.92,1918h-56.25v-93.75h75V1918h-18.75Zm0-56.25V1843h-37.5v18.75h37.5Zm0,37.5v-18.75h-37.5v18.75h37.5Z"/><path class="cls-9" d="M1823.67,1918v-37.5h-56.25v-56.25h18.75v37.5h37.5v-37.5h18.75V1918h-18.75Z"/><path class="cls-9" d="M1317.42,2163.92h-56.25v-18.75h56.25v-18.75h-56.25v-56.25h75v18.75h-56.25v18.75h56.25v56.25h-18.75Z"/><path class="cls-9" d="M1411.17,2163.92h-56.25v-93.75h75v18.75h-56.25v18.75h56.25v56.25h-18.75Zm0-18.75v-18.75h-37.5v18.75h37.5Z"/><path class="cls-9" d="M1504.92,2163.92h-56.25v-18.75h56.25v-18.75h-56.25v-18.75h56.25v-18.75h-56.25v-18.75h75v93.75h-18.75Z"/><path class="cls-9" d="M1542.42,2163.92v-18.75h18.75v18.75h-18.75Z"/><path class="cls-9" d="M1636.17,2163.92h-56.25v-93.75h75v93.75h-18.75Zm0-56.25v-18.75h-37.5v18.75h37.5Zm0,37.5v-18.75h-37.5v18.75h37.5Z"/><path class="cls-9" d="M1729.92,2163.92h-56.25v-18.75h56.25v-18.75h-56.25v-56.25h75v18.75h-56.25v18.75h56.25v56.25h-18.75Z"/><path class="cls-9" d="M1804.92,2163.92v-75h-18.75v-18.75h37.5v93.75h-18.75Z"/><path class="cls-9" d="M1317.42,2416h-56.25v-18.75h56.25v-18.75h-56.25v-56.25h75V2341h-56.25v18.75h56.25V2416h-18.75Z"/><path class="cls-9" d="M1411.17,2416v-37.5h-56.25v-56.25h18.75v37.5h37.5v-37.5h18.75V2416h-18.75Z"/><path class="cls-9" d="M1504.92,2416h-56.25v-18.75h56.25v-18.75h-56.25v-56.25h75V2416h-18.75Zm0-56.25V2341h-37.5v18.75h37.5Z"/><path class="cls-9" d="M1542.42,2416v-18.75h18.75V2416h-18.75Z"/><path class="cls-9" d="M1636.17,2416h-56.25v-18.75h56.25v-18.75h-56.25v-18.75h56.25V2341h-56.25v-18.75h75V2416h-18.75Z"/><path class="cls-9" d="M1729.92,2416v-37.5h-56.25v-56.25h18.75v37.5h37.5v-37.5h18.75V2416h-18.75Z"/><path class="cls-9" d="M1823.67,2416h-56.25v-93.75h75V2416h-18.75Zm0-56.25V2341h-37.5v18.75h37.5Zm0,37.5v-18.75h-37.5v18.75h37.5Z"/><path class="cls-6" d="M557.78,615.73a4.67,4.67,0,1,1-4.68-4.63A4.64,4.64,0,0,1,557.78,615.73Z"/><path class="cls-6" d="M512.24,620.48a4.69,4.69,0,1,1,4.63-4.69A4.67,4.67,0,0,1,512.24,620.48Z"/><path class="cls-10" d="M532.65,639.34a92.31,92.31,0,0,1-28.6-3.4c-11.66-3.46-17.61-10.91-18.2-23-.28-5.61-.57-11.34.25-16.86,1.43-9.66,7.25-16.84,15-22.47,19.43-14,49.61-12.61,67.05,3.25,7.74,7,12,15.72,11.66,26.35a130.59,130.59,0,0,1-.85,13.57c-1.32,9.24-6.78,15.3-15.49,18.39-9,3.18-18.28,4.1-27.72,4.17Zm20.46-12.58h0c2.64,0,5.28.08,7.91,0a3,3,0,0,0,2.51-4.72c-.59-.85-.37-1.43-.24-2.29.32-2.2.85-4.54.4-6.64a10.73,10.73,0,0,0-13.91-7.83,11,11,0,0,0-6.92,14.49,4.86,4.86,0,0,1,0,1.94c-.09,1.15-.68,2.53-.24,3.37a4.15,4.15,0,0,0,3,1.63C548.07,626.92,550.6,626.76,553.11,626.76Zm-40.92,0c2.57,0,5.15.06,7.73,0,2.79-.08,4.06-2.55,2.67-4.92a3.66,3.66,0,0,1-.22-1.91c.14-2.28.86-4.67.41-6.82a10.74,10.74,0,0,0-13.91-7.85,11,11,0,0,0-6.93,14.49,4.73,4.73,0,0,1,0,1.95c-.09,1.15-.69,2.52-.24,3.36a4.12,4.12,0,0,0,2.93,1.64C507.14,626.92,509.67,626.76,512.19,626.75Z"/><path class="cls-10" d="M562.37,642.4c.57,5.35,1.39,10.44,1.55,15.55a11.1,11.1,0,0,1-5.79,10.21,38.76,38.76,0,0,1-18.5,5.47c-7.93.36-15.88.73-23.56-1.64a46.74,46.74,0,0,1-9.65-4.42,10.08,10.08,0,0,1-5-9.3c.15-5.23.95-10.44,1.5-15.89A134.08,134.08,0,0,0,562.37,642.4Zm-29.75,18.92c1.1,0,2.21.07,3.31,0a3.12,3.12,0,0,0,3-3.13,3,3,0,0,0-3-3.09c-2.15-.08-4.3-.07-6.45,0a3,3,0,0,0-3.08,3,3.11,3.11,0,0,0,3.1,3.21C530.53,661.38,531.57,661.32,532.62,661.32Z"/><path class="cls-10" d="M496.71,665.5c-2.24.71-4.18,1.51-6.2,1.93a8.2,8.2,0,0,1-9.25-4.45,13.51,13.51,0,0,1-.56-12.22,42.58,42.58,0,0,1,9.11-13.27c.75-.75,1.33-1.08,2.3-.28a9.62,9.62,0,0,0,3,1.77c2.14.7,2.18,1.94,1.78,3.9-.78,3.9-1.29,7.85-1.75,11.81A20.48,20.48,0,0,0,496.71,665.5Z"/><path class="cls-10" d="M568.72,665.51c3-8.14,1-15.83-.45-23.51-.27-1.45,0-2,1.29-2.64,1.65-.77,3.18-1.8,4.91-2.79a36.64,36.64,0,0,1,7.94,9.94,37.73,37.73,0,0,1,3,7,12.16,12.16,0,0,1-1.1,8.92,8.32,8.32,0,0,1-9.85,4.87C572.57,666.93,570.75,666.17,568.72,665.51Z"/><path class="cls-7" d="M558.17,862.73a4.67,4.67,0,1,1-4.68-4.63A4.64,4.64,0,0,1,558.17,862.73Z"/><path class="cls-7" d="M512.63,867.48a4.69,4.69,0,1,1,0-9.38,4.69,4.69,0,0,1,0,9.38Z"/><path class="cls-10" d="M533,886.34a92.31,92.31,0,0,1-28.6-3.4c-11.66-3.46-17.61-10.91-18.21-23-.27-5.61-.56-11.34.26-16.86,1.43-9.66,7.24-16.84,15-22.47,19.44-14,49.61-12.61,67.05,3.25,7.74,7,12,15.72,11.66,26.35a125.3,125.3,0,0,1-.85,13.57c-1.31,9.24-6.77,15.3-15.48,18.39-8.95,3.18-18.28,4.1-27.73,4.17Zm20.46-12.58h0c2.64,0,5.28.08,7.91,0a3,3,0,0,0,2.51-4.72c-.6-.85-.37-1.43-.25-2.29.32-2.2.86-4.54.41-6.64a10.74,10.74,0,0,0-13.92-7.83,11,11,0,0,0-6.92,14.49,4.68,4.68,0,0,1,0,1.94c-.09,1.15-.69,2.53-.24,3.37a4.13,4.13,0,0,0,2.94,1.63C548.46,873.92,551,873.76,553.5,873.76Zm-40.93,0c2.58,0,5.16.06,7.73,0,2.8-.08,4.07-2.55,2.68-4.92a3.56,3.56,0,0,1-.22-1.91c.13-2.28.86-4.67.41-6.82a10.74,10.74,0,0,0-13.91-7.85,11,11,0,0,0-6.93,14.49,4.91,4.91,0,0,1,0,1.95c-.09,1.15-.69,2.52-.25,3.36a4.14,4.14,0,0,0,2.94,1.64C507.53,873.92,510.06,873.76,512.57,873.75Z"/><path class="cls-10" d="M562.76,889.4c.56,5.35,1.39,10.44,1.55,15.55a11.1,11.1,0,0,1-5.79,10.21,38.79,38.79,0,0,1-18.5,5.47c-7.93.36-15.88.73-23.57-1.64a46.9,46.9,0,0,1-9.64-4.42,10.06,10.06,0,0,1-5-9.3c.15-5.23.95-10.44,1.49-15.89A134.13,134.13,0,0,0,562.76,889.4ZM533,908.32c1.11,0,2.22.07,3.32,0a3.12,3.12,0,0,0,3-3.13,3.05,3.05,0,0,0-3-3.09c-2.15-.08-4.3-.07-6.45,0a3,3,0,0,0-3.08,3,3.11,3.11,0,0,0,3.09,3.21C530.91,908.38,532,908.32,533,908.32Z"/><path class="cls-10" d="M497.1,912.5c-2.25.71-4.18,1.51-6.2,1.93a8.2,8.2,0,0,1-9.25-4.45,13.45,13.45,0,0,1-.56-12.22,42.58,42.58,0,0,1,9.11-13.27c.75-.75,1.33-1.08,2.3-.28a9.62,9.62,0,0,0,3,1.77c2.14.7,2.18,1.94,1.78,3.9-.79,3.9-1.29,7.85-1.76,11.81A20.49,20.49,0,0,0,497.1,912.5Z"/><path class="cls-10" d="M569.1,912.51c3-8.14,1-15.83-.44-23.51-.27-1.45,0-2,1.28-2.64,1.66-.77,3.19-1.8,4.92-2.79a36.42,36.42,0,0,1,7.93,9.94,37.11,37.11,0,0,1,3,7,12.21,12.21,0,0,1-1.1,8.92,8.33,8.33,0,0,1-9.85,4.87C573,913.93,571.14,913.17,569.1,912.51Z"/><path class="cls-7" d="M558.17,1111.73a4.67,4.67,0,1,1-4.68-4.63A4.64,4.64,0,0,1,558.17,1111.73Z"/><path class="cls-7" d="M512.63,1116.48a4.69,4.69,0,1,1,0-9.38,4.69,4.69,0,0,1,0,9.38Z"/><path class="cls-10" d="M533,1135.34a92.31,92.31,0,0,1-28.6-3.4c-11.66-3.46-17.61-10.91-18.21-23-.27-5.61-.56-11.34.26-16.86,1.43-9.66,7.24-16.84,15-22.47,19.44-14,49.61-12.61,67.05,3.25,7.74,7,12,15.72,11.66,26.35a125.3,125.3,0,0,1-.85,13.57c-1.31,9.24-6.77,15.3-15.48,18.39-8.95,3.18-18.28,4.1-27.73,4.17Zm20.46-12.58h0c2.64,0,5.28.08,7.91,0a3,3,0,0,0,2.51-4.72c-.6-.85-.37-1.43-.25-2.29.32-2.2.86-4.54.41-6.64a10.74,10.74,0,0,0-13.92-7.83,11,11,0,0,0-6.92,14.49,4.68,4.68,0,0,1,0,1.94c-.09,1.15-.69,2.53-.24,3.37a4.13,4.13,0,0,0,2.94,1.63C548.46,1122.92,551,1122.76,553.5,1122.76Zm-40.93,0c2.58,0,5.16.06,7.73,0,2.8-.08,4.07-2.55,2.68-4.92a3.56,3.56,0,0,1-.22-1.91c.13-2.28.86-4.67.41-6.82a10.74,10.74,0,0,0-13.91-7.85,11,11,0,0,0-6.93,14.49,4.91,4.91,0,0,1,0,2c-.09,1.15-.69,2.52-.25,3.36a4.14,4.14,0,0,0,2.94,1.64C507.53,1122.92,510.06,1122.76,512.57,1122.75Z"/><path class="cls-10" d="M562.76,1138.4c.56,5.35,1.39,10.44,1.55,15.55a11.1,11.1,0,0,1-5.79,10.21,38.79,38.79,0,0,1-18.5,5.47c-7.93.36-15.88.73-23.57-1.64a46.9,46.9,0,0,1-9.64-4.42,10.06,10.06,0,0,1-5-9.3c.15-5.23.95-10.44,1.49-15.89A134.13,134.13,0,0,0,562.76,1138.4ZM533,1157.32c1.11,0,2.22.07,3.32,0a3.12,3.12,0,0,0,3-3.13,3.05,3.05,0,0,0-3-3.09c-2.15-.08-4.3-.07-6.45,0a3,3,0,0,0-3.08,3,3.11,3.11,0,0,0,3.09,3.21C530.91,1157.38,532,1157.32,533,1157.32Z"/><path class="cls-10" d="M497.1,1161.5c-2.25.71-4.18,1.51-6.2,1.93a8.2,8.2,0,0,1-9.25-4.45,13.45,13.45,0,0,1-.56-12.22,42.58,42.58,0,0,1,9.11-13.27c.75-.75,1.33-1.08,2.3-.28a9.62,9.62,0,0,0,3,1.77c2.14.7,2.18,1.94,1.78,3.9-.79,3.9-1.29,7.85-1.76,11.81A20.49,20.49,0,0,0,497.1,1161.5Z"/><path class="cls-10" d="M569.1,1161.51c3-8.14,1-15.83-.44-23.51-.27-1.45,0-2,1.28-2.64,1.66-.77,3.19-1.8,4.92-2.79a36.42,36.42,0,0,1,7.93,9.94,37.11,37.11,0,0,1,3,7,12.21,12.21,0,0,1-1.1,8.92,8.33,8.33,0,0,1-9.85,4.87C573,1162.93,571.14,1162.17,569.1,1161.51Z"/><path class="cls-10" d="M558.17,1356.73a4.67,4.67,0,1,1-4.68-4.63A4.64,4.64,0,0,1,558.17,1356.73Z"/><path class="cls-10" d="M512.63,1361.48a4.69,4.69,0,1,1,0-9.38,4.69,4.69,0,0,1,0,9.38Z"/><path class="cls-10" d="M533,1380.34a92.31,92.31,0,0,1-28.6-3.4c-11.66-3.46-17.61-10.91-18.21-23-.27-5.61-.56-11.34.26-16.86,1.43-9.66,7.24-16.84,15-22.47,19.44-14,49.61-12.61,67.05,3.25,7.74,7,12,15.72,11.66,26.35a125.3,125.3,0,0,1-.85,13.57c-1.31,9.24-6.77,15.3-15.48,18.39-8.95,3.18-18.28,4.1-27.73,4.17Zm20.46-12.58h0c2.64,0,5.28.08,7.91,0a3,3,0,0,0,2.51-4.72c-.6-.85-.37-1.43-.25-2.29.32-2.2.86-4.54.41-6.64a10.74,10.74,0,0,0-13.92-7.83,11,11,0,0,0-6.92,14.49,4.68,4.68,0,0,1,0,1.94c-.09,1.15-.69,2.53-.24,3.37a4.13,4.13,0,0,0,2.94,1.63C548.46,1367.92,551,1367.76,553.5,1367.76Zm-40.93,0c2.58,0,5.16.06,7.73,0,2.8-.08,4.07-2.55,2.68-4.92a3.56,3.56,0,0,1-.22-1.91c.13-2.28.86-4.67.41-6.82a10.74,10.74,0,0,0-13.91-7.85,11,11,0,0,0-6.93,14.49,4.91,4.91,0,0,1,0,2c-.09,1.15-.69,2.52-.25,3.36a4.14,4.14,0,0,0,2.94,1.64C507.53,1367.92,510.06,1367.76,512.57,1367.75Z"/><path class="cls-10" d="M562.76,1383.4c.56,5.35,1.39,10.44,1.55,15.55a11.1,11.1,0,0,1-5.79,10.21,38.79,38.79,0,0,1-18.5,5.47c-7.93.36-15.88.73-23.57-1.64a46.9,46.9,0,0,1-9.64-4.42,10.06,10.06,0,0,1-5-9.3c.15-5.23.95-10.44,1.49-15.89A134.13,134.13,0,0,0,562.76,1383.4ZM533,1402.32c1.11,0,2.22.07,3.32,0a3.12,3.12,0,0,0,3-3.13,3.05,3.05,0,0,0-3-3.09c-2.15-.08-4.3-.07-6.45,0a3,3,0,0,0-3.08,3,3.11,3.11,0,0,0,3.09,3.21C530.91,1402.38,532,1402.32,533,1402.32Z"/><path class="cls-10" d="M497.1,1406.5c-2.25.71-4.18,1.51-6.2,1.93a8.2,8.2,0,0,1-9.25-4.45,13.45,13.45,0,0,1-.56-12.22,42.58,42.58,0,0,1,9.11-13.27c.75-.75,1.33-1.08,2.3-.28a9.62,9.62,0,0,0,3,1.77c2.14.7,2.18,1.94,1.78,3.9-.79,3.9-1.29,7.85-1.76,11.81A20.49,20.49,0,0,0,497.1,1406.5Z"/><path class="cls-10" d="M569.1,1406.51c3-8.14,1-15.83-.44-23.51-.27-1.45,0-2,1.28-2.64,1.66-.77,3.19-1.8,4.92-2.79a36.42,36.42,0,0,1,7.93,9.94,37.11,37.11,0,0,1,3,7,12.21,12.21,0,0,1-1.1,8.92,8.33,8.33,0,0,1-9.85,4.87C573,1407.93,571.14,1407.17,569.1,1406.51Z"/><path class="cls-10" d="M558.17,1606.73a4.67,4.67,0,1,1-4.68-4.63A4.64,4.64,0,0,1,558.17,1606.73Z"/><path class="cls-10" d="M512.63,1611.48a4.69,4.69,0,1,1,0-9.38,4.69,4.69,0,0,1,0,9.38Z"/><path class="cls-10" d="M533,1630.34a92.31,92.31,0,0,1-28.6-3.4c-11.66-3.46-17.61-10.91-18.21-23-.27-5.61-.56-11.34.26-16.86,1.43-9.66,7.24-16.84,15-22.47,19.44-14,49.61-12.61,67.05,3.25,7.74,7,12,15.72,11.66,26.35a125.3,125.3,0,0,1-.85,13.57c-1.31,9.24-6.77,15.3-15.48,18.39-8.95,3.18-18.28,4.1-27.73,4.17Zm20.46-12.58h0c2.64,0,5.28.08,7.91,0a3,3,0,0,0,2.51-4.72c-.6-.85-.37-1.43-.25-2.29.32-2.2.86-4.54.41-6.64a10.74,10.74,0,0,0-13.92-7.83,11,11,0,0,0-6.92,14.49,4.68,4.68,0,0,1,0,1.94c-.09,1.15-.69,2.53-.24,3.37a4.13,4.13,0,0,0,2.94,1.63C548.46,1617.92,551,1617.76,553.5,1617.76Zm-40.93,0c2.58,0,5.16.06,7.73,0,2.8-.08,4.07-2.55,2.68-4.92a3.56,3.56,0,0,1-.22-1.91c.13-2.28.86-4.67.41-6.82a10.74,10.74,0,0,0-13.91-7.85,11,11,0,0,0-6.93,14.49,4.91,4.91,0,0,1,0,2c-.09,1.15-.69,2.52-.25,3.36a4.14,4.14,0,0,0,2.94,1.64C507.53,1617.92,510.06,1617.76,512.57,1617.75Z"/><path class="cls-10" d="M562.76,1633.4c.56,5.35,1.39,10.44,1.55,15.55a11.1,11.1,0,0,1-5.79,10.21,38.79,38.79,0,0,1-18.5,5.47c-7.93.36-15.88.73-23.57-1.64a46.9,46.9,0,0,1-9.64-4.42,10.06,10.06,0,0,1-5-9.3c.15-5.23.95-10.44,1.49-15.89A134.13,134.13,0,0,0,562.76,1633.4ZM533,1652.32c1.11,0,2.22.07,3.32,0a3.12,3.12,0,0,0,3-3.13,3.05,3.05,0,0,0-3-3.09c-2.15-.08-4.3-.07-6.45,0a3,3,0,0,0-3.08,3,3.11,3.11,0,0,0,3.09,3.21C530.91,1652.38,532,1652.32,533,1652.32Z"/><path class="cls-10" d="M497.1,1656.5c-2.25.71-4.18,1.51-6.2,1.93a8.2,8.2,0,0,1-9.25-4.45,13.45,13.45,0,0,1-.56-12.22,42.58,42.58,0,0,1,9.11-13.27c.75-.75,1.33-1.08,2.3-.28a9.62,9.62,0,0,0,3,1.77c2.14.7,2.18,1.94,1.78,3.9-.79,3.9-1.29,7.85-1.76,11.81A20.49,20.49,0,0,0,497.1,1656.5Z"/><path class="cls-10" d="M569.1,1656.51c3-8.14,1-15.83-.44-23.51-.27-1.45,0-2,1.28-2.64,1.66-.77,3.19-1.8,4.92-2.79a36.42,36.42,0,0,1,7.93,9.94,37.11,37.11,0,0,1,3,7,12.21,12.21,0,0,1-1.1,8.92,8.33,8.33,0,0,1-9.85,4.87C573,1657.93,571.14,1657.17,569.1,1656.51Z"/><path class="cls-10" d="M558.17,1859.73a4.67,4.67,0,1,1-4.68-4.63A4.64,4.64,0,0,1,558.17,1859.73Z"/><path class="cls-10" d="M512.63,1864.48a4.69,4.69,0,1,1,0-9.38,4.69,4.69,0,0,1,0,9.38Z"/><path class="cls-10" d="M533,1883.34a92.31,92.31,0,0,1-28.6-3.4c-11.66-3.46-17.61-10.91-18.21-23-.27-5.61-.56-11.34.26-16.86,1.43-9.66,7.24-16.84,15-22.47,19.44-14,49.61-12.61,67.05,3.25,7.74,7,12,15.72,11.66,26.35a125.3,125.3,0,0,1-.85,13.57c-1.31,9.24-6.77,15.3-15.48,18.39-8.95,3.18-18.28,4.1-27.73,4.17Zm20.46-12.58h0c2.64,0,5.28.08,7.91,0a3,3,0,0,0,2.51-4.72c-.6-.85-.37-1.43-.25-2.29.32-2.2.86-4.54.41-6.64a10.74,10.74,0,0,0-13.92-7.83,11,11,0,0,0-6.92,14.49,4.68,4.68,0,0,1,0,1.94c-.09,1.15-.69,2.53-.24,3.37a4.13,4.13,0,0,0,2.94,1.63C548.46,1870.92,551,1870.76,553.5,1870.76Zm-40.93,0c2.58,0,5.16.06,7.73,0,2.8-.08,4.07-2.55,2.68-4.92a3.56,3.56,0,0,1-.22-1.91c.13-2.28.86-4.67.41-6.82a10.74,10.74,0,0,0-13.91-7.85,11,11,0,0,0-6.93,14.49,4.91,4.91,0,0,1,0,2c-.09,1.15-.69,2.52-.25,3.36a4.14,4.14,0,0,0,2.94,1.64C507.53,1870.92,510.06,1870.76,512.57,1870.75Z"/><path class="cls-10" d="M562.76,1886.4c.56,5.35,1.39,10.44,1.55,15.55a11.1,11.1,0,0,1-5.79,10.21,38.79,38.79,0,0,1-18.5,5.47c-7.93.36-15.88.73-23.57-1.64a46.9,46.9,0,0,1-9.64-4.42,10.06,10.06,0,0,1-5-9.3c.15-5.23.95-10.44,1.49-15.89A134.13,134.13,0,0,0,562.76,1886.4ZM533,1905.32c1.11,0,2.22.07,3.32,0a3.12,3.12,0,0,0,3-3.13,3.05,3.05,0,0,0-3-3.09c-2.15-.08-4.3-.07-6.45,0a3,3,0,0,0-3.08,3,3.11,3.11,0,0,0,3.09,3.21C530.91,1905.38,532,1905.32,533,1905.32Z"/><path class="cls-10" d="M497.1,1909.5c-2.25.71-4.18,1.51-6.2,1.93a8.2,8.2,0,0,1-9.25-4.45,13.45,13.45,0,0,1-.56-12.22,42.58,42.58,0,0,1,9.11-13.27c.75-.75,1.33-1.08,2.3-.28a9.62,9.62,0,0,0,3,1.77c2.14.7,2.18,1.94,1.78,3.9-.79,3.9-1.29,7.85-1.76,11.81A20.49,20.49,0,0,0,497.1,1909.5Z"/><path class="cls-10" d="M569.1,1909.51c3-8.14,1-15.83-.44-23.51-.27-1.45,0-2,1.28-2.64,1.66-.77,3.19-1.8,4.92-2.79a36.42,36.42,0,0,1,7.93,9.94,37.11,37.11,0,0,1,3,7,12.21,12.21,0,0,1-1.1,8.92,8.33,8.33,0,0,1-9.85,4.87C573,1910.93,571.14,1910.17,569.1,1909.51Z"/><path class="cls-10" d="M557.78,2112.73a4.67,4.67,0,1,1-4.68-4.63A4.64,4.64,0,0,1,557.78,2112.73Z"/><path class="cls-10" d="M512.24,2117.48a4.69,4.69,0,1,1,4.63-4.69A4.67,4.67,0,0,1,512.24,2117.48Z"/><path class="cls-10" d="M532.65,2136.34a92.31,92.31,0,0,1-28.6-3.4c-11.66-3.46-17.61-10.91-18.2-23-.28-5.61-.57-11.34.25-16.86,1.43-9.66,7.25-16.84,15-22.47,19.43-14,49.61-12.61,67.05,3.25,7.74,7,12,15.72,11.66,26.35a130.59,130.59,0,0,1-.85,13.57c-1.32,9.24-6.78,15.3-15.49,18.39-9,3.18-18.28,4.1-27.72,4.17Zm20.46-12.58h0c2.64,0,5.28.08,7.91,0a3,3,0,0,0,2.51-4.72c-.59-.85-.37-1.43-.24-2.29.32-2.2.85-4.54.4-6.64a10.73,10.73,0,0,0-13.91-7.83,11,11,0,0,0-6.92,14.49,4.86,4.86,0,0,1,0,1.94c-.09,1.15-.68,2.53-.24,3.37a4.15,4.15,0,0,0,3,1.63C548.07,2123.92,550.6,2123.76,553.11,2123.76Zm-40.92,0c2.57,0,5.15.06,7.73,0,2.79-.08,4.06-2.55,2.67-4.92a3.66,3.66,0,0,1-.22-1.91c.14-2.28.86-4.67.41-6.82a10.74,10.74,0,0,0-13.91-7.85,11,11,0,0,0-6.93,14.49,4.73,4.73,0,0,1,0,1.95c-.09,1.15-.69,2.52-.24,3.36a4.12,4.12,0,0,0,2.93,1.64C507.14,2123.92,509.67,2123.76,512.19,2123.75Z"/><path class="cls-10" d="M562.37,2139.4c.57,5.35,1.39,10.44,1.55,15.55a11.1,11.1,0,0,1-5.79,10.21,38.76,38.76,0,0,1-18.5,5.47c-7.93.36-15.88.73-23.56-1.64a46.74,46.74,0,0,1-9.65-4.42,10.08,10.08,0,0,1-5-9.3c.15-5.23.95-10.44,1.5-15.89A134.08,134.08,0,0,0,562.37,2139.4Zm-29.75,18.92c1.1,0,2.21.07,3.31,0a3.12,3.12,0,0,0,3-3.13,3,3,0,0,0-3-3.09c-2.15-.08-4.3-.07-6.45,0a3,3,0,0,0-3.08,3,3.11,3.11,0,0,0,3.1,3.21C530.53,2158.38,531.57,2158.32,532.62,2158.32Z"/><path class="cls-10" d="M496.71,2162.5c-2.24.71-4.18,1.51-6.2,1.93a8.2,8.2,0,0,1-9.25-4.45,13.51,13.51,0,0,1-.56-12.22,42.58,42.58,0,0,1,9.11-13.27c.75-.75,1.33-1.08,2.3-.28a9.62,9.62,0,0,0,3,1.77c2.14.7,2.18,1.94,1.78,3.9-.78,3.9-1.29,7.85-1.75,11.81A20.48,20.48,0,0,0,496.71,2162.5Z"/><path class="cls-10" d="M568.72,2162.51c3-8.14,1-15.83-.45-23.51-.27-1.45,0-2,1.29-2.64,1.65-.77,3.18-1.8,4.91-2.79a36.64,36.64,0,0,1,7.94,9.94,37.73,37.73,0,0,1,3,7,12.16,12.16,0,0,1-1.1,8.92,8.32,8.32,0,0,1-9.85,4.87C572.57,2163.93,570.75,2163.17,568.72,2162.51Z"/><path class="cls-10" d="M558.17,2365.73a4.67,4.67,0,1,1-4.68-4.63A4.64,4.64,0,0,1,558.17,2365.73Z"/><path class="cls-10" d="M512.63,2370.48a4.69,4.69,0,1,1,0-9.38,4.69,4.69,0,0,1,0,9.38Z"/><path class="cls-10" d="M533,2389.34a92.31,92.31,0,0,1-28.6-3.4c-11.66-3.46-17.61-10.91-18.21-23-.27-5.61-.56-11.34.26-16.86,1.43-9.66,7.24-16.84,15-22.47,19.44-14,49.61-12.61,67.05,3.25,7.74,7,12,15.72,11.66,26.35a125.3,125.3,0,0,1-.85,13.57c-1.31,9.24-6.77,15.3-15.48,18.39-8.95,3.18-18.28,4.1-27.73,4.17Zm20.46-12.58h0c2.64,0,5.28.08,7.91,0a3,3,0,0,0,2.51-4.72c-.6-.85-.37-1.43-.25-2.29.32-2.2.86-4.54.41-6.64a10.74,10.74,0,0,0-13.92-7.83,11,11,0,0,0-6.92,14.49,4.68,4.68,0,0,1,0,1.94c-.09,1.15-.69,2.53-.24,3.37a4.13,4.13,0,0,0,2.94,1.63C548.46,2376.92,551,2376.76,553.5,2376.76Zm-40.93,0c2.58,0,5.16.06,7.73,0,2.8-.08,4.07-2.55,2.68-4.92a3.56,3.56,0,0,1-.22-1.91c.13-2.28.86-4.67.41-6.82a10.74,10.74,0,0,0-13.91-7.85,11,11,0,0,0-6.93,14.49,4.91,4.91,0,0,1,0,1.95c-.09,1.15-.69,2.52-.25,3.36a4.14,4.14,0,0,0,2.94,1.64C507.53,2376.92,510.06,2376.76,512.57,2376.75Z"/><path class="cls-10" d="M562.76,2392.4c.56,5.35,1.39,10.44,1.55,15.55a11.1,11.1,0,0,1-5.79,10.21,38.79,38.79,0,0,1-18.5,5.47c-7.93.36-15.88.73-23.57-1.64a46.9,46.9,0,0,1-9.64-4.42,10.06,10.06,0,0,1-5-9.3c.15-5.23.95-10.44,1.49-15.89A134.13,134.13,0,0,0,562.76,2392.4ZM533,2411.32c1.11,0,2.22.07,3.32,0a3.12,3.12,0,0,0,3-3.13,3.05,3.05,0,0,0-3-3.09c-2.15-.08-4.3-.07-6.45,0a3,3,0,0,0-3.08,3,3.11,3.11,0,0,0,3.09,3.21C530.91,2411.38,532,2411.32,533,2411.32Z"/><path class="cls-10" d="M497.1,2415.5c-2.25.71-4.18,1.51-6.2,1.93a8.2,8.2,0,0,1-9.25-4.45,13.45,13.45,0,0,1-.56-12.22,42.58,42.58,0,0,1,9.11-13.27c.75-.75,1.33-1.08,2.3-.28a9.62,9.62,0,0,0,3,1.77c2.14.7,2.18,1.94,1.78,3.9-.79,3.9-1.29,7.85-1.76,11.81A20.49,20.49,0,0,0,497.1,2415.5Z"/><path class="cls-10" d="M569.1,2415.51c3-8.14,1-15.83-.44-23.51-.27-1.45,0-2,1.28-2.64,1.66-.77,3.19-1.8,4.92-2.79a36.42,36.42,0,0,1,7.93,9.94,37.11,37.11,0,0,1,3,7,12.21,12.21,0,0,1-1.1,8.92,8.33,8.33,0,0,1-9.85,4.87C573,2416.93,571.14,2416.17,569.1,2415.51Z"/><rect class="cls-3" x="353.5" y="221" width="1365" height="270"/><path class="cls-2" d="M1717.09,222.41c-29.63,1.24-58.95,2.27-88.15,3.24l-43.71,1.42-43.5,1.32q-86.87,2.56-172.51,4.43c-114.35,2.56-227.47,4.24-340.12,4.84q-84.43.32-168.27-1.39-42-.79-84-2.06l-84.16-2.43q-42.13-1.26-84.44-2.31T523.5,227.8q-84.87-1.25-170-.63l6.17-6.17.22,33.75.36,33.75.47,33.75q.22,16.88.57,33.75.6,33.75,1.43,67.5l1.73,67.5L353.5,480.05q85.32-2.34,170.62-4.43,85.32-1.94,170.63-2.78c113.75-1.21,227.5-2.71,341.25-3.22s227.5.34,341.25,2q85.3,1.13,170.63,2.92c56.87,1.23,113.74,2.53,170.62,4.21L1706.21,491q1-32.67,2.25-65.59l1.33-33.07,1.44-33.33C1713.19,314.38,1715.27,268.91,1717.09,222.41Zm2.82-2.82,5.86,133.4,1.44,34.17,1.33,34.43q1.26,34.53,2.25,69.41l.33,11.92-12.62.37c-56.88,1.68-113.75,3-170.62,4.21s-113.76,2.17-170.63,2.92q-170.62,2.43-341.25,2c-113.75-.51-227.5-2-341.25-3.22q-85.31-.92-170.63-2.78T353.5,502l-11.22-.31.27-10.64,1.73-67.5q.78-33.75,1.43-67.5.35-16.87.57-33.75l.47-33.75.36-33.75.22-33.75,0-6.2,6.13,0q85.59.49,171.25-.63,42.87-.62,85.88-1.67t86.18-2.31l86.47-2.43q43.29-1.2,86.64-2.06,86.69-1.74,173-1.39c114.85.6,229.23,2.28,342.38,4.84q84.89,1.89,168.74,4.43l41.81,1.32,41.61,1.42C1665.11,217.32,1692.67,218.35,1719.91,219.59Z"/><text class="cls-11" transform="translate(434.8 411.91)">Score board</text><rect class="cls-12" x="52.98" y="27.17" width="96" height="20" rx="10"/><rect class="cls-12" x="52.98" y="56.17" width="96" height="20" rx="10"/><rect class="cls-12" x="52.98" y="87.17" width="96" height="20" rx="10"/><path class="cls-12" d="M1904.62,110c-.27-.3-.52-.61-.8-.89q-11.65-11.65-23.3-23.3c-1.09-1.09-2.19-2.16-3.27-3.25-.66-.67-.65-1,0-1.65q8.13-8.13,16.26-16.24c3.62-3.61,7.22-7.24,10.84-10.85a2.14,2.14,0,0,1,.62-.32,2.17,2.17,0,0,1,.23.66q0,9.48,0,19c0,1.2.2,1.41,1.4,1.41h35.67c4.16,0,8.31,0,12.47,0a21.17,21.17,0,1,0,0-42.33l-76.72,0a8,8,0,0,1-1.57-.32V17.62h80.59a3.53,3.53,0,0,0,.56.14,33,33,0,0,1,13.53,3.88c10.62,5.88,17.17,14.66,18.9,26.82.16,1.15.28,2.32.42,3.48v3a4.3,4.3,0,0,0-.13.7,32.44,32.44,0,0,1-3.7,13.59c-7,12.87-17.81,19.55-32.44,19.69-15.85.15-31.69,0-47.54,0-1.44,0-1.49,0-1.49,1.48q0,9.45,0,18.89a3.78,3.78,0,0,1-.14.65Z"/><path class="cls-12" d="M1055.27,2714h-8.65s0-.08-.07-.08a4,4,0,0,1-3.24-3.16c-.59-2.12-1.21-4.24-1.79-6.37a1.71,1.71,0,0,0-1.07-1.22c-2.45-1-4.9-2-7.33-3.07a1.58,1.58,0,0,0-1.55.08c-1.92,1.13-3.86,2.23-5.8,3.33a3.87,3.87,0,0,1-5-.62q-2.52-2.47-5-5a3.85,3.85,0,0,1-.69-5.14c1.05-1.9,2.11-3.79,3.2-5.66a2,2,0,0,0,.11-2c-1-2.27-1.94-4.54-2.86-6.84a2.16,2.16,0,0,0-1.59-1.41q-3.2-.85-6.37-1.8a3.61,3.61,0,0,1-2.9-3.71c-.06-2.56-.07-5.11,0-7.66a3.7,3.7,0,0,1,3.06-3.85c2.12-.61,4.24-1.22,6.37-1.8a1.84,1.84,0,0,0,1.35-1.17c1-2.4,2-4.79,3-7.17a1.82,1.82,0,0,0-.13-1.78c-1.07-1.86-2.12-3.73-3.17-5.61a4,4,0,0,1,.75-5.43l4.56-4.56c1.8-1.8,3.39-2,5.59-.76,1.86,1.06,3.73,2.12,5.58,3.21a1.57,1.57,0,0,0,1.5.09c2.44-1,4.88-2.08,7.34-3.08a1.72,1.72,0,0,0,1.09-1.26c.56-2.1,1.15-4.18,1.73-6.27a4.1,4.1,0,0,1,4.28-3.24h6.81a3.94,3.94,0,0,1,4.33,3.28c.58,2,1.17,4.08,1.73,6.14a1.91,1.91,0,0,0,1.21,1.39q3.57,1.46,7.11,3a1.8,1.8,0,0,0,1.78-.12q2.71-1.61,5.48-3.14c2.23-1.24,3.73-1,5.53.77q2.29,2.26,4.56,4.56a4,4,0,0,1,.73,5.5c-1,1.83-2.07,3.66-3.15,5.48a1.8,1.8,0,0,0-.1,1.77c1,2.29,2,4.58,2.88,6.9a2.31,2.31,0,0,0,1.73,1.51q3.22.84,6.42,1.82a3.87,3.87,0,0,1,2.81,3.14,1,1,0,0,0,.11.26v8.52c-.45,2.11-1.89,3.1-3.88,3.58s-3.78,1.06-5.68,1.57a1.77,1.77,0,0,0-1.29,1.14c-1,2.36-2,4.72-3,7a2,2,0,0,0,.13,2c1.08,1.86,2.13,3.73,3.17,5.6a3.9,3.9,0,0,1-.58,5.12q-2.52,2.64-5.17,5.15a3.83,3.83,0,0,1-4.91.56c-1.91-1.06-3.82-2.12-5.71-3.23a2,2,0,0,0-2-.12q-3.45,1.5-6.94,2.91a2,2,0,0,0-1.29,1.47q-.87,3.26-1.83,6.48a3.79,3.79,0,0,1-3.08,2.85A.78.78,0,0,0,1055.27,2714Zm-4.19-62.38a15.66,15.66,0,1,0,15.65,15.64A15.77,15.77,0,0,0,1051.08,2651.62Z"/></g></svg>