<svg xmlns="http://www.w3.org/2000/svg" xmlns:xlink="http://www.w3.org/1999/xlink" viewBox="0 0 538 538"><defs><style>.cls-1{fill:#858ae3;stroke:#000;}.cls-1,.cls-4{stroke-miterlimit:10;}.cls-2{fill:url(#radial-gradient);}.cls-3{fill:url(#radial-gradient-2);}.cls-4{fill:#ed217c;stroke:#2c0735;stroke-width:8px;}</style><radialGradient id="radial-gradient" cx="330.94" cy="317.06" r="14.05" gradientTransform="translate(0 126.82) scale(1 0.6)" gradientUnits="userSpaceOnUse"><stop offset="0" stop-color="#ed217c"/><stop offset="0.68" stop-color="#2c0735"/></radialGradient><radialGradient id="radial-gradient-2" cx="207.97" cy="317.06" r="14.06" xlink:href="#radial-gradient"/></defs><g id="background"><rect class="cls-1" x="0.5" y="-0.5" width="538" height="539"/></g><g id="Layer_2" data-name="Layer 2"><path class="cls-2" d="M345,316.88A14,14,0,1,1,330.9,303,14,14,0,0,1,345,316.88Z"/><path class="cls-3" d="M208.1,331.14A14.08,14.08,0,1,1,222,317.06,14,14,0,0,1,208.1,331.14Z"/><path class="cls-4" d="M293.84,29.12c8.71,3.76,14.36,9.78,13.83,19.81-.37,6.94-3.89,12.19-10.07,15.5-3.72,2-7.52,3.85-12.55,6.41,11.84.66,20.11,5.15,21.85,16.31,2.29,14.73-8.86,19.95-19.57,25.73,1.32.11,2.65.16,4,.35a18.85,18.85,0,0,1,15.59,22.31c-1.55,7.47-3.8,8.88-11.29,8a192.55,192.55,0,0,0-59,1.24c-1.06.19-2.13.3-3.65.51,2.49-10.61,12.37-12,20.12-17.24-11-.33-18.65-4.89-20.65-15.22-3-15.75,9.17-20.71,21.57-26.36-4.26-.6-7.18-.57-9.79-1.46-7.7-2.64-12.27-8.21-12.88-16.33-.63-8.33,3.06-14.66,10.58-18.47,14-7.07,28-14,42-21Z"/><path class="cls-4" d="M269.44,387.84c-29.14.7-57.94-1.94-85.95-10.23-35-10.38-52.94-32.78-54.71-69.12-.83-16.86-1.71-34.09.75-50.66,4.31-29,21.78-50.61,45.2-67.53,58.4-42.2,149.09-37.88,201.5,9.78,23.27,21.16,36.12,47.24,35,79.19-.46,13.6-.64,27.32-2.55,40.76-4,27.77-20.36,46-46.53,55.28-26.91,9.54-55,12.32-83.33,12.53C275.72,387.86,272.58,387.84,269.44,387.84ZM330.93,350v0c7.93,0,15.86.23,23.78-.07,7.7-.29,11.85-8,7.53-14.17-1.79-2.56-1.11-4.31-.74-6.9,1-6.6,2.57-13.65,1.23-19.94-4-18.89-23.59-29.4-41.83-23.55s-27.54,25.39-20.79,43.55c.64,1.73.2,3.9,0,5.85-.27,3.45-2.06,7.6-.71,10.12s5.65,4.61,8.84,4.91C315.77,350.5,323.37,350,330.93,350Zm-123,0c7.74,0,15.48.17,23.22,0,8.4-.23,12.22-7.67,8-14.79-.89-1.52-.76-3.82-.65-5.74.4-6.86,2.58-14,1.23-20.49-3.95-18.86-23.6-29.42-41.82-23.59s-27.55,25.39-20.82,43.53c.64,1.73.23,3.92.07,5.87-.28,3.45-2.08,7.58-.74,10.11s5.63,4.63,8.81,4.93C192.77,350.5,200.38,350,207.94,350Z"/><path class="cls-4" d="M358.76,397c1.69,16.07,4.17,31.36,4.64,46.71.41,13.06-5.76,23.72-17.39,30.71-17.12,10.28-35.64,15.5-55.59,16.42-23.83,1.09-47.73,2.19-70.82-4.93a140.57,140.57,0,0,1-29-13.26c-10.29-6-15.39-16.46-15.06-28C176,429,178.4,413.36,180,397,240.06,410.37,298.53,410.37,358.76,397ZM269.33,453.9c3.33,0,6.66.19,10,0a9.35,9.35,0,0,0,9-9.38,9.16,9.16,0,0,0-9.05-9.29c-6.45-.25-12.92-.22-19.37,0a9.18,9.18,0,0,0-9.27,9.07c-.14,5.22,3.69,9.3,9.3,9.64C263.05,454.06,266.2,453.91,269.33,453.9Z"/><path class="cls-4" d="M161.43,466.47c-6.75,2.13-12.57,4.51-18.63,5.77-11.78,2.45-22.1-2.67-27.8-13.35-6.36-11.93-7.08-24.35-1.7-36.75a128,128,0,0,1,27.39-39.87c2.26-2.25,4-3.23,6.92-.82a29.3,29.3,0,0,0,9,5.31c6.42,2.11,6.55,5.84,5.36,11.72-2.38,11.7-3.88,23.6-5.28,35.47A61.67,61.67,0,0,0,161.43,466.47Z"/><path class="cls-4" d="M377.82,466.49c9-24.46,3-47.58-1.32-70.65-.83-4.37,0-6.15,3.84-7.94,5-2.31,9.59-5.4,14.77-8.4A110.17,110.17,0,0,1,419,409.37a114.52,114.52,0,0,1,9,21.19c2.74,9.16.8,18.27-3.3,26.82-5.76,12-16.63,17.54-29.6,14.63C389.41,470.74,383.94,468.48,377.82,466.49Z"/></g></svg>