<svg xmlns="http://www.w3.org/2000/svg" xmlns:xlink="http://www.w3.org/1999/xlink" viewBox="0 0 2048 2732"><defs><style>.cls-1{fill:none;}.cls-2{fill:#858ae3;stroke:#000;stroke-miterlimit:10;}.cls-3{fill:#613dc1;}.cls-4{fill:#2c0735;}.cls-5{fill:#cbff4d;}.cls-6{fill:#4e148c;}.cls-7{fill:#fff;}.cls-8{clip-path:url(#clip-path);}</style><clipPath id="clip-path"><rect class="cls-1" x="511.81" y="2624.17" width="110.92" height="92.49"/></clipPath></defs><g id="background"><rect class="cls-2" y="129.5" width="2052" height="2475"/></g><g id="Layer_2" data-name="Layer 2"><rect class="cls-3" x="382.02" y="1320.06" width="1268.98" height="690.04"/><path class="cls-4" d="M1652.41,2011.51c-51.06,1.89-102.79,3.43-154.77,4.9s-104.35,2.76-156.87,4-105.35,2.28-158.31,3.23-106.11,1.72-159.37,2.34-106.63,1.09-160.06,1.37-107,.13-160.56-.46-107.13-1.62-160.56-2.9L382,2020l-10.14-.26.24-9.64q2.11-86.25,3.18-172.51t.64-172.51q-.31-86.25-1.54-172.51t-3.33-172.5l-.25-10.71,11.2-.24,158.62-3.52q79.3-1.66,158.62-2.7c52.88-.68,105.75-1.12,158.62-1.61l158.63-1.43c105.75-.9,211.5-1.55,317.24-1.25s211.5,1.23,317.25,2.53l19.2.23-.27,18.7-1.27,87.87-1.63,87.69q-1.85,87.56-4.21,174.35t-5,172.22Zm-2.82-2.83-5.37-175.7q-2.62-87.06-5-172.8T1635,1489.51l-1.63-84.82-1.27-84.63L1651,1339q-158.62,2-317.25,2.52c-105.74.3-211.49-.34-317.24-1.25l-158.63-1.43c-52.87-.49-105.74-.93-158.62-1.61s-105.75-1.59-158.62-2.7L382,1331l11-11q-2,86.25-3.34,172.5t-1.54,172.51q-.27,86.27.64,172.51t3.18,172.51L382,2000.2l157.34-4q78.48-1.93,156.7-2.91t156.68-.46q78.48.42,157.18,1.37t157.88,2.35q79.18,1.41,158.94,3.22t160.38,4C1540.89,2005.24,1594.9,2006.78,1649.59,2008.68Z"/><rect class="cls-4" x="-0.5" y="2604" width="2048" height="128"/><rect class="cls-4" x="-0.5" width="2048" height="128"/><path class="cls-5" d="M1058.4,406c11.89,5.12,19.61,13.34,18.88,27-.5,9.47-5.31,16.64-13.75,21.17-5.08,2.73-10.27,5.26-17.14,8.76,16.17.89,27.46,7,29.84,22.27,3.13,20.1-12.1,27.24-26.72,35.13,1.8.15,3.62.21,5.4.48a25.74,25.74,0,0,1,21.3,30.45c-2.13,10.21-5.2,12.14-15.42,10.86-26.94-3.36-53.83-3.21-80.61,1.7-1.44.26-2.91.41-5,.7,3.41-14.5,16.9-16.45,27.48-23.55-15.07-.45-25.46-6.67-28.19-20.77-4.16-21.51,12.51-28.29,29.44-36-5.81-.81-9.8-.77-13.36-2C980,478.64,973.81,471,973,459.94c-.85-11.38,4.18-20,14.45-25.21,19.07-9.66,38.23-19.16,57.36-28.73Z"/><path class="cls-6" d="M1025.08,895.82c-39.8.95-79.12-2.65-117.37-14-47.85-14.17-72.28-44.76-74.7-94.38-1.13-23-2.33-46.55,1-69.17,5.88-39.66,29.74-69.11,61.71-92.22,79.75-57.63,203.58-51.73,275.15,13.36,31.77,28.89,49.31,64.5,47.85,108.12-.63,18.58-.89,37.31-3.49,55.66-5.38,37.92-27.8,62.82-63.54,75.49-36.74,13-75,16.82-113.78,17.11C1033.65,895.85,1029.37,895.82,1025.08,895.82Zm84-51.64v0c10.83,0,21.66.32,32.47-.09,10.51-.39,16.18-10.9,10.29-19.34-2.44-3.51-1.52-5.89-1-9.42,1.31-9,3.51-18.64,1.67-27.24-5.5-25.78-32.21-40.15-57.12-32.15s-37.6,34.67-28.38,59.47c.87,2.35.27,5.33.06,8-.38,4.71-2.82,10.37-1,13.82s7.71,6.29,12.07,6.69C1088.34,844.83,1098.72,844.18,1109,844.18Zm-167.94,0c10.57,0,21.15.22,31.71-.06,11.46-.32,16.69-10.48,11-20.19-1.22-2.09-1-5.23-.89-7.84.55-9.37,3.52-19.17,1.68-28-5.39-25.75-32.23-40.17-57.1-32.21S889.85,790.55,899,815.32c.88,2.37.31,5.35.1,8-.38,4.7-2.84,10.35-1,13.8s7.69,6.32,12,6.73C920.39,844.83,930.78,844.18,941.1,844.17Z"/><path class="cls-6" d="M1147.05,908.38c2.3,22,5.69,42.82,6.34,63.78.54,17.84-7.87,32.39-23.75,41.93-23.38,14-48.68,21.17-75.91,22.42-32.55,1.5-65.18,3-96.71-6.72-13.78-4.25-27.11-10.82-39.6-18.12-14-8.2-21-22.47-20.56-38.17.63-21.45,3.91-42.83,6.15-65.22C985,926.58,1064.8,926.58,1147.05,908.38ZM1024.93,986c4.54,0,9.1.26,13.61-.06,7.24-.52,12.31-6,12.3-12.81a12.5,12.5,0,0,0-12.35-12.69c-8.81-.34-17.64-.31-26.45,0-7.38.24-12.48,5.53-12.66,12.38-.19,7.12,5,12.69,12.7,13.16C1016.35,986.25,1020.65,986,1024.93,986Z"/><path class="cls-5" d="M1228.58,832c-12.61,33.29-39.51,51.73-64.67,71.61-4.76,3.76-5.49,6.35-3.14,11.62,3,6.84,5,14.16,7.69,21.89a150.59,150.59,0,0,0,51.34-9.4A155.36,155.36,0,0,0,1248.09,914c11-7,17.2-18.1,20.64-30.59,4.82-17.54-1.42-33-17.39-41.6C1244.33,838,1236.67,835.45,1228.58,832Z"/><path class="cls-5" d="M818.77,832c12.61,33.29,39.51,51.73,64.67,71.61,4.76,3.76,5.49,6.35,3.14,11.62-3.05,6.84-5,14.16-7.69,21.89a150.59,150.59,0,0,1-51.34-9.4A155.36,155.36,0,0,1,799.26,914c-11-7-17.2-18.1-20.64-30.59-4.82-17.54,1.42-33,17.39-41.6C803,838,810.68,835.45,818.77,832Z"/><path class="cls-5" d="M941.78,793.27c-10.57.09-19.64,16.81-19.79,6.25a19.16,19.16,0,1,1,38.31-.35C960.29,809.81,952.36,793.18,941.78,793.27Z"/><path class="cls-5" d="M1109.85,794.4c-10.57.09-19.64,16.81-19.8,6.25a19.16,19.16,0,1,1,38.32-.35C1128.36,810.94,1120.42,794.31,1109.85,794.4Z"/><rect class="cls-3" x="525.77" y="1007.03" width="996.23" height="304.01"/><path class="cls-4" d="M1523.41,1312.46c-19.66,1.13-39.6,2.09-59.63,3s-40.22,1.76-60.48,2.58q-60.81,2.42-122.66,4.32c-82.41,2.51-165.92,4.3-249.91,5.2-42,.5-84.14.61-126.44,0s-84.66-1.71-126.92-3.23l-63.25-2.27-31.54-1.17-31.47-1q-62.86-2-125.34-2.63l-6.25-.06.05-6.15q.34-38,.12-76l-.29-38-.5-38q-.69-38-1.71-76c-.67-25.34-1.53-50.67-2.37-76l-.35-10.56,11.3-.39L588,994l62.26-2q62.26-1.85,124.53-2.76l124.53-1.76,62.26-.81q31.14-.42,62.27-.66,124.53-1.22,249.05.59T1522,991.82l15.6.45-.39,14.76c-.34,13.12-.8,26.22-1.23,39.29s-.92,26.11-1.45,39.11-1,26-1.64,38.85l-1.8,38.52-3.84,75.81Zm-2.82-2.83-7.68-154.36-1.8-37.48q-.9-18.66-1.64-37.15t-1.45-36.89c-.43-12.26-.89-24.5-1.23-36.72l15.21,15.21q-124.53,3.65-249.06,5.26t-249.05.58c-20.76-.19-41.51-.37-62.27-.66l-62.26-.81-124.53-1.75q-62.26-.88-124.53-2.76l-62.26-2L525.77,1018l11-11c-.84,25.34-1.69,50.67-2.36,76s-1.25,50.66-1.71,76l-.5,38-.3,38q-.17,38,.13,76l-6.21-6.2q62-.52,123.72-2.63l30.8-1L711,1300l61.27-2.27c40.76-1.52,81.41-2.68,122.14-3.23s81.56-.47,122.61,0c82.06.89,164.58,2.69,248.21,5.2q62.76,1.93,126.4,4.32l64,2.58C1477.17,1307.54,1498.74,1308.49,1520.59,1309.63Z"/><path class="cls-5" d="M620,1176H607.5v-75h25v75Zm25,25H632.5v-25h25v25Zm12.5,25v-25h25v25h-25Zm25-37.5V1176h25v25h-25Zm25-25V1101h25v75h-25Z"/><path class="cls-5" d="M757.5,1226V1101h25v125h-25Z"/><path class="cls-5" d="M882.5,1226h-75V1101h100v25h-75v75h75v25h-25Z"/><path class="cls-5" d="M982.5,1226V1126h-50v-25h125v25h-50v100h-25Z"/><path class="cls-5" d="M1157.5,1226h-75V1101h100v125h-25Zm0-25v-75h-50v75h50Z"/><path class="cls-5" d="M1282.5,1226h-25v-50h-25v50h-25V1101h100v75h-25v25h25v25h-25Zm0-75v-25h-50v25h50Z"/><path class="cls-5" d="M1407.5,1226h-75v-25h75v-25h-75v-75h25v50h50v-50h25v125h-25Z"/><path class="cls-5" d="M514.5,1531.05v-14.66c.74-5.05,1.27-10.13,2.24-15.13,12.34-63.41,74.67-105.23,137.87-92.56a117.58,117.58,0,0,1,92.27,137.48c-9,47-47.64,84.92-94.88,93-4.27.73-8.58,1.21-12.87,1.8H624.47a9.34,9.34,0,0,0-1.52-.37,112.91,112.91,0,0,1-55.59-19.19c-27.69-18.75-44.86-44.55-51-77.51C515.52,1539.68,515.1,1535.35,514.5,1531.05Zm110.43-28c0,6.33.09,12.67,0,19a9.89,9.89,0,0,0,3.2,7.72q19.59,19.44,39,39a15.68,15.68,0,0,0,1.87,1.69,6.84,6.84,0,0,0,10.83-4.62c.37-2.75-.94-4.81-2.82-6.68q-18.4-18.35-36.79-36.72a4.81,4.81,0,0,1-1.59-3.78c.06-11.83,0-23.66,0-35.49,0-4.45-2.85-7.54-6.85-7.56s-6.87,3.09-6.89,7.52C624.91,1489.78,624.93,1496.42,624.93,1503.07Zm13.74-54.8c0-2.36.06-4.72,0-7.08a6.85,6.85,0,0,0-13.7,0c-.08,4.57-.07,9.14,0,13.71a6.86,6.86,0,1,0,13.71,0C638.72,1452.69,638.67,1450.48,638.67,1448.27Zm-13.74,150.81c0,2.36,0,4.72,0,7.08a6.85,6.85,0,0,0,13.7.11q.15-7,0-13.93a6.85,6.85,0,0,0-13.7.12C624.88,1594.66,624.93,1596.87,624.93,1599.08Zm-68.75-68.5c2.36,0,4.72.08,7.08,0a6.85,6.85,0,0,0-.08-13.7q-7-.13-13.94,0a6.86,6.86,0,0,0,.09,13.71C551.61,1530.64,553.9,1530.59,556.18,1530.58Zm151.09,0c2.36,0,4.72.06,7.08,0a6.85,6.85,0,0,0-.07-13.7c-4.57-.08-9.14-.07-13.71,0a6.86,6.86,0,1,0,.07,13.71C702.85,1530.63,705.06,1530.59,707.27,1530.59ZM696.93,1582a6.83,6.83,0,0,0-6.82-6.87,7,7,0,0,0-6.87,6.88,6.83,6.83,0,0,0,6.88,6.81A6.71,6.71,0,0,0,696.93,1582Zm-6.8-123.42a6.83,6.83,0,0,0-6.89,6.8,7,7,0,0,0,6.86,6.89,6.83,6.83,0,0,0,6.83-6.87A6.69,6.69,0,0,0,690.13,1458.6ZM566.67,1581.8a6.71,6.71,0,0,0,6.59,7,6.8,6.8,0,0,0,7.09-6.58,7,7,0,0,0-6.65-7.09A6.81,6.81,0,0,0,566.67,1581.8Zm0-116.46a6.82,6.82,0,0,0,6.74,7,7,7,0,0,0,6.94-6.81,6.8,6.8,0,0,0-6.79-6.88A6.7,6.7,0,0,0,566.67,1465.34Z"/><path class="cls-5" d="M1114.07,1589.22v-100h-25v-25h50v125h-25Z"/><path class="cls-5" d="M1189.07,1514.22v-25h25v25h-25Zm0,50v-25h25v25h-25Z"/><path class="cls-5" d="M1314.07,1589.22h-75v-25h75v-25h-75v-25h75v-25h-75v-25h100v125h-25Z"/><path class="cls-5" d="M1439.07,1589.22h-75v-125h100v125h-25Zm0-25v-75h-50v75h50Z"/><path class="cls-5" d="M777.28,1732.36c-1.63,5-4.26,9.19-9.14,11.72a16.46,16.46,0,1,1-14.06-29.71,17.1,17.1,0,0,1,22.2,10c.29.85.67,1.67,1,2.5Z"/><path class="cls-5" d="M551.82,1836.56l-24.29-77.16,7-4.74,9.37,8.21c9,7.84,19.09,13.42,30.93,15.59,12.48,2.29,23.06-1.45,32.08-10.13,8.68-8.36,14.31-18.67,18.78-29.66,2.33-5.74,4.16-11.67,6.22-17.52h9.87c1.25,3.86,2.41,7.89,3.84,11.82,4.2,11.57,9.33,22.65,17.51,32,6.15,7.07,13.36,12.65,23,13.79,9.4,1.12,18.35-1,26.87-5a68.18,68.18,0,0,0,23.19-17.59c.59-.69,1.23-1.34,1.94-2.11l7.92,5.3q-12.13,38.52-24.3,77.18Zm84.83-13.5,27.54-27.5-27.36-27.35-27.47,27.48Zm-49.55-.26L597.9,1812l-10.52-10.56c-3.51,3.51-7.29,7.28-10.86,10.83Zm88.19-11.14,10.9,10.85,10.54-10.59-10.85-10.79C682.42,1804.57,678.69,1808.29,675.29,1811.66Z"/><path class="cls-5" d="M727.21,1853.31v32.59H546.42v-32.59Z"/><path class="cls-5" d="M659.77,1723.66c21.89,4.23,40.9,13.14,57.15,28.49-8.86,6.37-18,11.45-29.1,10.11-2.94-.35-6.08-2.25-8.36-4.3C669.28,1748.83,664.28,1736.62,659.77,1723.66Z"/><path class="cls-5" d="M613.72,1723.66c-3.75,11.12-8.26,21.23-15.58,29.91-6.41,7.6-14.1,11-24,7.89a53.68,53.68,0,0,1-17.45-9.34C572.81,1736.83,591.82,1727.92,613.72,1723.66Z"/><path class="cls-5" d="M529.71,1729.61a16.55,16.55,0,0,1-16.42,16.45c-9.19,0-17.12-7.7-17-16.58s7.93-16.33,17-16.31A16.54,16.54,0,0,1,529.71,1729.61Z"/><path class="cls-5" d="M653.21,1688.36A16.45,16.45,0,1,1,636.75,1672,16.56,16.56,0,0,1,653.21,1688.36Z"/><path class="cls-5" d="M636.78,1799.89l-4.29-4.4,4.42-4.31,4,4.49Z"/><rect class="cls-3" x="831.39" y="1942.06" width="383.61" height="218.44"/><path class="cls-4" d="M1216.41,2161.91c-14.2,1.87-29.06,3.39-44.15,4.85s-30.58,2.73-46.21,4c-31.35,2.37-63.58,4.32-96.31,5.58s-65.85,2.23-99.21,1.18c-8.33-.26-16.66-.57-25-1.06s-16.62-1-24.9-1.58q-24.82-1.91-49.26-3.93l-11.21-.93.79-9.49c.75-9.1,1.45-18.2,2-27.31s1.11-18.2,1.49-27.3c.76-18.2,1-36.41.85-54.61s-.63-36.41-1.49-54.61-2.08-36.41-3.41-54.61l-.75-10.08,11.7-.87,24-1.78,24-1.68q24-1.67,47.95-2.69c16-.7,32-1.12,48-1.61l48-1.41c32-.93,63.94-1.56,95.91-1.37q24,.12,48,.75c8,.18,16,.45,24,.69l24,.88,19.85.73-.68,18.44c-.72,19.33-1.69,38.62-2.88,57.72-.59,9.54-1.29,19-2,28.46s-1.45,18.78-2.29,28c-1.56,18.53-3.36,36.65-5.13,54.31S1218.32,2145.45,1216.41,2161.91Zm-2.82-2.82-5.5-57.89c-1.77-18.75-3.57-37-5.13-54.91-.84-9-1.53-17.79-2.29-26.58s-1.37-17.49-2-26.15c-1.19-17.31-2.16-34.43-2.88-51.5l19.17,19.17-24,.88c-8,.24-16,.51-24,.68q-24,.63-48,.75c-32,.2-63.94-.43-95.91-1.36l-48-1.42c-16-.49-32-.9-48-1.6s-32-1.58-47.95-2.69l-24-1.68-24-1.78,11-11c-1.34,18.2-2.57,36.41-3.42,54.61s-1.31,36.41-1.49,54.61.09,36.41.85,54.61c.38,9.1.86,18.2,1.49,27.3s1.28,18.21,2,27.31l-10.41-10.42,46.63-3.93c7.71-.59,15.39-1.15,23.06-1.58s15.32-.8,23-1.06c30.57-1.05,61.38,0,92.59,1.18s62.91,3.21,95.5,5.58c16.34,1.24,32.85,2.52,49.7,4S1195.82,2157.22,1213.59,2159.09Z"/><path class="cls-5" d="M982,2119H907V1994h100v125H982Zm0-25v-75H932v75h50Z"/><path class="cls-5" d="M1032,2119V1994h25v50h50v25h-50v50h-25Zm75-87.5V1994h25v50h-25Zm0,87.5v-50h25v50h-25Z"/><path class="cls-5" d="M1063.5,1870h-75v-25h75v-25h-75v-75h100v25h-75v25h75v75h-25Z"/><path class="cls-5" d="M1188.5,1870h-75V1745h100v25h-75v25h75v75h-25Zm0-25v-25h-50v25h50Z"/><path class="cls-5" d="M1313.5,1870V1770h-50v25h-25v-50h100v125h-25Z"/><path class="cls-5" d="M1438.5,1870h-75v-25h75v-25h-75v-25h75v-25h-75v-25h100v125h-25Z"/><rect class="cls-7" x="51.98" y="27.17" width="96" height="20" rx="10"/><rect class="cls-7" x="51.98" y="56.17" width="96" height="20" rx="10"/><rect class="cls-7" x="51.98" y="87.17" width="96" height="20" rx="10"/><g class="cls-8"><path class="cls-7" d="M557.89,2663.23q0-16.53,0-33.07a10.28,10.28,0,0,1,.23-2.48,4.63,4.63,0,0,1,4.46-3.49q4.7,0,9.4,0a4.61,4.61,0,0,1,4.57,4.17,17.13,17.13,0,0,1,.12,1.89v66.14c0,.23,0,.47,0,.7.07.88-.35,1.15-1.19,1.14-5.46,0-10.92,0-16.38,0-1.14,0-1.21-.58-1.21-1.44q0-16.78,0-33.57"/><path class="cls-7" d="M525.65,2672.22q0-12.13,0-24.27c0-3.45,1.91-5.35,5.39-5.36h8.09c3.21,0,5.2,2,5.21,5.15v49.14c0,1.3,0,1.34-1.36,1.34q-8,0-16,0c-1.32,0-1.35,0-1.35-1.33v-24.67"/><path class="cls-7" d="M567.33,2707.32h50.36a4.62,4.62,0,0,1,4.85,3.36,4.68,4.68,0,0,1-4.32,6h-.7q-50.25,0-100.51,0a4.74,4.74,0,0,1-4.77-2.79,4.6,4.6,0,0,1,4.14-6.54c6.16-.05,12.32,0,18.48,0h32.47"/><path class="cls-7" d="M608.9,2681.45c0,5.16,0,10.33,0,15.49,0,1-.34,1.31-1.33,1.3-5.36,0-10.72,0-16.08,0-1.24,0-1.3-.06-1.3-1.3v-30.77a4.8,4.8,0,0,1,5-5.12c3-.07,5.93-.07,8.9,0a4.79,4.79,0,0,1,4.83,5c0,5.13,0,10.26,0,15.39"/></g><path class="cls-7" d="M1517.74,2717.17h-8.64s0-.07-.08-.08a4,4,0,0,1-3.23-3.16c-.59-2.12-1.21-4.24-1.79-6.37a1.73,1.73,0,0,0-1.07-1.22q-3.67-1.5-7.34-3.07a1.54,1.54,0,0,0-1.54.09c-1.93,1.12-3.86,2.22-5.8,3.32a3.86,3.86,0,0,1-5-.62c-1.68-1.64-3.35-3.31-5-5a3.85,3.85,0,0,1-.69-5.14c1-1.89,2.11-3.79,3.2-5.66a2,2,0,0,0,.11-2q-1.49-3.39-2.86-6.83a2.16,2.16,0,0,0-1.59-1.42q-3.2-.84-6.37-1.79a3.62,3.62,0,0,1-2.9-3.72c-.06-2.55-.07-5.11,0-7.66a3.71,3.71,0,0,1,3.06-3.85c2.12-.61,4.24-1.22,6.37-1.79a1.85,1.85,0,0,0,1.35-1.18c1-2.4,2-4.79,3-7.17a1.82,1.82,0,0,0-.12-1.78c-1.08-1.86-2.12-3.73-3.17-5.6-1.19-2.13-1-3.71.75-5.44l4.56-4.56c1.8-1.79,3.39-2,5.59-.76,1.86,1.07,3.73,2.13,5.58,3.21a1.52,1.52,0,0,0,1.5.09q3.66-1.56,7.33-3.08a1.73,1.73,0,0,0,1.1-1.26c.56-2.09,1.15-4.18,1.73-6.26a4.09,4.09,0,0,1,4.27-3.24h6.82a3.93,3.93,0,0,1,4.33,3.27c.58,2.05,1.17,4.09,1.72,6.14a1.94,1.94,0,0,0,1.22,1.4c2.38,1,4.75,2,7.11,3a1.78,1.78,0,0,0,1.77-.12c1.82-1.07,3.65-2.13,5.49-3.15,2.23-1.23,3.73-1,5.53.77q2.29,2.28,4.56,4.56a4,4,0,0,1,.73,5.5c-1,1.83-2.07,3.67-3.15,5.48a1.8,1.8,0,0,0-.1,1.78c1,2.29,2,4.58,2.88,6.89a2.31,2.31,0,0,0,1.72,1.51q3.24.84,6.43,1.83a3.85,3.85,0,0,1,2.8,3.13,1,1,0,0,0,.12.26v8.53c-.45,2.11-1.9,3.09-3.88,3.57s-3.78,1.07-5.68,1.57a1.78,1.78,0,0,0-1.29,1.15c-1,2.36-2,4.71-3,7.05a2,2,0,0,0,.13,2c1.08,1.85,2.13,3.72,3.17,5.6a3.9,3.9,0,0,1-.58,5.12q-2.52,2.64-5.17,5.15a3.84,3.84,0,0,1-4.91.56c-1.91-1.07-3.82-2.13-5.71-3.24a2,2,0,0,0-2-.11q-3.45,1.5-6.94,2.9a2,2,0,0,0-1.29,1.47q-.87,3.26-1.83,6.49a3.82,3.82,0,0,1-3.08,2.85A1,1,0,0,0,1517.74,2717.17Zm-4.18-62.38a15.66,15.66,0,1,0,15.64,15.64A15.78,15.78,0,0,0,1513.56,2654.79Z"/></g></svg>