<svg xmlns="http://www.w3.org/2000/svg" xmlns:xlink="http://www.w3.org/1999/xlink" viewBox="0 0 2048 2732"><defs><style>.cls-1{fill:none;}.cls-2{fill:#858ae3;stroke:#000;stroke-miterlimit:10;}.cls-3{fill:#2c0735;}.cls-4{fill:#2892d7;}.cls-5{fill:#613dc1;}.cls-6{fill:#fa8334;}.cls-7{fill:#4a1942;}.cls-8{fill:#fff;}.cls-9{clip-path:url(#clip-path);}</style><clipPath id="clip-path"><rect class="cls-1" x="970.81" y="2624.17" width="110.92" height="92.49"/></clipPath></defs><g id="background"><rect class="cls-2" x="-4" y="129.5" width="2052" height="2475"/></g><g id="Layer_2" data-name="Layer 2"><rect class="cls-3" x="0.5" y="2604" width="2048" height="128"/><rect class="cls-3" x="-0.5" width="2048" height="128"/><rect class="cls-4" x="185.5" y="394.09" width="1681" height="2030.91"/><path class="cls-3" d="M186.91,2423.59c142.56-2.66,283.8-4.85,424.51-6.93s280.68-3.91,420.28-5.43,278.77-2.65,417.82-3.35,278-1.19,417-.64L1848.74,2425q.46-126.93,1.81-253.86l1.43-126.93,1.71-126.94,3.38-253.86,1.43-126.93,1.06-126.93q1.76-253.87.42-507.73-.51-126.93-1.71-253.86t-2.72-253.87l11,11q-210.12,2.52-420.25,4.75l-105.06.92-105.07.76L1026,412.57l-420.25,2q-210.12.85-420.25,1.05L207,394.09q.09,252-1.68,504-1.72,252.15-4.46,505.14-2.79,253.15-6.36,508l-3.64,255.52Zm-2.82,2.82-4-250.81-3.64-252.2q-3.51-252.8-6.36-507.49T165.67,905.6Q164,650,164,394.09V372.58H185.5q210.12,0,420.25,1.05l420.25,2,210.12,1.1,105.07.75,105.06.92q210.12,2,420.25,4.75l11.08.14-.13,10.81Q1876,521,1874.73,648T1873,901.82q-1.12,253.86.42,507.73l1.06,126.93,1.43,126.93,3.38,253.86,1.71,126.94,1.43,126.93q1.33,126.93,1.81,253.86l.07,17.69-17.83.07c-141.14.55-282.4,0-423.52-.64s-282.1-1.86-422.68-3.35-280.73-3.36-420.22-5.43S321.7,2429.07,184.09,2426.41Z"/><rect class="cls-5" x="318.85" y="1641.21" width="1442" height="509.5"/><path class="cls-3" d="M1762.26,2152.13c-29,1.1-58.24,2-87.58,2.91l-88.39,2.52q-88.71,2.36-178.4,4.25c-119.53,2.52-240.16,4.32-361.24,5.33q-45.41.36-90.9.57t-91.12-.11q-91.21-.48-182.55-2.57L500,2160.62c-60.54-1.44-120.88-2.63-181.16-3.26l-6.72-.07.07-6.58q.71-63.67.64-127.37c0-21.23,0-42.46-.18-63.69s-.22-42.46-.44-63.69q-.54-63.68-1.71-127.37t-2.61-127.38l-.24-10.7,11.19-.25,180.25-4q90.12-1.8,180.25-2.75l180.25-1.71,90.12-.8,90.13-.69q180.24-1.32,360.5.1t360.5,4.58l16.51.29-.3,15.91-1.26,65.06-1.52,64.88-1.74,64.61-1.92,64.25Zm-2.83-2.83-8.36-257.38-1.92-63.13-1.74-62.76-1.52-62.5-1.25-62.32,16.21,16.21q-180.25,3.22-360.5,4.58t-360.5.1l-90.13-.69-90.12-.8-180.25-1.71q-90.14-.95-180.25-2.75l-180.25-4,10.95-11q-1.43,63.69-2.61,127.38T325.48,1896c-.23,21.23-.33,42.46-.44,63.69s-.16,42.46-.18,63.69q0,63.69.63,127.37l-6.64-6.64c59.89-.63,119.7-1.82,179.34-3.26l178.43-4.41q89-2,178-2.57,44.52-.26,89.12-.11t89.36.57c119.25,1,239,2.81,359.76,5.33q90.57,1.85,182.09,4.25l91.87,2.51c30.74.9,61.57,1.82,92.66,2.92"/><rect class="cls-5" x="316.35" y="1153.09" width="1443" height="380"/><path class="cls-3" d="M1760.76,1534.51c-28.93,1.17-58.15,2.15-87.48,3.09l-88.36,2.64q-88.7,2.48-178.5,4.36c-119.63,2.55-240.45,4.27-361.69,5.1q-90.93.63-182.44-.45l-22.86-.31-22.87-.38-22.86-.4-22.87-.48-45.71-1-45.66-1.14-91.14-2.38-45.47-1.1-45.4-1q-90.72-1.77-181.1-1.93h-6v-6q.06-47.49-.24-95l-.15-23.75-.23-23.75-.23-23.75-.32-23.75q-.3-23.74-.74-47.5l-.89-47.5-2.13-95-.24-10.67,11.19-.28,90.19-2.19,90.18-2q90.19-1.85,180.38-2.77c120.25-1.15,240.5-2.57,360.75-3.25s240.5-.22,360.75,1.09,240.5,3.18,360.75,5.92l14.49.33-.3,13.86c-.68,32.51-1.59,64.94-2.53,97.23l-1.54,48.29-1.67,48Zm-2.83-2.83-7-192.09-1.68-47-1.54-46.71c-.94-31-1.85-61.95-2.53-92.78l14.2,14.2q-180.37,4.11-360.75,5.92-180.37,2-360.75,1.08c-120.25-.68-240.5-2.09-360.75-3.24q-90.2-.88-180.38-2.78l-90.18-2-90.19-2.2,10.95-11-2.14,95-.89,47.5q-.42,23.76-.73,47.5l-.32,23.75-.24,23.75-.23,23.75-.14,23.75q-.35,47.51-.24,95l-6-6q89.92-.12,179.64-1.93l44.79-1,44.72-1.11,89.23-2.37,44.53-1.14q22.25-.57,44.48-1L786,1518l22.24-.4,22.22-.38,22.24-.32q88.94-1.15,178.31-.44c119.26.83,238.94,2.54,359.81,5.09q90.66,1.93,182.25,4.36l92,2.65c30.8.94,61.7,1.92,92.89,3.09"/><rect class="cls-5" x="317.85" y="641.09" width="1440" height="380"/><path class="cls-3" d="M1759.26,1022.51c-28.87,1.17-58,2.15-87.3,3.09l-88.17,2.64q-88.51,2.48-178.12,4.36c-119.39,2.55-240,4.27-361,5.1q-90.74.63-182.06-.44-22.8-.29-45.63-.7l-22.81-.39-22.82-.48q-22.81-.45-45.62-1l-45.57-1.14-91-2.37L543.88,1030l-45.3-1q-90.54-1.79-180.73-1.94h-6v-6q.06-47.49-.24-95l-.14-23.75-.24-23.75L311,854.84l-.32-23.75q-.3-23.75-.73-47.5l-.89-47.5-2.14-95-.24-10.67,11.19-.28,90-2.19,90-2q90-1.86,180-2.78c120-1.15,240-2.56,360-3.24s240-.24,360,1.07,240,3.18,360,5.91l14.5.33-.29,13.88c-.69,32.51-1.59,64.95-2.53,97.23L1768,786.61l-1.69,48Zm-2.83-2.83-7-192.09-1.68-47-1.54-46.7c-.94-31-1.85-62-2.53-92.78l14.21,14.21q-180,4.11-360,5.92t-360,1.07c-120-.68-240-2.09-360-3.24q-90-.88-180-2.78l-90-2-90-2.2,10.95-10.95-2.14,95-.89,47.5q-.42,23.76-.73,47.5l-.33,23.75-.23,23.75-.23,23.75-.14,23.75q-.35,47.51-.24,95l-6-6q89.73-.14,179.27-1.94l44.69-1,44.63-1.1,89-2.37,44.43-1.14q22.2-.57,44.39-1l22.18-.48,22.19-.4q22.17-.4,44.36-.69,88.76-1.15,177.94-.44c119,.83,238.44,2.55,359.06,5.1q90.46,1.92,181.87,4.36l91.83,2.64q46.1,1.41,92.7,3.09"/><rect class="cls-5" x="354.85" y="235.09" width="1365" height="270"/><path class="cls-3" d="M1718.43,236.51q-44.43,1.85-88.14,3.23l-43.71,1.43-43.5,1.31q-86.86,2.57-172.52,4.43c-114.34,2.57-227.46,4.24-340.11,4.84q-84.44.31-168.28-1.39-42-.8-84-2.06L694,245.88q-42.13-1.26-84.44-2.32t-84.75-1.66q-84.89-1.26-170-.64l6.16-6.17.23,33.75.36,33.75.46,33.75q.24,16.88.58,33.75.58,33.75,1.43,67.5l1.73,67.5-10.95-10.95q85.31-2.34,170.62-4.42t170.63-2.78c113.75-1.22,227.5-2.72,341.25-3.23s227.5.34,341.25,2q85.31,1.11,170.62,2.91t170.63,4.21l-12.29,12.29q1-32.65,2.25-65.58l1.33-33.07,1.44-33.33C1714.54,328.48,1716.62,283,1718.43,236.51Zm2.83-2.83,5.86,133.4,1.44,34.17,1.33,34.43q1.26,34.54,2.25,69.41l.33,11.92-12.62.38q-85.32,2.5-170.63,4.21t-170.62,2.91q-170.62,2.43-341.25,2c-113.75-.51-227.5-2-341.25-3.23q-85.32-.91-170.63-2.78T354.85,516l-11.23-.3.28-10.65,1.73-67.5q.78-33.75,1.43-67.5.35-16.87.57-33.75l.47-33.75.36-33.75.22-33.75,0-6.2,6.13,0q85.59.48,171.25-.64,42.87-.61,85.87-1.67t86.18-2.31l86.47-2.43q43.3-1.2,86.65-2,86.68-1.74,173-1.39c114.84.6,229.23,2.27,342.38,4.83q84.88,1.9,168.74,4.43l41.81,1.32,41.6,1.42C1666.46,231.42,1694,232.45,1721.26,233.68Z"/><polygon points="646.26 421.68 634.39 421.68 622.51 421.68 610.64 421.68 598.76 421.68 586.89 421.68 575.01 421.68 575.01 409.8 575.01 397.93 586.89 397.93 598.76 397.93 610.64 397.93 622.51 397.93 634.39 397.93 646.26 397.93 646.26 386.05 646.26 374.18 634.39 374.18 622.51 374.18 610.64 374.18 598.76 374.18 586.89 374.18 575.01 374.18 575.01 362.3 575.01 350.43 575.01 338.55 575.01 326.68 575.01 314.8 575.01 302.93 586.89 302.93 598.76 302.93 610.64 302.93 622.51 302.93 634.39 302.93 646.26 302.93 658.14 302.93 670.01 302.93 670.01 314.8 670.01 326.68 658.14 326.68 646.26 326.68 634.39 326.68 622.51 326.68 610.64 326.68 598.76 326.68 598.76 338.55 598.76 350.43 610.64 350.43 622.51 350.43 634.39 350.43 646.26 350.43 658.14 350.43 670.01 350.43 670.01 362.3 670.01 374.18 670.01 386.05 670.01 397.93 670.01 409.8 670.01 421.68 658.14 421.68 646.26 421.68"/><polygon points="765.01 421.68 753.14 421.68 741.26 421.68 729.39 421.68 717.51 421.68 705.64 421.68 693.76 421.68 693.76 409.8 693.76 397.93 693.76 386.05 693.76 374.18 693.76 362.3 693.76 350.43 693.76 338.55 693.76 326.68 693.76 314.8 693.76 302.93 705.64 302.93 717.51 302.93 729.39 302.93 741.26 302.93 753.14 302.93 765.01 302.93 776.89 302.93 788.76 302.93 788.76 314.8 788.76 326.68 776.89 326.68 765.01 326.68 753.14 326.68 741.26 326.68 729.39 326.68 717.51 326.68 717.51 338.55 717.51 350.43 729.39 350.43 741.26 350.43 753.14 350.43 765.01 350.43 776.89 350.43 788.76 350.43 788.76 362.3 788.76 374.18 776.89 374.18 765.01 374.18 753.14 374.18 741.26 374.18 729.39 374.18 717.51 374.18 717.51 386.05 717.51 397.93 729.39 397.93 741.26 397.93 753.14 397.93 765.01 397.93 776.89 397.93 788.76 397.93 788.76 409.8 788.76 421.68 776.89 421.68 765.01 421.68"/><polygon points="860.01 421.68 860.01 409.8 860.01 397.93 860.01 386.05 860.01 374.18 860.01 362.3 860.01 350.43 860.01 338.55 860.01 326.68 848.14 326.68 836.26 326.68 824.39 326.68 812.51 326.68 812.51 314.8 812.51 302.93 824.39 302.93 836.26 302.93 848.14 302.93 860.01 302.93 871.89 302.93 883.76 302.93 895.64 302.93 907.51 302.93 919.39 302.93 931.26 302.93 931.26 314.8 931.26 326.68 919.39 326.68 907.51 326.68 895.64 326.68 883.76 326.68 883.76 338.55 883.76 350.43 883.76 362.3 883.76 374.18 883.76 386.05 883.76 397.93 883.76 409.8 883.76 421.68 871.89 421.68 860.01 421.68"/><polygon points="1002.51 421.68 1002.51 409.8 1002.51 397.93 1002.51 386.05 1002.51 374.18 1002.51 362.3 1002.51 350.43 1002.51 338.55 1002.51 326.68 990.64 326.68 978.76 326.68 966.89 326.68 955.01 326.68 955.01 314.8 955.01 302.93 966.89 302.93 978.76 302.93 990.64 302.93 1002.51 302.93 1014.39 302.93 1026.26 302.93 1038.14 302.93 1050.01 302.93 1061.89 302.93 1073.76 302.93 1073.76 314.8 1073.76 326.68 1061.89 326.68 1050.01 326.68 1038.14 326.68 1026.26 326.68 1026.26 338.55 1026.26 350.43 1026.26 362.3 1026.26 374.18 1026.26 386.05 1026.26 397.93 1026.26 409.8 1026.26 421.68 1014.39 421.68 1002.51 421.68"/><polygon points="1097.51 421.68 1097.51 409.8 1097.51 397.93 1097.51 386.05 1097.51 374.18 1097.51 362.3 1097.51 350.43 1097.51 338.55 1097.51 326.68 1097.51 314.8 1097.51 302.93 1109.39 302.93 1121.26 302.93 1121.26 314.8 1121.26 326.68 1121.26 338.55 1121.26 350.43 1121.26 362.3 1121.26 374.18 1121.26 386.05 1121.26 397.93 1121.26 409.8 1121.26 421.68 1109.39 421.68 1097.51 421.68"/><polygon points="1216.26 421.68 1216.26 409.8 1216.26 397.93 1216.26 386.05 1216.26 374.18 1216.26 362.3 1216.26 350.43 1216.26 338.55 1216.26 326.68 1204.39 326.68 1192.51 326.68 1180.64 326.68 1168.76 326.68 1168.76 338.55 1168.76 350.43 1168.76 362.3 1168.76 374.18 1168.76 386.05 1168.76 397.93 1168.76 409.8 1168.76 421.68 1156.89 421.68 1145.01 421.68 1145.01 409.8 1145.01 397.93 1145.01 386.05 1145.01 374.18 1145.01 362.3 1145.01 350.43 1145.01 338.55 1145.01 326.68 1145.01 314.8 1145.01 302.93 1156.89 302.93 1168.76 302.93 1180.64 302.93 1192.51 302.93 1204.39 302.93 1216.26 302.93 1228.14 302.93 1240.01 302.93 1240.01 314.8 1240.01 326.68 1240.01 338.55 1240.01 350.43 1240.01 362.3 1240.01 374.18 1240.01 386.05 1240.01 397.93 1240.01 409.8 1240.01 421.68 1228.14 421.68 1216.26 421.68"/><polygon points="1335.01 421.68 1323.14 421.68 1311.26 421.68 1299.39 421.68 1287.51 421.68 1275.64 421.68 1263.76 421.68 1263.76 409.8 1263.76 397.93 1263.76 386.05 1263.76 374.18 1263.76 362.3 1263.76 350.43 1263.76 338.55 1263.76 326.68 1263.76 314.8 1263.76 302.93 1275.64 302.93 1287.51 302.93 1299.39 302.93 1311.26 302.93 1323.14 302.93 1335.01 302.93 1346.89 302.93 1358.76 302.93 1358.76 314.8 1358.76 326.68 1346.89 326.68 1335.01 326.68 1323.14 326.68 1311.26 326.68 1299.39 326.68 1287.51 326.68 1287.51 338.55 1287.51 350.43 1287.51 362.3 1287.51 374.18 1287.51 386.05 1287.51 397.93 1299.39 397.93 1311.26 397.93 1323.14 397.93 1335.01 397.93 1335.01 386.05 1335.01 374.18 1323.14 374.18 1311.26 374.18 1311.26 362.3 1311.26 350.43 1323.14 350.43 1335.01 350.43 1346.89 350.43 1358.76 350.43 1358.76 362.3 1358.76 374.18 1358.76 386.05 1358.76 397.93 1358.76 409.8 1358.76 421.68 1346.89 421.68 1335.01 421.68"/><polygon points="1453.76 421.68 1441.89 421.68 1430.01 421.68 1418.14 421.68 1406.26 421.68 1394.39 421.68 1382.51 421.68 1382.51 409.8 1382.51 397.93 1394.39 397.93 1406.26 397.93 1418.14 397.93 1430.01 397.93 1441.89 397.93 1453.76 397.93 1453.76 386.05 1453.76 374.18 1441.89 374.18 1430.01 374.18 1418.14 374.18 1406.26 374.18 1394.39 374.18 1382.51 374.18 1382.51 362.3 1382.51 350.43 1382.51 338.55 1382.51 326.68 1382.51 314.8 1382.51 302.93 1394.39 302.93 1406.26 302.93 1418.14 302.93 1430.01 302.93 1441.89 302.93 1453.76 302.93 1465.64 302.93 1477.51 302.93 1477.51 314.8 1477.51 326.68 1465.64 326.68 1453.76 326.68 1441.89 326.68 1430.01 326.68 1418.14 326.68 1406.26 326.68 1406.26 338.55 1406.26 350.43 1418.14 350.43 1430.01 350.43 1441.89 350.43 1453.76 350.43 1465.64 350.43 1477.51 350.43 1477.51 362.3 1477.51 374.18 1477.51 386.05 1477.51 397.93 1477.51 409.8 1477.51 421.68 1465.64 421.68 1453.76 421.68"/><path class="cls-4" d="M603.29,1306.35c0,27.61-.23,55.23.12,82.84.13,10.41-3.71,18.73-10.59,26-11.69,12.26-26.32,19-42.79,21.94a54.72,54.72,0,0,1-25.75-1c-7.17-2.14-13.35-5.78-16.62-12.91-3.5-7.63-1.89-14.94,2-21.9,4.92-8.69,12.21-15,20.72-20,12.81-7.44,26.55-11.82,41.51-11.74a38,38,0,0,1,9,1.08c2.21.54,2.65-.24,2.64-2.2,0-8.6,0-17.19,0-25.79v-42.26c0-3.24,0-3.27-3.16-2.66q-35.13,6.76-70.25,13.56-20.72,4-41.45,7.94c-3.42.65-3.43.62-3.43,4,0,33.43-.18,66.86.1,100.28a34.17,34.17,0,0,1-9.67,24.61c-12.43,13.33-28,20.73-45.88,23.35-9.57,1.4-19.09,1.08-28.09-3-7.93-3.55-13.32-9.22-13.87-18.38a25.08,25.08,0,0,1,3.47-13.7c5.06-9.19,12.63-15.9,21.49-21.22,13-7.83,27.05-12.21,42.39-11.81a37.54,37.54,0,0,1,8.26,1.06c2.11.53,2.58-.23,2.41-2.08-.07-.71,0-1.43,0-2.15V1248.86c0-5.27.35-5.74,5.55-6.74q47.3-9.15,94.6-18.26l50.57-9.76c5.14-1,6.72.3,6.72,5.58v86.67M583.9,1267c0-1.76,0-3.51,0-5.26,0-2.94-.12-3-3-2.46L528,1269.47q-30,5.77-60,11.51c-1.66.31-2.47,1-2.41,2.82.12,3.82.07,7.64,0,11.46,0,1.69.51,2.22,2.29,1.87,15.61-3.06,31.23-6,46.84-9,22.1-4.25,44.19-8.54,66.3-12.72,2.25-.42,3.15-1.31,2.88-3.6a39.92,39.92,0,0,1,0-4.77"/><rect class="cls-6" x="710.85" y="747.09" width="974" height="170"/><path class="cls-3" d="M1684.85,917.09c-305.17,1.91-668.84,3.64-974,3.89H707v-3.9l-.11-170v-4h4c121.46,0,365.59.29,487,.6,121.25.36,365.74,1.35,487,2.1h1.3v1.28Zm0,0-1.29-170,1.29,1.3c-121.51.75-365.56,1.75-487,2.09-121.29.33-365.72.58-487,.61l4-4-.12,170-3.88-3.88c305.16.25,668.84,2,974,3.88"/><rect class="cls-6" x="710.85" y="1258.09" width="974" height="170"/><path class="cls-3" d="M1684.85,1428.09c-305.17,1.91-668.84,3.64-974,3.89H707v-3.9l-.11-170v-4h4c121.46,0,365.59.29,487,.6,121.25.36,365.74,1.35,487,2.1h1.3v1.28Zm0,0-1.29-170,1.29,1.3c-121.51.75-365.56,1.75-487,2.09-121.29.33-365.72.58-487,.61l4-4-.12,170-3.88-3.88c305.16.25,668.84,2,974,3.88"/><path class="cls-4" d="M555.81,832c0,34.51-.2,69,.12,103.51.09,10.7-7.48,21.39-19.79,22.35a20.18,20.18,0,0,1-13.39-3.62q-34.81-24.3-69.6-48.64c-2-1.37-2-3.07-2-5.05q0-61.32,0-122.66c0-5.18.05-10.36,0-15.54a4.28,4.28,0,0,1,2-3.92c23.21-16.2,46.33-32.52,69.61-48.63,6.85-4.74,14.41-5.16,21.81-1.16s11.21,10.28,11.22,18.74q0,52.32,0,104.62"/><path class="cls-4" d="M430.91,832v59.1c0,3.73,0,3.77-3.65,3.78-9.16,0-18.31,0-27.47,0a31.73,31.73,0,0,1-31.89-32q-.11-30.66,0-61.32c.06-18.42,13.92-32.25,32.35-32.36,9-.05,17.94,0,26.91,0,3.71,0,3.75,0,3.75,3.68V832"/><path class="cls-4" d="M660.12,834.61c-1,37.23-15.37,70.95-44.43,98.19-4.85,4.55-11.37,4.55-15.63.1s-3.94-11.09,1.09-15.78c19.12-17.82,31.34-39.52,35.62-65.27,5.76-34.64-2.62-65.81-24.58-93.27a133.57,133.57,0,0,0-11.66-12.25c-3.19-3.1-4.33-6.88-2.93-11.16a10.29,10.29,0,0,1,8.89-7.35,10.17,10.17,0,0,1,8.64,2.87,136.34,136.34,0,0,1,42.73,77.23,148.9,148.9,0,0,1,2.26,26.69"/><path class="cls-4" d="M618.48,832.46c-.46,21.83-8,41.08-23.21,57.24-4.52,4.82-11.14,5.17-15.63,1s-4.68-10.55-.18-15.41c8.93-9.64,14.8-20.75,16.68-33.78,2.72-18.91-2.12-35.72-14.54-50.29-.78-.92-1.63-1.77-2.4-2.7-4.14-5-3.84-11.48.7-15.4s11-3.48,15.41,1.24a83.47,83.47,0,0,1,20.81,38.32,90.67,90.67,0,0,1,2.36,19.79"/><path class="cls-7" d="M1718.85,947.09h-89a12,12,0,0,1-12-12v-206a12,12,0,0,1,12-12h89a12,12,0,0,1,12,12v206a12,12,0,0,1-12,12"/><path class="cls-4" d="M1695.85,779.09h-40a12,12,0,0,1-12-12v-3a12,12,0,0,1,12-12h40a12,12,0,0,1,12,12v3a12,12,0,0,1-12,12"/><path class="cls-4" d="M1695.85,845.09h-40a12,12,0,0,1-12-12v-3a12,12,0,0,1,12-12h40a12,12,0,0,1,12,12v3a12,12,0,0,1-12,12"/><path class="cls-4" d="M1694.85,911.09h-40a12,12,0,0,1-12-12v-3a12,12,0,0,1,12-12h40a12,12,0,0,1,12,12v3a12,12,0,0,1-12,12"/><path class="cls-7" d="M1718.85,1458.09h-89a12,12,0,0,1-12-12v-206a12,12,0,0,1,12-12h89a12,12,0,0,1,12,12v206a12,12,0,0,1-12,12"/><path class="cls-4" d="M1695.85,1290.09h-40a12,12,0,0,1-12-12v-3a12,12,0,0,1,12-12h40a12,12,0,0,1,12,12v3a12,12,0,0,1-12,12"/><path class="cls-4" d="M1695.85,1356.09h-40a12,12,0,0,1-12-12v-3a12,12,0,0,1,12-12h40a12,12,0,0,1,12,12v3a12,12,0,0,1-12,12"/><path class="cls-4" d="M1694.85,1422.09h-40a12,12,0,0,1-12-12v-3a12,12,0,0,1,12-12h40a12,12,0,0,1,12,12v3a12,12,0,0,1-12,12"/><polygon points="754.35 1833.84 742.47 1833.84 730.6 1833.84 718.72 1833.84 706.85 1833.84 694.97 1833.84 683.1 1833.84 683.1 1821.97 683.1 1810.09 683.1 1798.22 683.1 1786.34 683.1 1774.47 683.1 1762.59 683.1 1750.72 683.1 1738.84 683.1 1726.97 683.1 1715.09 694.97 1715.09 706.85 1715.09 718.72 1715.09 730.6 1715.09 742.47 1715.09 754.35 1715.09 766.22 1715.09 778.1 1715.09 778.1 1726.97 778.1 1738.84 766.22 1738.84 754.35 1738.84 742.47 1738.84 730.6 1738.84 718.72 1738.84 706.85 1738.84 706.85 1750.72 706.85 1762.59 706.85 1774.47 706.85 1786.34 706.85 1798.22 706.85 1810.09 718.72 1810.09 730.6 1810.09 742.47 1810.09 754.35 1810.09 766.22 1810.09 778.1 1810.09 778.1 1821.97 778.1 1833.84 766.22 1833.84 754.35 1833.84"/><polygon points="873.1 1833.84 873.1 1821.97 873.1 1810.09 873.1 1798.22 873.1 1786.34 861.22 1786.34 849.35 1786.34 837.47 1786.34 825.6 1786.34 825.6 1798.22 825.6 1810.09 825.6 1821.97 825.6 1833.84 813.72 1833.84 801.85 1833.84 801.85 1821.97 801.85 1810.09 801.85 1798.22 801.85 1786.34 801.85 1774.47 801.85 1762.59 801.85 1750.72 801.85 1738.84 801.85 1726.97 801.85 1715.09 813.72 1715.09 825.6 1715.09 825.6 1726.97 825.6 1738.84 825.6 1750.72 825.6 1762.59 837.47 1762.59 849.35 1762.59 861.22 1762.59 873.1 1762.59 873.1 1750.72 873.1 1738.84 873.1 1726.97 873.1 1715.09 884.97 1715.09 896.85 1715.09 896.85 1726.97 896.85 1738.84 896.85 1750.72 896.85 1762.59 896.85 1774.47 896.85 1786.34 896.85 1798.22 896.85 1810.09 896.85 1821.97 896.85 1833.84 884.97 1833.84 873.1 1833.84"/><path d="M991.85,1833.84v-47.5h-47.5v47.5H920.6V1715.09h95v118.75H991.85Zm0-71.25v-23.75h-47.5v23.75h47.5Z"/><polygon points="1110.6 1833.84 1110.6 1821.97 1110.6 1810.09 1110.6 1798.22 1110.6 1786.34 1110.6 1774.47 1110.6 1762.59 1110.6 1750.72 1110.6 1738.84 1098.72 1738.84 1086.85 1738.84 1074.97 1738.84 1063.1 1738.84 1063.1 1750.72 1063.1 1762.59 1063.1 1774.47 1063.1 1786.34 1063.1 1798.22 1063.1 1810.09 1063.1 1821.97 1063.1 1833.84 1051.22 1833.84 1039.35 1833.84 1039.35 1821.97 1039.35 1810.09 1039.35 1798.22 1039.35 1786.34 1039.35 1774.47 1039.35 1762.59 1039.35 1750.72 1039.35 1738.84 1039.35 1726.97 1039.35 1715.09 1051.22 1715.09 1063.1 1715.09 1074.97 1715.09 1086.85 1715.09 1098.72 1715.09 1110.6 1715.09 1122.47 1715.09 1134.35 1715.09 1134.35 1726.97 1134.35 1738.84 1134.35 1750.72 1134.35 1762.59 1134.35 1774.47 1134.35 1786.34 1134.35 1798.22 1134.35 1810.09 1134.35 1821.97 1134.35 1833.84 1122.47 1833.84 1110.6 1833.84"/><polygon points="1229.35 1833.84 1217.47 1833.84 1205.6 1833.84 1193.72 1833.84 1181.85 1833.84 1169.97 1833.84 1158.1 1833.84 1158.1 1821.97 1158.1 1810.09 1158.1 1798.22 1158.1 1786.34 1158.1 1774.47 1158.1 1762.59 1158.1 1750.72 1158.1 1738.84 1158.1 1726.97 1158.1 1715.09 1169.97 1715.09 1181.85 1715.09 1193.72 1715.09 1205.6 1715.09 1217.47 1715.09 1229.35 1715.09 1241.22 1715.09 1253.1 1715.09 1253.1 1726.97 1253.1 1738.84 1241.22 1738.84 1229.35 1738.84 1217.47 1738.84 1205.6 1738.84 1193.72 1738.84 1181.85 1738.84 1181.85 1750.72 1181.85 1762.59 1181.85 1774.47 1181.85 1786.34 1181.85 1798.22 1181.85 1810.09 1193.72 1810.09 1205.6 1810.09 1217.47 1810.09 1229.35 1810.09 1229.35 1798.22 1229.35 1786.34 1217.47 1786.34 1205.6 1786.34 1205.6 1774.47 1205.6 1762.59 1217.47 1762.59 1229.35 1762.59 1241.22 1762.59 1253.1 1762.59 1253.1 1774.47 1253.1 1786.34 1253.1 1798.22 1253.1 1810.09 1253.1 1821.97 1253.1 1833.84 1241.22 1833.84 1229.35 1833.84"/><polygon points="1348.1 1833.84 1336.22 1833.84 1324.35 1833.84 1312.47 1833.84 1300.6 1833.84 1288.72 1833.84 1276.85 1833.84 1276.85 1821.97 1276.85 1810.09 1276.85 1798.22 1276.85 1786.34 1276.85 1774.47 1276.85 1762.59 1276.85 1750.72 1276.85 1738.84 1276.85 1726.97 1276.85 1715.09 1288.72 1715.09 1300.6 1715.09 1312.47 1715.09 1324.35 1715.09 1336.22 1715.09 1348.1 1715.09 1359.97 1715.09 1371.85 1715.09 1371.85 1726.97 1371.85 1738.84 1359.97 1738.84 1348.1 1738.84 1336.22 1738.84 1324.35 1738.84 1312.47 1738.84 1300.6 1738.84 1300.6 1750.72 1300.6 1762.59 1312.47 1762.59 1324.35 1762.59 1336.22 1762.59 1348.1 1762.59 1359.97 1762.59 1371.85 1762.59 1371.85 1774.47 1371.85 1786.34 1359.97 1786.34 1348.1 1786.34 1336.22 1786.34 1324.35 1786.34 1312.47 1786.34 1300.6 1786.34 1300.6 1798.22 1300.6 1810.09 1312.47 1810.09 1324.35 1810.09 1336.22 1810.09 1348.1 1810.09 1359.97 1810.09 1371.85 1810.09 1371.85 1821.97 1371.85 1833.84 1359.97 1833.84 1348.1 1833.84"/><polygon points="623.72 2061.84 611.85 2061.84 599.97 2061.84 588.1 2061.84 576.22 2061.84 564.35 2061.84 552.47 2061.84 552.47 2049.97 552.47 2038.09 552.47 2026.22 552.47 2014.34 552.47 2002.47 552.47 1990.59 552.47 1978.72 552.47 1966.84 552.47 1954.97 552.47 1943.09 564.35 1943.09 576.22 1943.09 588.1 1943.09 599.97 1943.09 611.85 1943.09 623.72 1943.09 635.6 1943.09 647.47 1943.09 647.47 1954.97 647.47 1966.84 635.6 1966.84 623.72 1966.84 611.85 1966.84 599.97 1966.84 588.1 1966.84 576.22 1966.84 576.22 1978.72 576.22 1990.59 576.22 2002.47 576.22 2014.34 576.22 2026.22 576.22 2038.09 588.1 2038.09 599.97 2038.09 611.85 2038.09 623.72 2038.09 635.6 2038.09 647.47 2038.09 647.47 2049.97 647.47 2061.84 635.6 2061.84 623.72 2061.84"/><path d="M742.47,2061.84v-47.5H695v47.5H671.22V1943.09h95v118.75H742.47Zm0-71.25v-23.75H695v23.75h47.5Z"/><polygon points="837.47 2061.84 837.47 2049.97 837.47 2038.09 837.47 2026.22 837.47 2014.34 837.47 2002.47 837.47 1990.59 837.47 1978.72 837.47 1966.84 825.6 1966.84 813.72 1966.84 801.85 1966.84 789.97 1966.84 789.97 1954.97 789.97 1943.09 801.85 1943.09 813.72 1943.09 825.6 1943.09 837.47 1943.09 849.35 1943.09 861.22 1943.09 873.1 1943.09 884.97 1943.09 896.85 1943.09 908.72 1943.09 908.72 1954.97 908.72 1966.84 896.85 1966.84 884.97 1966.84 873.1 1966.84 861.22 1966.84 861.22 1978.72 861.22 1990.59 861.22 2002.47 861.22 2014.34 861.22 2026.22 861.22 2038.09 861.22 2049.97 861.22 2061.84 849.35 2061.84 837.47 2061.84"/><polygon points="1003.72 2061.84 991.85 2061.84 979.97 2061.84 968.1 2061.84 956.22 2061.84 944.35 2061.84 932.47 2061.84 932.47 2049.97 932.47 2038.09 932.47 2026.22 932.47 2014.34 932.47 2002.47 932.47 1990.59 932.47 1978.72 932.47 1966.84 932.47 1954.97 932.47 1943.09 944.35 1943.09 956.22 1943.09 968.1 1943.09 979.97 1943.09 991.85 1943.09 1003.72 1943.09 1015.6 1943.09 1027.47 1943.09 1027.47 1954.97 1027.47 1966.84 1015.6 1966.84 1003.72 1966.84 991.85 1966.84 979.97 1966.84 968.1 1966.84 956.22 1966.84 956.22 1978.72 956.22 1990.59 968.1 1990.59 979.97 1990.59 991.85 1990.59 1003.72 1990.59 1015.6 1990.59 1027.47 1990.59 1027.47 2002.47 1027.47 2014.34 1015.6 2014.34 1003.72 2014.34 991.85 2014.34 979.97 2014.34 968.1 2014.34 956.22 2014.34 956.22 2026.22 956.22 2038.09 968.1 2038.09 979.97 2038.09 991.85 2038.09 1003.72 2038.09 1015.6 2038.09 1027.47 2038.09 1027.47 2049.97 1027.47 2061.84 1015.6 2061.84 1003.72 2061.84"/><polygon points="1122.47 2061.84 1110.6 2061.84 1098.72 2061.84 1086.85 2061.84 1074.97 2061.84 1063.1 2061.84 1051.22 2061.84 1051.22 2049.97 1051.22 2038.09 1051.22 2026.22 1051.22 2014.34 1051.22 2002.47 1051.22 1990.59 1051.22 1978.72 1051.22 1966.84 1051.22 1954.97 1051.22 1943.09 1063.1 1943.09 1074.97 1943.09 1086.85 1943.09 1098.72 1943.09 1110.6 1943.09 1122.47 1943.09 1134.35 1943.09 1146.22 1943.09 1146.22 1954.97 1146.22 1966.84 1134.35 1966.84 1122.47 1966.84 1110.6 1966.84 1098.72 1966.84 1086.85 1966.84 1074.97 1966.84 1074.97 1978.72 1074.97 1990.59 1074.97 2002.47 1074.97 2014.34 1074.97 2026.22 1074.97 2038.09 1086.85 2038.09 1098.72 2038.09 1110.6 2038.09 1122.47 2038.09 1122.47 2026.22 1122.47 2014.34 1110.6 2014.34 1098.72 2014.34 1098.72 2002.47 1098.72 1990.59 1110.6 1990.59 1122.47 1990.59 1134.35 1990.59 1146.22 1990.59 1146.22 2002.47 1146.22 2014.34 1146.22 2026.22 1146.22 2038.09 1146.22 2049.97 1146.22 2061.84 1134.35 2061.84 1122.47 2061.84"/><path d="M1241.22,2061.84H1170V1943.09h95v118.75h-23.75Zm0-23.75v-71.25h-47.5v71.25h47.5Z"/><path d="M1360,2061.84h-23.75v-47.5h-23.75v47.5h-23.75V1943.09h95v71.25H1360v23.75h23.75v23.75H1360Zm0-71.25v-23.75h-47.5v23.75H1360Z"/><polygon points="1478.72 2061.84 1466.85 2061.84 1454.97 2061.84 1443.1 2061.84 1431.22 2061.84 1419.35 2061.84 1407.47 2061.84 1407.47 2049.97 1407.47 2038.09 1419.35 2038.09 1431.22 2038.09 1443.1 2038.09 1454.97 2038.09 1466.85 2038.09 1478.72 2038.09 1478.72 2026.22 1478.72 2014.34 1466.85 2014.34 1454.97 2014.34 1443.1 2014.34 1431.22 2014.34 1419.35 2014.34 1407.47 2014.34 1407.47 2002.47 1407.47 1990.59 1407.47 1978.72 1407.47 1966.84 1407.47 1954.97 1407.47 1943.09 1419.35 1943.09 1431.22 1943.09 1431.22 1954.97 1431.22 1966.84 1431.22 1978.72 1431.22 1990.59 1443.1 1990.59 1454.97 1990.59 1466.85 1990.59 1478.72 1990.59 1478.72 1978.72 1478.72 1966.84 1478.72 1954.97 1478.72 1943.09 1490.6 1943.09 1502.47 1943.09 1502.47 1954.97 1502.47 1966.84 1502.47 1978.72 1502.47 1990.59 1502.47 2002.47 1502.47 2014.34 1502.47 2026.22 1502.47 2038.09 1502.47 2049.97 1502.47 2061.84 1490.6 2061.84 1478.72 2061.84"/><rect class="cls-1" x="32.85" y="73.25" width="1961" height="2359.85"/><rect class="cls-5" x="824.91" y="2284.71" width="383.61" height="218.44"/><path class="cls-3" d="M1209.94,2504.57c-14.21,1.86-29.06,3.39-44.16,4.85s-30.57,2.72-46.21,4c-31.34,2.37-63.57,4.32-96.3,5.58s-65.86,2.23-99.22,1.18c-8.33-.27-16.65-.58-25-1.07s-16.62-1-24.89-1.57q-24.84-1.91-49.27-3.94l-11.21-.92.79-9.5q1.14-13.65,2-27.3c.63-9.1,1.11-18.2,1.49-27.31.76-18.2,1-36.4.85-54.61s-.62-36.4-1.49-54.61-2.07-36.4-3.41-54.61l-.74-10.08,11.69-.87,24-1.77,24-1.68q24-1.67,47.95-2.69c16-.7,32-1.12,48-1.61l48-1.42c32-.93,63.93-1.56,95.9-1.36q24,.11,48,.75c8,.18,16,.45,24,.68l24,.89,19.85.72-.68,18.44c-.71,19.34-1.69,38.63-2.87,57.72-.6,9.55-1.29,19-2,28.47s-1.44,18.78-2.28,28c-1.57,18.53-3.37,36.66-5.14,54.32S1211.84,2488.1,1209.94,2504.57Zm-2.83-2.83-5.49-57.89c-1.77-18.74-3.57-37-5.14-54.9-.84-9-1.52-17.79-2.28-26.59s-1.37-17.49-2-26.14c-1.19-17.32-2.16-34.43-2.87-51.51l19.16,19.17-24,.88c-8,.24-16,.51-24,.69q-24,.62-48,.75c-32,.2-63.93-.44-95.9-1.36l-48-1.42c-16-.49-32-.91-48-1.61s-32-1.58-47.95-2.69l-24-1.68-24-1.78,11-10.95c-1.34,18.21-2.57,36.41-3.41,54.61s-1.31,36.41-1.49,54.61.09,36.41.85,54.61c.38,9.11.86,18.21,1.49,27.31s1.27,18.2,2,27.3l-10.42-10.41,46.64-3.94c7.71-.58,15.38-1.15,23.05-1.57s15.32-.8,23-1.07c30.58-1,61.39,0,92.6,1.18s62.91,3.21,95.5,5.58c16.33,1.25,32.84,2.53,49.69,4S1189.35,2499.88,1207.11,2501.74Z"/><path d="M975.55,2461.61h-75v-125h100v125h-25Zm0-25v-75h-50v75h50Z"/><path d="M1025.55,2461.61v-125h25v50h50v25h-50v50h-25Zm75-87.5v-37.5h25v50h-25Zm0,87.5v-50h25v50h-25Z"/><rect class="cls-8" x="55.98" y="27.17" width="96" height="20" rx="10"/><rect class="cls-8" x="55.98" y="56.17" width="96" height="20" rx="10"/><rect class="cls-8" x="55.98" y="87.17" width="96" height="20" rx="10"/><g class="cls-9"><path class="cls-8" d="M1016.89,2663.23q0-16.53,0-33.07a10.28,10.28,0,0,1,.23-2.48,4.63,4.63,0,0,1,4.46-3.49q4.7,0,9.4,0a4.61,4.61,0,0,1,4.57,4.17,17.13,17.13,0,0,1,.12,1.89v66.14c0,.23,0,.47,0,.7.07.88-.35,1.15-1.19,1.14-5.46,0-10.92,0-16.38,0-1.14,0-1.21-.58-1.21-1.44q0-16.78,0-33.57"/><path class="cls-8" d="M984.65,2672.22q0-12.13,0-24.27c0-3.45,1.91-5.35,5.39-5.36h8.09c3.21,0,5.2,2,5.21,5.15v49.14c0,1.3,0,1.34-1.36,1.34q-8,0-16,0c-1.32,0-1.35,0-1.35-1.33v-24.67"/><path class="cls-8" d="M1026.33,2707.32h50.36a4.62,4.62,0,0,1,4.85,3.36,4.68,4.68,0,0,1-4.32,6h-.7q-50.25,0-100.51,0a4.74,4.74,0,0,1-4.77-2.79,4.6,4.6,0,0,1,4.14-6.54c6.16-.05,12.32,0,18.48,0h32.47"/><path class="cls-8" d="M1067.9,2681.45c0,5.16,0,10.33,0,15.49,0,1-.34,1.31-1.33,1.3-5.36,0-10.72,0-16.08,0-1.24,0-1.3-.06-1.3-1.3v-30.77a4.8,4.8,0,0,1,5-5.12c3-.07,5.93-.07,8.9,0a4.79,4.79,0,0,1,4.83,5c0,5.13,0,10.26,0,15.39"/></g><path class="cls-8" d="M1907.62,110c-.27-.3-.52-.61-.8-.89q-11.65-11.65-23.3-23.3c-1.09-1.09-2.19-2.16-3.27-3.25-.66-.67-.65-1,0-1.65q8.13-8.13,16.26-16.24c3.62-3.61,7.22-7.24,10.84-10.85a2.14,2.14,0,0,1,.62-.32,2.17,2.17,0,0,1,.23.66q0,9.48,0,19c0,1.2.2,1.41,1.4,1.41h35.67c4.16,0,8.31,0,12.47,0a21.17,21.17,0,1,0,0-42.33l-76.72,0a8,8,0,0,1-1.57-.32V17.62h80.59a3.53,3.53,0,0,0,.56.14,33,33,0,0,1,13.53,3.88c10.62,5.88,17.17,14.66,18.9,26.82.16,1.15.28,2.32.42,3.48v3a4.3,4.3,0,0,0-.13.7,32.44,32.44,0,0,1-3.7,13.59c-7,12.87-17.81,19.55-32.44,19.69-15.85.15-31.69,0-47.54,0-1.44,0-1.49,0-1.49,1.48q0,9.45,0,18.89a3.78,3.78,0,0,1-.14.65Z"/></g></svg>